<?xml version="1.0" encoding="UTF-8" standalone="no"?>
<!-- Created with Inkscape (http://www.inkscape.org/) -->

<svg
   width="200"
   height="200"
   viewBox="0 0 52.916666 52.916666"
   version="1.1"
   id="svg3520"
   inkscape:version="1.2.1 (9c6d41e410, 2022-07-14)"
   sodipodi:docname="energyArc.svg"
   xmlns:inkscape="http://www.inkscape.org/namespaces/inkscape"
   xmlns:sodipodi="http://sodipodi.sourceforge.net/DTD/sodipodi-0.dtd"
   xmlns="http://www.w3.org/2000/svg"
   xmlns:svg="http://www.w3.org/2000/svg">
  <sodipodi:namedview
     id="namedview3522"
     pagecolor="#ffffff"
     bordercolor="#000000"
     borderopacity="0.25"
     inkscape:showpageshadow="2"
     inkscape:pageopacity="0.0"
     inkscape:pagecheckerboard="0"
     inkscape:deskcolor="#d1d1d1"
     inkscape:document-units="mm"
     showgrid="true"
     inkscape:zoom="4.20579"
     inkscape:cx="-1.9021397"
     inkscape:cy="69.903632"
     inkscape:window-width="2560"
     inkscape:window-height="1528"
     inkscape:window-x="-8"
     inkscape:window-y="-8"
     inkscape:window-maximized="1"
     inkscape:current-layer="layer1">
    <inkscape:grid
       type="xygrid"
       id="grid312"
       spacingx="26.458333"
       spacingy="26.458333" />
  </sodipodi:namedview>
  <defs
     id="defs3517">
    <inkscape:path-effect
       effect="roughen"
       id="path-effect4102"
       is_visible="true"
       lpeversion="1.2"
       method="size"
       max_segment_size="0.224"
       segments="2"
       displace_x="0.85;1"
       displace_y="0.5;1"
       global_randomize="0.6;1"
       handles="along"
       shift_nodes="true"
       fixed_displacement="false"
       spray_tool_friendly="false" />
  </defs>
  <g
     inkscape:label="Layer 1"
     inkscape:groupmode="layer"
     id="layer1">
    <g
       id="g301">
      <path
         id="path4162"
         style="fill:#00ffff;fill-opacity:0.135922;stroke:none;stroke-width:1.10679;stroke-linecap:round;stroke-opacity:0.527559"
         d="m 27.431588,27.534245 c 0,14.294604 9.782476,14.821082 23.958456,21.400196 C 31.012078,51.392571 7.4724905,49.238953 8.8499479,26.160585 10.173717,3.9817183 30.142298,-0.66195673 48.780705,4.3266022 35.948933,9.8212468 27.431588,13.239643 27.431588,27.534245 Z"
         sodipodi:nodetypes="scscs" />
      <path
         id="path3736"
         style="fill:#00ffff;stroke:#3f77f7;stroke-width:1.1288;stroke-linecap:round;stroke-opacity:0.527559"
         d="m 21.931153,26.799997 c 0.08373,0.02833 0.09948,0.02496 0.180199,0.05804 0.02287,-0.03286 0.530437,0.136379 0.642677,0.194851 0.29552,0.03365 -0.07082,-0.06409 -0.07082,-0.06409 0.02988,-0.01163 0.134022,0.06444 0.22745,0.123843 0.03269,0.01721 0.184062,0.122844 0.27259,0.19086 0.064,0.04965 0.215136,0.134294 0.279092,0.190944 0.121705,0.06367 -0.01006,-0.01308 0.0298,0.02581 -0.0018,6.76e-4 0.327751,0.218111 0.406094,0.314204 0.173977,0.06397 0.04742,0.05843 0.06949,0.08772 0.04937,0.06456 0.173488,0.155298 0.214584,0.221039 0.109882,0.07326 0.06785,0.09686 0.09324,0.144492 0.04686,0.06967 0.08163,0.136009 0.109144,0.203914 0.04222,0.07057 -0.0556,-0.03662 -0.03651,0.03305 -0.06952,-0.0374 -0.02927,0.175452 -0.02496,0.316701 -0.08618,-0.0092 0.135431,0.196407 0.123821,0.292929 0.128721,0.06902 -0.01166,0.134354 -0.02826,0.198644 -0.0058,0.05959 -0.01987,0.114337 -0.04063,0.168235 -0.0082,0.0567 -0.01784,0.112814 -0.04403,0.163192 -8.18e-4,0.05981 0.379699,0.112787 0.347211,0.160834 0.349061,0.140687 -0.274996,0.04232 -0.447083,0.149685 -0.113311,-0.16564 -0.08987,0.08726 -0.157233,0.127118 -0.02119,0.04343 -0.0999,0.07477 -0.160789,0.108091 -0.04292,0.03973 0.140831,0.124935 0.07911,0.155655 0.143192,0.119406 -0.258975,0.08696 -0.409536,0.132203 -0.07817,9.3e-5 -0.148096,0.03023 -0.224712,0.05007 -0.08259,0.0088 -0.19732,-8.28e-4 -0.28135,0.01855 -0.117973,-0.02268 -0.223684,-0.0023 -0.305874,0.01908 -0.149232,-0.01888 -0.201386,-0.048 -0.280226,-0.01815 -0.107426,0.04068 -0.213293,0.162186 -0.323055,0.168203 -0.07539,0.0041 -0.145614,0.01096 -0.194022,0.0318 -0.05748,0.01469 -0.136311,-0.09842 -0.160775,-0.06278 -0.100592,-0.07758 0.227562,0.221747 0.255906,0.342775 0.282744,0.06438 0.07148,0.05795 0.07501,0.07102 0.07615,0.07275 0.146181,0.134899 0.161755,0.178855 0.136234,0.09281 0.297186,0.09905 0.314482,0.142004 0.284752,0.0611 -0.06123,-0.0056 -0.04193,0.04083 -0.04872,0.02262 0.197753,0.271524 0.254265,0.401921 0.126407,0.102076 -0.01924,-0.06243 0.01238,0.014 -0.01536,-0.04734 0.165981,0.357988 0.227459,0.53582 0.06051,0.10757 0.25644,0.18693 0.282478,0.277449 0.223517,0.101139 -0.02305,0.143658 -0.01176,0.236689 -0.05593,0.07097 0.152373,0.29405 0.146351,0.405629 0.127207,0.157851 -0.0818,0.16273 -0.123334,0.243424 -0.07569,0.01707 -0.073,0.087 -0.104301,0.13119 -0.04426,0.02479 -0.164321,-0.111059 -0.191798,-0.07941 -0.156466,-0.131433 -0.116932,0.09269 -0.139247,0.176269 -0.01201,0.04498 -0.04878,0.0071 -0.08408,0.01465 -0.164099,0.03505 -0.351472,-0.04219 -0.492002,-0.0056 -0.176347,-0.07641 -0.290257,-0.145115 -0.408647,-0.106768 -0.170178,-0.170705 -0.289632,-0.0025 -0.405661,0.04951 -0.147354,-0.03865 -0.246666,0.133823 -0.340986,0.201476 -0.11598,0.09582 0.189771,0.233012 0.136766,0.3297 0.359052,0.128186 0.09707,0.1791 0.0917,0.261088 0.162572,0.04179 -0.04607,-0.216404 -0.04488,-0.192516 -0.04069,-0.19039 0.0095,0.139869 0.03756,0.216933 -0.0016,0.01604 0.110539,0.09316 0.122298,0.11901 0.09542,0.05235 -0.0044,0.01177 7.65e-4,0.02226 0.0014,0.02244 0.240381,0.09972 0.258966,0.131553 0.210626,0.04105 0.009,0.01038 0.01177,0.01506 0.0246,0.0365 0.264823,0.100779 0.288784,0.136257 0.226939,0.03841 0.0027,0.01057 0.0086,0.01916 0.02305,0.03992 -0.0084,0.02152 0.0267,0.06765 -0.02147,-0.0022 0.230105,0.17176 0.289654,0.240544 0.144232,0.06005 0.08252,0.07206 0.106162,0.09851 0.07483,0.0622 0.154199,0.122264 0.193912,0.164613 0.109131,0.07117 0.190633,0.123924 0.223665,0.158072 0.148607,0.07885 0.311828,0.101709 0.33537,0.125787 0.265105,0.05351 -0.08471,-0.141007 -0.08342,-0.139686 0.01965,-0.03406 0.226369,0.229111 0.308138,0.327123 0.06822,0.06198 0.0078,0.01889 0.04288,0.06229 -0.01112,-0.0029 0.397031,0.16801 0.457504,0.235265 0.28054,0.02483 0.27307,0.06439 0.27307,0.06439 0.38948,0.193851 -0.108126,0.09412 -0.11604,0.133928 -0.0011,-0.08701 -0.02722,0.01266 -0.01929,0.04091 0.0077,0.02738 0.21014,0.08446 0.228691,0.08892 0.202279,0.04868 0.372835,0.0763 0.549588,0.124102 0.16692,0.02954 0.346104,-0.104801 0.505166,-0.05555 0.172338,-0.147841 0.367086,0.121332 0.517825,0.178288 0.143835,0.05546 0.334177,0.125342 0.439313,0.17316 0.169139,0.06473 0.117193,0.0049 0.183311,0.03993 0.08853,-0.0016 0.172691,0.07531 0.258214,0.13893 0.05898,0.02862 0.472184,0.228622 0.531987,0.309494 0.280268,0.06594 -0.03486,-0.03926 -0.03486,-0.03926 0.05705,0.08504 0.07187,0.210414 0.05422,0.328085 -0.05712,0.02117 -0.03016,0.111627 -0.05727,0.167299 -0.0177,0.0285 -0.0191,0.06107 -0.03863,0.09098 -0.0068,0.03084 0.04465,0.06861 0.02035,0.09837 0.05244,0.05008 -0.175323,-0.05359 -0.219278,-0.01343 -0.134279,-0.106621 -0.07347,-0.01826 -0.108732,0.01352 -0.05063,-0.03951 0.199569,0.142406 0.152797,0.186715 0.221384,0.124411 -0.173026,-0.06212 -0.27275,-0.0012 -0.08044,-0.150785 -0.140963,0.06179 -0.211054,0.115056 -0.05004,0.006 -0.09189,0.07084 -0.136292,0.108579 -0.04054,0.03267 0.205837,0.135319 0.168553,0.168422 0.214777,0.129158 -0.251788,0.07054 -0.382524,0.09953 -0.08149,-0.02155 0.134236,0.08592 0.10463,0.09767 -0.05853,0.02324 -0.335089,-0.03614 -0.359512,-0.02519 -0.06297,0.02823 -0.165392,-0.173831 -0.224217,-0.142264 -0.13104,-0.183976 -0.271131,0.01346 -0.349879,0.06959 -0.150448,-0.04909 0.215611,0.09889 0.167988,0.140299 0.209579,0.116617 -0.0091,0.244509 -0.09146,0.352961 0.149796,0.109233 -0.045,0.151091 -0.0842,0.217405 0.02245,0.06463 0.04372,0.107819 0.0225,0.151306 0.0711,0.06549 0.0111,0.114767 -0.0061,0.158843 0.0386,0.06106 -0.01485,0.07505 -0.02558,0.109314 4.89e-4,0.03889 0.237707,0.102395 0.230113,0.134814 0.248528,0.07296 0.229845,0.111846 0.223896,0.147051 0.240383,0.07091 0.266647,0.06376 0.262748,0.09365 0.27098,0.04482 0.375921,0.114785 0.371716,0.154898 0.380401,0.0905 0.08727,0.161023 0.08018,0.214207 0.09803,0.07173 0.05414,0.07934 0.05085,0.103798 0.05834,0.04911 -0.02626,0.02943 -0.02874,0.04931 -0.02252,0.0031 -0.03297,-0.01519 -0.03429,-3.22e-4 -0.03052,-0.03233 0.116544,0.07959 0.116241,0.09298 0.118549,0.05583 0.03361,0.02383 0.03358,0.02794 0.03371,0.02355 -0.07624,-0.113536 -0.07608,-0.105875 -0.07576,-0.108709 -0.0075,0.02701 -0.0035,0.04622 -0.0073,-0.0019 0.002,0.01984 0.0063,0.03113 0.0036,0.01574 -0.04138,-0.03896 -0.02747,-0.02164 -0.01972,-0.02795 0.11329,0.09602 0.234623,0.131723 0.08659,0.02548 0.230163,0.05952 0.369571,0.06998 0.139829,0.02237 0.18129,-0.0212 0.318586,-0.02802 0.08814,-0.03653 0.384343,0.02723 0.568381,0.01449 0.14747,-0.01021 0.31192,-0.02098 0.47963,-0.04714 0.112001,-0.01747 0.383872,0.02883 0.492848,0.01674 0.217507,0.05478 0.109624,-0.01318 0.164803,-0.01809 0.102984,-0.01074 0.575147,0.0106 0.676424,0.0059 0.3665,0.02695 0.05589,0.0248 0.05589,0.0248 0.110906,0.02226 0.07255,-0.03065 0.125803,-0.03191 0.06864,-0.02871 0.197283,-0.0088 0.295689,-0.0063 0.0823,-0.004 0.178753,0.0047 0.264776,0.01118 0.08275,0.0043 0.202959,0.03381 0.282059,0.04423 0.10158,0.02756 0.11667,0.0068 0.17823,0.01809 0.06733,0.0028 0.144025,-0.0039 0.216775,0.01519 0.06632,-0.01479 0.09393,-0.05709 0.164032,-0.03094 0.04685,-0.06151 0.217751,0.09075 0.303489,0.144725 0.07133,0.03967 0.09653,0.06733 0.143862,0.109468 0.04391,0.04316 0.06703,0.0473 0.108694,0.106857 0.01115,0.01464 0.06622,0.141361 0.09291,0.230006 -0.01,0.03925 0.311038,0.139282 0.317509,0.200152 0.289652,0.09481 -0.01729,0.108278 -0.04265,0.181873 -0.03381,0.02213 0.102253,0.176728 0.06735,0.236744 0.113455,0.123486 -0.183555,0.0044 -0.246561,0.06333 -0.127119,-0.08805 0.254516,0.129797 0.221489,0.164729 0.246929,0.143326 -0.193189,0.153441 -0.33617,0.224922 -0.03955,0.0285 -0.105524,0.05078 -0.158816,0.07572 -0.05945,0.02747 -0.09767,0.05752 -0.151804,0.08468 -0.07793,0.0391 -0.168684,0.0731 -0.216238,0.111627 -0.04766,0.03861 -0.04376,0.101628 -0.08448,0.139127 0.0035,0.06601 -0.07713,0.08566 -0.113432,0.125317 -0.02462,0.03982 -0.07118,-0.205343 -0.09696,-0.170893 -0.09475,-0.161909 -0.129759,0.229792 -0.137868,0.343081 9.8e-4,0.03497 -0.08178,-0.002 -0.07727,0.03111 -0.07308,-0.01457 0.07013,0.131042 0.09731,0.185246 0.0513,0.03437 0.158161,0.06841 0.164728,0.0798 0.146302,0.04561 -0.03068,-0.01953 -0.03068,-0.01953 -0.01626,0.0055 0.0044,-0.0034 0.02254,0.02139 -2.43e-4,-0.01773 0.02997,-0.01904 0.06393,0.01653 0.01223,-0.0503 0.02046,0.03304 0.0693,0.07388 -0.01427,-0.0082 0.264424,0.10125 0.322139,0.141523 0.169173,0.02493 0.02956,0.01014 0.03341,0.01281 0.06174,0.03237 0.160585,0.09207 0.204128,0.119762 0.109725,0.05632 0.376127,0.08506 0.408312,0.104371 0.314143,0.0462 -0.06397,-0.05411 -0.06397,-0.05411 0.0087,-0.0105 0.139198,0.07893 0.214974,0.121725 0.06985,0.03544 0.227389,0.09606 0.310554,0.138525 0.136511,0.04294 0.255297,0.09205 0.324247,0.124328 0.18314,0.05386 0.475414,0.07025 0.536251,0.0967 0.362303,0.01788 0.252617,0.06446 0.258922,0.06723 0.287843,0.07997 0.199299,0.08138 0.237351,0.100013 0.220463,0.09501 0.387758,0.155882 0.462653,0.18977 0.289655,0.09625 0.02715,-0.0082 0.132068,0.0063 0.08263,0.01144 0.506802,0.09407 0.759802,0.127212 0.261755,0.03429 0.414302,-0.06 0.646713,-0.02674 0.18096,-0.08869 0.46331,0.02121 0.700112,0.05969 0.167758,-0.0189 0.511868,0.0768 0.711903,0.11436 0.2182,0.03046 0.548661,0.07152 0.686182,0.10083 0.310594,0.02672 0.113446,0.0071 0.1759,0.02136 0.123867,0.011 0.304635,0.08182 0.423386,0.113994 0.131083,0.04381 0.09827,-0.152188 0.181942,-0.125602 0.08045,-0.150969 0.311175,0.108852 0.426009,0.165191 0.09505,0.04633 0.2411,0.129242 0.303313,0.178096 0.116574,0.07348 0.153238,0.111547 0.18345,0.15238 0.128261,0.120588 0.02003,0.131669 0.0051,0.2211 -0.07025,-0.0077 0.01577,0.09965 -0.0015,0.141173 0.02766,0.03619 -0.02233,0.03428 -0.03196,0.05317 -0.01573,0.01628 0.08117,0.07911 0.06954,0.09889 0.08549,0.068 0.145562,0.05873 0.125548,0.08674 0.140729,0.05838 -0.169763,0.01186 -0.22356,0.06654 -0.10203,-0.07646 -0.01471,0.05992 -0.03734,0.08438 0.0085,0.03721 0.06146,0.09726 0.03945,0.122593 0.07832,0.08051 0.0272,0.07269 -0.0014,0.104936 0.05249,0.04414 0.13841,0.137899 0.105974,0.173653 0.149036,0.126864 -0.15532,0.07694 -0.218242,0.124893 -0.03048,-0.02774 -0.03434,-0.05884 -0.04424,-0.04919 -0.0222,-0.06683 -0.02622,-0.105843 -0.03376,-0.09231 -0.01878,-0.106195 -0.0363,0.04688 -0.03824,0.08731 -0.01742,0.01006 0.102686,0.06692 0.105402,0.08954 0.106534,0.05671 0.05282,0.07991 0.0502,0.108861 0.04782,0.05397 -0.03541,-0.121724 -0.04312,-0.09868 -0.0062,0.01861 0.07686,0.24304 0.101346,0.256618 -0.07436,0 -0.150657,-0.0045 -0.225245,-0.0052 -0.07578,-0.0048 -0.250425,-0.138098 -0.324579,-0.139426 -0.142396,-0.137125 -0.101969,-0.08363 -0.141876,-0.08435 -0.08975,-0.08342 -0.128761,0.0015 -0.196153,5.94e-4 -0.0713,0.0027 -0.167933,-0.0096 -0.245379,-0.01034 -0.08395,-0.0084 -0.195413,-0.03721 -0.266521,-0.0377 -0.110897,-0.03636 -0.107314,0.0022 -0.165106,0.002 -0.06999,0.0026 -0.137721,0.0036 -0.21597,0.0036 -0.06243,0.004 -0.145009,0.0025 -0.22679,0.0025 -0.06248,0.0025 -0.12795,0.0075 -0.209501,0.0073 -0.0512,0.0073 4.17e-4,0.06205 -0.0866,0.06135 0.04549,0.06154 -0.269257,-0.08404 -0.405683,-0.08945 -0.07899,-0.0825 -0.153381,-0.01198 -0.225862,-0.01452 -0.08175,-0.009 -0.1168,0.0067 -0.188853,0.0044 -0.05665,0.0089 -0.234679,-0.05706 -0.318964,-0.06028 -0.120497,-0.0535 -0.107449,-0.0055 -0.158962,-0.0069 -0.0778,-0.0039 -0.124141,0.0082 -0.197036,0.0068 -0.05783,0.01014 -0.210823,-0.0695 -0.292794,-0.07213 -0.108031,-0.0681 -0.09422,0.0071 -0.152278,0.0085 -0.0545,0.01072 -0.162086,0.0054 -0.244193,0.0065 -0.07175,0.0015 -0.196395,-0.04022 -0.2693,-0.04413 -0.07347,-0.0039 -0.09965,0.0272 -0.171764,0.01471 -0.07247,-0.01256 -0.113672,-0.0083 -0.186043,-0.02127 -0.05216,0.0021 -0.16944,-0.03199 -0.252847,-0.04764 -0.0739,-0.01509 -0.06329,-0.02258 -0.134514,-0.03644 -0.01817,-0.01455 0.09571,-0.02399 -0.0023,-0.04392 0.129965,-0.01831 -0.102515,-0.04626 -0.272638,-0.08206 0.08505,-0.0087 -0.08685,0.005 -0.236291,-0.02693 0.06456,0.03653 -0.250485,-0.049 -0.394377,-0.08103 -0.05544,-0.0075 -0.168366,-0.119127 -0.248769,-0.137479 -0.07256,-0.09793 0.169166,0.02985 0.106672,0.01587 0.133205,0.02221 -0.374222,-0.253866 -0.550794,-0.292163 -0.09065,-0.191124 0.05348,0.0371 0.0067,0.02783 0.02558,0.03285 0.06994,-0.03844 -0.05756,-0.06028 0.152853,-0.0198 -0.298493,-0.03426 -0.486651,-0.06104 -0.04028,0.0084 -0.0845,-0.01649 -0.17318,-0.02918 -0.0094,-0.0059 -0.19612,-0.0269 -0.298559,-0.04186 -0.06866,-0.0089 -0.150349,-0.154204 -0.22251,-0.165134 -0.07394,-0.143252 0.345839,-0.01043 0.279355,-0.01697 0.296945,-0.0102 -0.512314,-0.08754 -0.771401,-0.09635 -0.117203,-0.0635 0.04723,0.04971 -9.14e-4,0.04998 0.03857,0.0526 -0.260007,-0.02303 -0.375475,-0.02921 -0.09394,-0.02423 -0.133432,-0.0091 -0.186842,-0.01126 -0.0936,-0.0038 -0.103729,0.0154 -0.14526,5.2e-5 -0.06199,-0.02291 -0.09137,-0.03971 -0.146278,-0.06151 -0.03595,-0.02022 0.23131,-0.04687 0.174572,-0.07144 0.199747,-0.06395 -0.357983,-0.203514 -0.49505,-0.268637 -0.07831,-0.0789 -0.03789,-0.02033 -0.05382,-0.02789 -0.04325,-0.02286 -0.08278,-0.09265 -0.120043,-0.110253 -0.03689,-0.0708 -0.08832,-0.08477 -0.117167,-0.09808 -0.05306,-0.06802 -0.05824,-0.04971 -0.08042,-0.05965 -0.0453,-0.04347 -0.02183,-0.0231 -0.05359,-0.03663 -0.01118,-0.01755 -0.115622,-0.05033 -0.171169,-0.07209 -0.04858,-0.02144 0.06678,-0.02025 0.02664,-0.03521 0.06085,-0.02139 0.128773,-0.01512 0.02777,-0.0485 0.179826,0.0066 -0.288601,-0.120851 -0.463369,-0.171966 -0.06221,-0.0486 -0.131451,-0.06559 -0.18118,-0.07971 -0.08379,-0.05149 0.198426,0.0089 0.149023,-0.0046 0.149378,-0.0038 -0.104989,-0.04898 -0.292223,-0.09487 0.07614,3.43e-4 -0.129593,-0.02077 -0.290628,-0.05909 0.02368,0.01657 0.07893,-0.03918 -0.07058,-0.0761 0.168734,-0.01894 -0.442227,-0.125226 -0.679394,-0.179304 -0.137446,-0.05233 -0.07141,0.0081 -0.169234,-0.0134 -0.03561,0.01695 -0.324209,-0.07119 -0.49485,-0.113298 -0.137877,-0.03179 -0.03514,-0.05781 -0.169472,-0.09498 -0.179827,-0.04976 -0.555084,-0.111595 -0.672979,-0.152745 -0.113997,-0.03979 0.04051,-0.02168 -0.06612,-0.06193 0.07019,-0.01529 -0.459725,-0.22614 -0.635479,-0.301685 -0.145093,-0.105882 -0.160575,-0.07659 -0.222642,-0.104428 -0.112266,-0.05672 0.07975,-0.01304 0.0043,-0.04872 0.07707,-0.01723 -0.256555,-0.131848 -0.40362,-0.208332 -0.03993,-0.03025 -0.202886,-0.240091 -0.294905,-0.290785 -0.06299,-0.167438 -0.14525,-0.117228 -0.194862,-0.14482 -0.09414,-0.08921 -0.104547,-0.127597 -0.153144,-0.154735 -0.06085,-0.10338 -0.105455,-0.059 -0.159257,-0.08874 -0.06098,-0.03397 0.0764,-0.04252 0.01315,-0.07724 0.08709,-0.03634 -0.282317,-0.16525 -0.402237,-0.22739 -0.08358,-0.05759 -0.165262,-0.227997 -0.207529,-0.249581 -0.08994,-0.189096 -0.09722,-0.195688 -0.107615,-0.200863 -0.0874,-0.1906 0.08416,-0.0058 0.07324,-0.01092 -0.019,-0.05399 -0.252499,-0.100159 -0.364709,-0.123431 -0.06153,-0.01795 0.100907,0.05198 0.0511,0.04465 0.114645,0.05802 -0.22544,-0.205282 -0.341739,-0.233687 -0.07645,-0.185756 -0.01882,0.0215 -0.07113,0.0239 0.04048,0.03898 0.162667,0.04317 0.09969,0.03782 0.214119,0.0351 -0.05423,0.03036 -0.185039,-0.0024 -0.06232,-0.01559 -0.338931,-0.116341 -0.353822,-0.130906 -0.04856,-0.0475 0.125952,-0.04944 0.06978,-0.09622 0.121781,-0.04259 -0.34562,-0.305177 -0.47544,-0.391525 -0.139546,-0.143031 -1.3e-4,-0.02158 -0.0194,-0.03407 -0.04155,-0.04796 -0.180525,-0.115048 -0.265497,-0.165365 -0.08665,-0.05307 -0.07984,-0.05066 -0.150501,-0.09031 -0.03781,-0.02405 -0.189574,-0.105621 -0.288669,-0.158593 -0.07628,-0.04159 -0.175202,-0.10264 -0.256524,-0.14526 -0.08773,-0.05572 -0.09019,-0.05476 -0.163994,-0.09326 -0.03976,-0.02832 -0.133235,-0.09395 -0.229592,-0.144921 -0.033,-0.04235 0.04082,-0.05882 -0.05182,-0.109427 0.0922,-0.03357 -0.16628,-0.139142 -0.301993,-0.217415 0.01226,-0.04406 -0.224144,-0.143962 -0.320508,-0.203105 -0.08074,-0.06225 -0.192103,-0.148842 -0.244483,-0.182819 -0.111897,-0.09987 -0.125063,-0.117725 -0.152438,-0.136074 -0.09559,-0.09894 -0.01187,-0.02869 -0.03738,-0.04634 -0.01952,-0.03491 -0.119758,-0.08423 -0.170465,-0.1236 -0.04257,-0.0328 -0.109511,-0.13473 -0.142525,-0.165394 -0.04803,-0.08742 -0.08989,-0.08514 -0.104146,-0.09979 -0.06773,-0.06495 0.180238,0.032 0.171759,0.02222 0.14187,-0.01424 -0.173696,-0.175607 -0.201646,-0.245574 -0.0662,-0.07789 0.02992,-0.0499 0.04378,-0.07528 0.02027,-0.03712 -0.06104,-0.184339 -0.0083,-0.251642 0.05023,-0.0641 0.339366,-0.08772 0.37881,-0.149701 0.26831,0.0019 -0.05792,-0.24284 -0.03821,-0.279705 -0.08814,-0.196979 0.189161,-0.0085 0.202212,-0.03686 0.18802,-0.013 0.05523,-0.120263 0.07199,-0.179854 0.02635,-0.07635 -0.06379,-0.342413 -0.06093,-0.417426 -0.09805,-0.186878 -0.0137,-0.01692 -0.0137,-0.01692 -0.01171,-0.06894 -0.0053,-0.184207 -0.01139,-0.233567 -0.0096,-0.117618 0.0071,-0.06915 -0.0015,-0.10366 -0.0019,-0.07833 -0.09255,-0.18608 -0.133495,-0.259178 -0.06892,-0.07795 -0.13707,-0.153872 -0.172524,-0.19964 -0.100696,-0.08696 0.02397,-0.03718 -0.0013,-0.06491 0.0052,-0.05146 -0.125149,-0.132312 -0.209201,-0.197491 -0.04606,-0.04043 -0.132059,-0.09655 -0.20265,-0.141973 -0.06408,-0.04104 0.09676,-0.02108 0.03126,-0.05849 0.100217,-0.01285 -0.38066,-0.262296 -0.531469,-0.333391 -0.143914,-0.134649 0.0179,-0.0095 -0.0029,-0.019 -0.03229,-0.03191 -0.235314,-0.300706 -0.331789,-0.339172 -0.09516,-0.237771 -0.03878,-0.0074 -0.08465,-0.02149 -0.0517,-0.0053 -0.03856,-0.04234 -0.14795,-0.06437 0.05473,-0.01004 -0.27715,-0.05535 -0.427535,-0.08407 -0.0891,-0.0225 -0.17554,-0.0462 -0.250388,-0.06329 -0.102443,-0.03458 -0.231281,-0.231494 -0.299944,-0.251662 -0.08742,-0.02568 -0.09151,0.138252 -0.168097,0.09367 -0.0656,-0.03819 -0.09679,-0.06458 -0.155633,-0.107667 -0.0368,-0.03525 -0.126122,-0.100508 -0.185757,-0.156153 -0.04751,-0.04726 0.007,-0.08287 -0.03982,-0.136275 0.04714,-0.05325 -0.183708,-0.223254 -0.237921,-0.301076 -0.0835,-0.106398 0.02621,-0.03542 0.0075,-0.06463 0.0201,-0.04854 0.32921,-0.13791 0.289136,-0.212403 0.354917,-0.110174 -0.138646,-0.244985 -0.20293,-0.368432 -0.04247,-0.06638 -0.05058,-0.110048 -0.0802,-0.168093 -0.02405,-0.05983 -0.116088,-0.274313 -0.148722,-0.339679 -0.05992,-0.163969 0.0468,-0.0077 0.0377,-0.02601 0.02449,-0.05265 -0.01885,-0.140964 -0.05942,-0.221722 0.02244,-0.05791 -0.103897,-0.179982 -0.145276,-0.259736 -0.05151,-0.07575 0.0041,-0.0949 -0.0243,-0.149836 0.02159,-0.06154 0.188868,-0.108392 0.147348,-0.185596 0.205003,-0.07488 -0.112007,-0.230972 -0.211513,-0.357979 -0.0038,-0.04757 0.07243,-0.124281 0.01857,-0.188825 0.106571,-0.07938 -0.200031,-0.197565 -0.293535,-0.280123 -0.06973,-0.06057 0.230377,-0.0121 0.20197,-0.03801 0.218294,-0.02495 -0.279766,-0.155897 -0.406299,-0.232392 -0.0601,-0.03633 0.07821,-0.0028 0.06943,-0.03506 -0.01934,-0.07107 -0.10169,-0.285093 -0.11799,-0.357234 -0.06976,-0.165096 -0.01435,-0.04808 -0.01917,-0.0708 -0.01963,-0.07523 -0.100719,-0.233961 -0.113179,-0.306627 -0.07875,-0.130934 0.0017,-0.07606 -0.0045,-0.118044 0.0039,-0.07147 0.252287,-0.09802 0.243571,-0.177124 0.262474,-0.04466 -0.02056,-0.209677 -0.03298,-0.315553 -0.006,-0.07494 -0.136283,-0.282305 -0.145979,-0.359086 -0.121603,-0.157503 -0.03854,-0.09429 -0.04203,-0.122654 -0.03916,-0.100346 0.01874,-0.110253 0.01165,-0.171924 0.02428,-0.06816 0.258941,-0.14397 0.249183,-0.22548 0.265335,-0.08434 -0.09995,-0.288806 -0.125788,-0.393548 -0.07885,-0.124389 0.0099,-0.08822 -0.0031,-0.133977 0.0104,-0.07748 -0.06593,-0.419289 -0.09476,-0.499325 -0.01625,-0.255945 -7.47e-4,-4.44e-4 -7.47e-4,-4.44e-4 -0.02908,-0.07909 0.141347,-0.13382 0.109818,-0.196081 0.141793,-0.101344 -0.149199,-0.207572 -0.258145,-0.310733 -0.03694,-0.041 -0.04767,-0.0647 -0.09615,-0.114112 -0.0029,-0.02685 -0.0139,-0.08497 -0.07197,-0.154249 -0.04921,-0.05871 -0.158632,-0.133296 -0.186019,-0.195753 -0.03914,-0.08927 0.0315,-0.130327 -0.0029,-0.216616 0.06281,-0.06526 -0.08579,-0.221928 -0.123236,-0.329479 -0.02884,-0.08256 0.100273,-0.155285 0.07581,-0.23511 0.126283,-0.08726 -0.115795,-0.287754 -0.140302,-0.379765 -0.07029,-0.138636 0.02364,-0.05644 0.01406,-0.09545 0.02399,-0.06011 -0.121123,-0.259319 -0.137198,-0.339037 -0.08949,-0.129789 0.283924,-0.01691 0.27794,-0.05072 0.279398,-0.04969 -0.03256,-0.199689 -0.0468,-0.295904 -0.0077,-0.06393 -0.01811,-0.127755 -0.02555,-0.190052 -0.0074,-0.06159 -0.02417,-0.171464 -0.02914,-0.231136 -0.01423,-0.09322 0.420133,-0.06178 0.418004,-0.1044 0.421829,-0.07249 0.06612,-0.15399 0.05377,-0.246958 0.0702,-0.0459 -0.0047,-0.16272 -0.0199,-0.24616 0.01125,-0.05039 -0.09745,-0.184743 -0.107485,-0.2411 -0.08002,-0.09222 -0.1016,-0.17689 -0.104586,-0.197289 -0.09488,-0.137943 0.02174,0.0047 0.02138,0.0022 0.01523,-0.04244 -0.01412,-0.103178 -0.01266,-0.14776 -0.0021,-0.05937 -0.0034,-0.121008 0.01284,-0.169703 0.0057,-0.07375 0.03417,-0.132309 0.0787,-0.188186 0.02133,-0.06825 0.09262,-0.142458 0.155667,-0.195446 0.05094,-0.04281 0.02491,-0.168136 0.08182,-0.22568 0.07653,-0.07739 0.156051,-0.150756 0.230908,-0.22456 0.07829,-0.07135 0.23233,-0.136294 0.304827,-0.206492 0.143469,-0.04843 0.09231,-0.132448 0.149781,-0.187844 0.04599,-0.08749 0.05942,-0.211643 0.127797,-0.277468 -0.01312,-0.141827 0.258193,-0.120016 0.324032,-0.183114 0.165972,-0.03136 0.149505,-0.05365 0.191847,-0.09472 0.117353,-0.02329 0.07516,-0.128074 0.126781,-0.179854 0.02533,-0.08094 0.05234,-0.161417 0.106451,-0.21826 -0.0086,-0.101808 0.04366,-0.196643 0.0936,-0.25175 -0.02101,-0.129858 0.50105,-0.08415 0.540383,-0.129185 0.416897,0.0094 0.0635,0.0081 0.0635,0.0081 0.08084,-0.0118 0.101485,-0.01214 0.117278,-0.03161 0.111381,-0.02663 0.252524,-0.07081 0.283802,-0.122567 0.281712,-0.146705 0.10929,-0.390416 0.05512,-0.56301 -0.03426,-0.08777 -0.04654,-0.297256 -0.07575,-0.349794 -0.0063,-0.190485 0.165842,0.05086 0.165842,0.05086 0.105728,-0.05723 -0.135218,-0.179738 -0.26605,-0.265212 -0.0099,-0.0096 -0.139403,-0.09887 -0.185438,-0.12598 -0.07092,-0.05508 -0.03987,-0.06549 -0.05532,-0.07431 -0.04622,-0.06871 -0.06163,-0.0343 -0.09851,-0.05221 -0.04102,-0.02011 -0.183755,-0.154266 -0.239216,-0.1802 -0.112266,-0.121083 -0.07153,-0.03016 -0.09864,-0.03553 -0.05869,-0.01163 0.01639,0.02315 -0.06574,-0.04412 -0.07202,-0.05899 0.108551,-0.08802 0.05253,-0.148723 0.1523,-0.06885 0.249042,-0.198592 0.194438,-0.302051 0.367283,-0.08431 -0.04218,-0.155131 -0.06745,-0.244253 0.02494,-0.02949 0.124212,-0.05162 0.116011,-0.10232 0.140356,-0.0081 -0.05214,-0.144081 -0.05472,-0.201852 -0.03866,-0.06524 0.193305,-0.03245 0.194237,-0.06861 0.196561,-0.01161 -0.06214,-0.152475 -0.05666,-0.20399 -0.06307,-0.0858 0.04319,-0.05542 0.04915,-0.09158 0.04286,-0.03418 0.01706,-0.360703 0.02937,-0.411639 -0.0018,-0.258206 0.11673,0.05219 0.11673,0.05219 0.128517,0.0034 0.282499,-0.08721 0.297068,-0.13456 0.269753,-0.03018 0.214901,-0.01146 0.228114,-0.05028 0.211828,0.0033 0.01012,-0.160191 0.03264,-0.222338 -0.01389,-0.08784 0.04162,-0.109232 0.06268,-0.16233 0.02474,-0.05938 0.04593,-0.123509 0.07104,-0.180213 0.02321,-0.06268 -0.01096,-0.159755 0.01607,-0.213578 -0.03634,-0.09891 0.320999,-0.08562 0.350153,-0.133385 0.283352,-0.0101 0.20198,0.01128 0.217121,-0.01431 0.215801,-0.01323 0.06312,-0.171093 0.09014,-0.240772 0.0033,-0.06815 0.03956,-0.09313 0.05623,-0.1359 0.02013,-0.03981 0.389413,-0.04679 0.407563,-0.08225 0.399858,-0.0498 0.105072,-0.14659 0.0972,-0.197811 0.189863,0.0024 -0.173413,-0.08107 -0.176017,-0.09413 -4.1e-4,-0.0021 -0.02673,-0.019 -0.01968,-0.0202 0.134619,-0.02275 0.279452,-0.03852 0.408097,-0.06173 0.137867,-0.01529 0.360924,-0.01023 0.479896,-0.0332 0.20127,0.01822 0.146203,-0.09566 0.229849,-0.112759 0.09514,-0.0867 0.521053,-0.04208 0.635395,-0.06734 0.300697,0.0036 0.03986,-0.0065 0.05811,-0.01056 0.107292,-0.02167 0.189792,-0.105535 0.287481,-0.129412 0.08345,-0.08271 0.253937,-0.0197 0.346138,-0.04424 0.134959,0.0087 0.05883,-0.152482 0.129642,-0.172892 0.01454,-0.142213 0.289481,-0.02721 0.384264,-0.05749 0.140974,0.01532 0.09722,-0.05081 0.148989,-0.0686 0.06379,-0.04132 0.296841,-0.01492 0.36501,-0.04112 0.175456,0.02714 -0.06354,-0.140759 -0.03927,-0.150579 -0.03292,-0.153912 0.15096,-0.09992 0.221012,-0.132733 0.04531,-0.05822 0.0671,-0.121965 0.112078,-0.145634 0.01341,-0.09811 0.216803,-0.03373 0.256101,-0.05693 0.140355,0.0071 -0.05848,-0.242702 -0.0489,-0.248577 -0.05885,-0.242815 0.05287,-0.02178 0.0708,-0.03331 0.04232,-0.01587 0.143894,-0.03207 0.167959,-0.04905 0.09702,-0.0016 -0.01985,-0.0467 -0.01379,-0.05113 -0.0065,-0.05663 0.179568,0.01426 0.200945,-0.0038 0.132226,0.04973 0.268879,0.03209 0.27091,0.03034 0.493322,-0.161429 0.004,-0.439083 -0.368624,-0.704152 -0.06709,-0.06527 0.252555,0.0024 0.240953,-0.0057 0.183115,-0.04568 0.01075,-0.11273 -0.139577,-0.183716 0.141425,-0.02747 -0.219094,-0.09135 -0.358471,-0.143943 -0.04669,-0.01737 -0.09218,-0.03247 -0.145475,-0.05307 -0.04919,-0.01679 -0.133994,-0.05567 -0.19552,-0.08168 -0.07482,-0.03436 -0.114933,-0.05128 -0.172202,-0.07913 -0.08198,-0.03987 -0.23123,-0.130102 -0.287628,-0.172825 -0.05048,-0.03824 -0.0093,-0.04463 -0.04328,-0.08283 0.03392,-0.02349 -0.07669,-0.108362 -0.09443,-0.163754 -0.0053,-0.03026 -0.0048,-0.0617 -0.0052,-0.09431 0.01051,-0.02688 0.18339,0.0046 0.191177,-0.02586 0.186976,0.03798 -0.06077,-0.14557 -0.04794,-0.173127 -0.06836,-0.110943 0.04479,-0.02707 0.05735,-0.04729 0.04587,-0.02123 0.338736,-0.05993 0.368817,-0.09447 0.29114,0.0095 0.13613,0.01525 0.13613,0.01525 0.155078,-0.0065 -0.01356,-0.118422 0.0077,-0.140146 -0.01426,-0.114173 0.03501,-0.14203 0.08064,-0.180608 0.0065,-0.107884 0.105118,-0.08976 0.166041,-0.132273 0.06051,-0.04732 0.125262,-0.101519 0.198047,-0.144754 0.06453,-0.05568 0.121252,-0.102285 0.200804,-0.143636 0.05593,-0.0605 0.397591,-0.04569 0.487793,-0.08707 0.254774,0.0272 0.05535,-0.02557 0.08309,-0.03823 0.08631,-0.03962 0.19561,-0.06626 0.281736,-0.105057 0.105355,-0.02485 0.103483,-0.218822 0.184875,-0.25576 0.0253,-0.183735 0.174528,-0.07458 0.261901,-0.107745 0.08883,-0.03299 0.15623,-0.07813 0.244045,-0.107329 0.07105,-0.044169 0.378752,-0.029487 0.470007,-0.056216 0.223054,0.020657 0.0058,-0.047878 0.02969,-0.055889 0.0519,-0.065018 0.124643,-0.1558047 0.204457,-0.1867557 0.01959,-0.122506 0.18547,-0.023818 0.279606,-0.031526 0.06528,-0.00534 0.118519,-0.017248 0.180428,-0.045722 0.06161,-0.028335 0.234572,-0.00646 0.303964,-0.031974 0.151098,0.032569 0.08958,-0.031553 0.136085,-0.046748 0.07476,-0.024062 0.149956,-0.3233288 0.23012,-0.3455013 0.05965,-0.2929207 0.175776,-0.023608 0.240222,-0.038866 0.124166,-0.00779 0.12736,-0.1240993 0.203306,-0.1394509 0.07318,-0.1094645 0.248023,-0.010012 0.344925,-0.02597 0.135674,0.013535 0.258985,0.017736 0.336892,0.00648 0.167583,0.033171 0.121097,-0.020697 0.184037,-0.029174 0.092,-0.015908 0.243126,-0.00428 0.33918,-0.01632 0.128392,0.011285 0.143343,-0.02772 0.22063,-0.037371 0.08316,-0.020241 0.156861,-0.072603 0.25043,-0.084769 0.06408,-0.061469 0.378918,-0.024311 0.473847,-0.037387 0.20676,-0.002 0.0075,-0.072463 0.03158,-0.075898 0.0511,-0.078878 0.207444,-0.01307 0.291924,-0.026458 0.09312,0.00259 0.21468,0.00896 0.275688,-0.00247 0.125986,0.022541 0.08803,-0.013337 0.126732,-0.022061 0.06692,-0.011029 0.488224,-0.015429 0.540427,-0.031845 0.36945,0.013522 0.412733,0.035101 0.412733,0.035101 0.74196,-0.06843 0.08098,-0.2755068 -0.237596,-0.566572 0.01091,9.056e-4 -0.03047,-0.026911 -0.04282,-0.038245 -0.01926,-0.016713 0.161057,0.020286 0.148044,0.00817 0.135939,-0.00337 -0.145799,-0.1072065 -0.241107,-0.1703938 -0.03526,-0.02365 -0.07214,-0.048388 -0.106093,-0.073006 -0.05892,-0.042715 -0.08783,-0.074323 -0.115324,-0.112321 -0.05273,-0.072865 0.238612,-0.084146 0.200858,-0.1493971 0.267867,-0.060731 0.247196,-0.1703925 0.221223,-0.2660679 0.345359,-0.0063 -0.03352,-0.127891 -0.03585,-0.180487 -0.0088,-0.031602 -0.03613,-0.1545759 -0.03489,-0.174372 -0.03521,-0.1155073 -0.006,-0.055191 -0.0058,-0.057575 -0.0055,-0.060215 0.02463,-0.00911 0.02592,-0.018593 0.02524,-0.00715 0.04625,-0.015253 0.05041,-0.031631 0.04506,0.00161 -0.06166,-0.101019 -0.05523,-0.1173492 -0.06601,-0.080663 -0.03665,-0.219912 -0.0296,-0.2331214 -0.04854,-0.1920685 0.04856,0.02547 0.04856,0.02547 0.06879,-0.01244 0.177208,-0.0203 0.208979,-0.049859 0.161274,0.022743 0.0726,-0.049452 0.112187,-0.071128 0.07133,-0.031482 0.119928,-0.078098 0.205694,-0.097825 0.06401,-0.035376 0.330079,0.026373 0.432521,0.019743 0.188196,0.05579 0.147769,0.020663 0.186271,0.019506 0.137551,0.022864 0.110625,-0.2257623 0.178328,-0.2248899 0.08509,-0.2220564 0.20003,-0.00336 0.312245,0.00915 0.0859,-0.00134 0.180486,-0.02003 0.285396,-0.00223 0.08103,-0.028738 0.111064,-0.057158 0.21877,-0.034016 0.02929,-0.068366 0.179256,-0.030134 0.31653,0.00639 0.03731,-0.059653 0.305622,0.1003484 0.434367,0.1399012 0.124595,0.050525 0.110439,-0.013291 0.174052,0.00592 0.07652,-0.024204 0.325806,0.1076978 0.419369,0.1370415 0.171726,0.059925 0.03145,-0.00231 0.06314,0.00724 0.05896,0.0053 0.172558,0.036436 0.256755,0.056663 0.06763,7.5e-4 0.220497,0.070142 0.299215,0.082426 0.07085,0.011057 0.178151,0.031426 0.250666,0.026347 0.07364,-0.00516 0.245369,0.033678 0.318541,0.027578 0.140287,0.040997 0.185246,0.030728 0.226915,0.026885 0.142227,0.034145 0.03628,-0.050106 0.07662,-0.054226 0.0416,-0.051248 0.103818,-0.081144 0.189036,-0.091176 0.02372,-0.073677 0.161537,-0.2095237 0.253144,-0.2209472 0.04977,-0.1964998 0.215778,-0.00668 0.288087,-0.014716 0.120139,0.00541 0.323032,0.040396 0.372004,0.035327 0.224596,0.051141 0.110038,0.042297 0.110038,0.042297 0.146178,0.038557 0.04899,-0.022389 0.08426,-0.026113 0.0574,-0.02339 0.124907,-0.060921 0.201413,-0.069084 0.04916,-0.052932 0.325046,0.041594 0.404774,0.033884 0.181479,0.056723 0.02583,-0.018852 0.04557,-0.020802 0.06368,-0.022651 0.456519,0.033959 0.530004,0.026571 0.30331,0.049219 0.0092,0.00503 0.0092,0.00503 0.05329,5.905e-4 0.0676,-0.091463 0.107766,-0.096239 0.06199,-0.091966 0.381055,0.049665 0.450666,0.042412 0.226922,0.067566 0.01575,0.00871 0.01575,0.00871 0.09633,3.152e-4 0.286027,0.036167 0.344206,0.025448 0.181246,0.04707 0.116486,0.0049 0.146052,-0.00582 0.104328,-3.533e-4 0.325106,0.00448 0.388313,-0.023488 0.26636,0.040564 0.360752,-0.036532 0.375907,-0.063684 0.01275,-0.022838 -0.238185,-0.036071 -0.132084,-0.036071 -0.05644,0.036073 -0.204366,-0.1042308 -0.262491,-0.068046 -0.154665,-0.1365481 -0.146418,0.066275 -0.210971,0.1090425 -0.07575,0.023155 -0.119833,0.07186 -0.177705,0.1122205 -0.06359,0.035531 -0.222582,-0.026284 -0.282011,0.016912 -0.162276,-0.067646 -0.03656,0.1056232 -0.09281,0.1516628 0.0096,0.075409 -0.182571,0.034471 -0.25297,0.094168 -0.107228,-0.026808 -0.13687,0.095528 -0.199463,0.1540006 -0.06666,0.037279 -0.216641,-0.076762 -0.271897,-0.022107 -0.183637,-0.105535 -0.202059,0.1242858 -0.268728,0.2233611 -0.100554,0.021056 0.09951,0.1961033 0.06051,0.2698975 0.150317,0.1208104 -0.06186,0.1390304 -0.12539,0.1930329 -0.03408,0.066195 -0.154027,0.08558 -0.228853,0.1242555 -0.07861,0.040632 -0.162669,0.063761 -0.219348,0.09755 -0.05958,0.035518 -0.01869,0.1134584 -0.07861,0.1494824 0.02263,0.08906 -0.175111,-0.085452 -0.255296,-0.038402 -0.09968,-0.1313292 -0.261972,-0.00339 -0.345309,0.04834 -0.151556,-0.067905 -0.127829,-0.00737 -0.181318,0.028504 -0.08998,-0.028821 0.225462,0.1257865 0.156658,0.1774712 0.244312,0.1196919 -0.158024,0.2256853 -0.301593,0.3238101 0.02256,0.0907 -0.106657,0.1223313 -0.187985,0.1728576 -0.02385,0.06427 -0.170069,0.011855 -0.244893,0.054226 -0.09424,-0.036557 0.0391,0.1371047 -0.02931,0.1767019 0.07693,0.1164372 -0.07389,0.1224789 -0.185352,0.175092 0.03224,0.058403 -0.210333,-0.015753 -0.324535,0.027071 -0.07885,-0.077333 -0.189066,-0.1724514 -0.266904,-0.1347004 -0.133049,-0.1876136 -0.229718,0.1119534 -0.31327,0.2128438 -0.08814,0.029669 0.02269,0.183657 -0.01365,0.2473706 -0.04284,0.075102 -0.02221,0.1458488 -0.06352,0.1716287 -0.04909,0.030637 -0.196036,-0.01225 -0.255966,0.018343 -0.137966,-0.050061 -0.04024,0.067054 -0.09144,0.090706 -0.02447,0.056506 -0.165758,-0.2188224 -0.255582,-0.1820492 -0.108537,-0.2482206 -0.268806,-0.1150942 -0.387011,-0.067368 -0.143303,-0.166412 -0.261089,0.023443 -0.360183,0.065784 -0.146273,-0.022222 -0.17844,0.042255 -0.256641,0.077709 -0.112525,0.015399 -0.136889,0.091662 -0.225882,0.1350375 -0.06018,0.058831 -0.240197,0.075792 -0.340588,0.1283438 -0.121562,0.019247 -0.144896,0.1001321 -0.226616,0.1462097 -0.069,0.062465 -0.06165,0.1151859 -0.14902,0.1684401 0.01095,0.077288 -0.297199,-0.067595 -0.400595,-2.667e-4 -0.181159,-0.1359418 -0.19268,0.1362659 -0.280234,0.2093659 -0.069,0.06013 -0.191505,-0.02765 -0.252567,0.03422 -0.145935,-0.05504 -0.181041,0.18811 -0.241057,0.295922 -0.04977,0.05591 -0.154606,0.0605 -0.178068,0.126688 -0.119634,0.01636 -0.05357,0.169986 -0.04805,0.262647 -0.01127,0.0302 -0.04591,0.05036 -0.03642,0.09304 -0.0446,0.01028 0.139517,0.105164 0.165987,0.154318 0.118009,0.02791 -0.07348,-0.129553 -0.07567,-0.109207 -0.0045,0.04204 0.06453,0.253479 0.07961,0.276465 0.03765,0.05738 0.429366,0.1402 0.452134,0.199775 0.369785,0.04516 -0.04665,-0.02346 -0.04074,-0.0023 -0.02422,0.06839 0.246228,0.312547 0.210292,0.451963 0.184363,0.145783 0.07244,0.249113 0.0042,0.35287 0.0884,0.130422 -0.15266,0.170392 -0.244915,0.257942 -0.06741,0.03827 0.09772,0.154765 0.03471,0.204079 0.107683,0.133569 -0.04212,0.175024 -0.172701,0.246055 0.0642,0.08116 -0.251365,0.11007 -0.390627,0.163812 -0.07572,0.01552 0.133171,0.06219 0.05811,0.08726 0.125423,0.05933 -0.277979,0.11619 -0.460857,0.155801 -0.04258,0.03954 -0.195956,0.03035 -0.291496,0.04637 -0.08639,0.0055 -0.197171,-0.07201 -0.273003,-0.06132 -0.1151,-0.08653 -0.250531,-0.163083 -0.317165,-0.151421 -0.183,-0.17164 -0.16365,0.0067 -0.223875,0.02928 -0.117888,0.0089 -0.261392,-0.0049 -0.330062,0.03929 -0.175708,-0.03112 -0.239511,0.0042 -0.279848,0.06224 -0.03455,0.04973 0.01593,0.08513 -0.04125,0.08385 -0.142362,-0.0032 -0.294857,-0.01414 -0.413152,-0.0051 -0.13335,-0.0057 0.02521,0.06344 -0.06625,0.08165 0.06124,0.0763 -0.337051,0.06542 -0.457142,0.13017 -0.08079,0.01322 -0.156041,0.03672 -0.206587,0.07788 -0.08523,0.0045 -0.09207,-0.130801 -0.130506,-0.08505 -0.07596,-0.123166 0.253606,0.203449 0.208306,0.318539 0.351686,0.09739 -0.05202,0.189541 -0.08568,0.288729 -0.0033,0.06382 -0.06264,0.105323 -0.08332,0.166538 -0.04383,0.04928 -0.167482,-0.0061 -0.189981,0.05879 -0.154116,-0.04797 -0.04515,0.182087 -0.07476,0.272753 -0.007,0.06995 -0.08547,0.01299 -0.107422,0.07645 -0.0751,-0.02327 -0.08843,0.163556 -0.122737,0.257422 -0.04922,0.04525 -0.01747,0.141767 -0.04324,0.206867 0.0063,0.07289 0.246011,0.151212 0.217468,0.210626 0.245903,0.134511 0.01282,0.259977 -0.09524,0.349117 0.07319,0.120709 -0.26289,0.03329 -0.378069,0.07877 -0.127769,-0.06512 -0.131267,-0.16296 -0.175879,-0.140657 -0.133012,-0.155225 -0.242761,0.0014 -0.315737,0.102759 -0.05591,0.07767 -0.03487,0.311967 -0.0933,0.331381 -0.112375,0.03734 -0.08434,0.121064 -0.188143,0.160321 -0.003,0.09799 -0.245681,0.11747 -0.370914,0.172885 -0.0736,0.05468 0.02185,0.153795 -0.06884,0.199238 0.08304,0.131813 -0.269398,0.127474 -0.387782,0.196223 -0.08335,0.03536 -0.138658,0.08558 -0.20541,0.128478 -0.06409,0.0444 -0.07124,0.108256 -0.132818,0.152415 -0.0085,0.07084 0.01718,0.13953 -0.04528,0.18995 0.07631,0.101211 -0.184688,0.09868 -0.253424,0.160401 -0.07954,0.01494 -0.06089,0.08328 -0.100578,0.122716 -0.01962,0.04856 -0.0042,0.11339 -0.04341,0.157322 0.03755,0.07505 -0.177646,0.02161 -0.216981,0.07044 -0.123676,-0.03707 -0.05198,0.08142 -0.07836,0.121568 -0.0189,0.04414 -0.135784,0.0073 -0.157726,0.04932 -0.111546,-0.02331 0.04521,0.131399 0.02912,0.18761 0.07926,0.07499 -0.124583,-0.08725 -0.134828,-0.03632 -0.116445,-0.09546 0.163376,0.266195 0.175898,0.387932 0.186623,0.102136 0.328365,0.147971 0.326732,0.187773 0.318379,0.192356 -0.238029,0.12195 -0.330472,0.210831 -0.08327,-0.07949 0.0799,0.07713 0.07878,0.104829 -0.0025,0.06053 0.125994,0.130402 0.14425,0.166232 0.06409,0.125787 0.184916,0.265053 0.233514,0.379482 0.107626,0.120302 0.141084,0.216061 0.172436,0.308637 0.09309,0.112378 0.327253,0.230761 0.347717,0.316493 0.285558,0.114381 -0.01332,0.09463 -0.0046,0.156988 -0.02345,0.09245 0.05033,0.26498 0.04041,0.375862 0.01988,0.117175 -0.05561,0.0011 -0.08557,0.08859 -0.07459,-0.05351 -0.188716,0.221811 -0.279843,0.339323 -0.10518,0.0011 -0.08296,0.06967 -0.125967,0.11545 -0.04924,0.02129 -0.09361,0.07245 -0.14298,0.117474 -0.04881,0.02162 -0.207556,-0.01813 -0.258176,0.02308 -0.153292,-0.06903 -0.10025,0.05889 -0.143002,0.0931 -0.06312,0.02834 -0.05331,0.08188 -0.101,0.119849 -0.01489,0.05103 -0.183809,0.02675 -0.241386,0.07155 -0.118404,-0.02557 0.01538,0.08791 -0.03174,0.126895 0.04436,0.06742 -0.148288,-0.07527 -0.218807,-0.0189 -0.0922,-0.122617 -0.202493,0.09921 -0.282156,0.182445 -0.08727,0.0059 -0.06385,0.103456 -0.106893,0.15848 -0.01016,0.05001 -0.164473,-0.116562 -0.203027,-0.06621 -0.148157,-0.136806 -0.141598,0.187032 -0.175142,0.313566 -0.05831,0.02182 -0.07643,-0.0076 -0.08137,0.04513 -0.005,0.05294 0.0951,0.237198 0.07424,0.257275 -0.04525,0.04355 -0.109969,-0.02267 -0.15922,0.02216 -0.08045,-0.05292 -0.213297,0.04984 -0.281476,0.109787 -0.131773,-0.02447 -0.150013,0.02079 -0.1993,0.06403 -0.108947,-0.01528 -0.04522,0.129937 -0.101566,0.180155 0.0034,0.08788 -0.05358,0.11406 -0.116852,0.171687 0.0034,0.06419 -0.0319,0.17112 -0.100611,0.235755 0.03972,0.107124 0.257994,0.148459 0.192341,0.212284 0.27547,0.134919 -0.151862,0.253051 -0.266454,0.367599 0.02087,0.08737 -0.112943,0.125331 -0.171759,0.186069 -0.04182,0.05526 -0.200429,-0.0807 -0.247781,-0.02948 -0.162755,-0.117567 -0.02579,0.147231 -0.0798,0.214799 0.04374,0.07607 -0.07163,0.131859 -0.114713,0.194061 -0.01117,0.05915 0.08726,0.145104 0.05693,0.195729 0.120505,0.101679 0.105374,0.138276 0.07593,0.19526 0.140991,0.08378 0.211139,0.181672 0.184494,0.240735 0.241994,0.127659 0.157761,0.178746 0.130136,0.24151 0.187566,0.116366 -0.173547,-0.05005 -0.202452,0.01262 -0.132471,-0.13887 -0.04895,0.0729 -0.06254,0.118325 -0.01914,0.0099 -0.004,0.05413 -0.0089,0.07928 0.0051,0.02789 -0.132123,-0.09131 -0.134444,-0.06778 -0.128487,-0.09325 0.165457,0.131508 0.174448,0.181454 0.172101,0.06375 0.188858,0.09656 0.194695,0.121637 0.187492,0.08187 0.01588,0.06968 0.0231,0.103778 0.0114,0.05103 -0.009,-0.0152 0.0059,0.03344 -0.008,-0.04159 0.05887,0.156016 0.118182,0.244691 0.04644,0.06316 0.04188,0.06435 0.121222,0.129182 0.08474,0.06925 0.226385,0.160057 0.359473,0.205092 z"
         sodipodi:nodetypes="sssssssscssssssssssssssscssssssss"
         inkscape:path-effect="#path-effect4102"
         inkscape:original-d="m 21.960779,26.847458 c 2.428161,0.821658 3.649283,3.721092 0.238954,3.908034 -1.356939,0.07438 1.877908,2.989528 0.741107,3.232365 -4.59475,0.981503 0.194765,2.445553 1.279631,2.706636 4.45015,1.07097 2.716138,1.944625 1.85452,2.330848 -1.700249,0.762141 -1.97739,2.797963 2.46578,2.104999 2.68803,-0.41923 4.649742,0.784384 3.113407,2.029092 -1.191504,0.965331 -0.234747,1.5749 3.797403,2.103125 7.329135,0.960142 3.05682,1.517145 4.517767,2.327097 -1.635831,0 -3.262567,-0.145096 -4.856919,-0.421407 -1.594353,-0.276305 -3.169063,-0.656618 -4.662625,-1.208617 -1.363688,-0.504 -0.827791,-0.690497 -4.328617,-1.912416 -2.393952,-0.83558 -3.082635,-1.777458 -3.854895,-2.532809 -1.068367,-1.044974 -4.138706,-1.924795 -3.241458,-3.069787 1.155302,-1.474301 -0.69064,-2.476786 -2.488306,-3.523361 -1.312075,-0.763871 -1.227962,-2.543257 -1.595441,-3.893523 -0.367478,-1.350267 0.02334,-2.843428 -0.56286,-4.180276 -0.822043,-1.874688 -0.546877,-3.058188 0.56286,-4.180277 1.760305,-1.779893 3.044649,-2.706496 1.595441,-3.893522 -1.728575,-1.415852 1.408607,-3.34088 2.488307,-3.523361 3.903963,-0.659808 5.24354,-1.553182 3.241457,-3.069788 -1.211405,-0.917657 2.425619,-1.875418 3.854895,-2.5328067 1.478519,-0.6800384 5.355357,-0.4935109 4.328617,-1.9124167 -1.423601,-1.9673477 2.779596,-1.0767108 4.662625,-1.2086168 1.620118,-0.113489 3.221088,-0.4214075 4.856919,-0.4214075 -0.733717,0.4689541 -1.565389,0.9657728 -2.459062,1.4985368 -0.893672,0.532764 -1.849347,1.1014721 -2.831072,1.7142081 -0.981722,0.612735 -4.111795,1.2694958 -3.646715,1.9783638 0.640021,0.975507 -0.939526,2.320777 -2.268586,2.291002 -2.704885,-0.06059 -0.885396,2.064844 -2.652795,2.652127 -2.247517,0.74682 -2.760105,1.887728 -2.161931,3.061733 1.345905,2.641537 -0.63477,2.730013 -1.455354,3.519824 -1.221609,1.175798 -4.001453,2.85274 -0.533054,4.026401 z" />
      <path
         style="fill:#9effff;fill-opacity:1;stroke:none;stroke-width:1.05833;stroke-linecap:round;stroke-dasharray:none;stroke-opacity:0.527559"
         d="m 20.123483,36.716085 c 0,0 -3.449823,-7.222076 -2.964215,-11.061586 0.514597,-4.068722 4.699367,-9.904821 4.699367,-9.904821 0,0 -2.52253,6.175334 -3.036515,10.049417 -0.493065,3.716408 1.301363,10.91699 1.301363,10.91699 z"
         id="path4219"
         sodipodi:nodetypes="cscsc" />
    </g>
  </g>
</svg>
