<?xml version="1.0" encoding="UTF-8" standalone="no"?>
<!-- Created with Inkscape (http://www.inkscape.org/) -->

<svg
   width="1960"
   height="200"
   viewBox="0 0 518.58332 52.916665"
   version="1.1"
   id="svg5"
   inkscape:version="1.2.1 (9c6d41e410, 2022-07-14)"
   sodipodi:docname="Grass.svg"
   inkscape:export-filename="Grass.png"
   inkscape:export-xdpi="96"
   inkscape:export-ydpi="96"
   xmlns:inkscape="http://www.inkscape.org/namespaces/inkscape"
   xmlns:sodipodi="http://sodipodi.sourceforge.net/DTD/sodipodi-0.dtd"
   xmlns="http://www.w3.org/2000/svg"
   xmlns:svg="http://www.w3.org/2000/svg">
  <sodipodi:namedview
     id="namedview7"
     pagecolor="#ffffff"
     bordercolor="#000000"
     borderopacity="0.25"
     inkscape:showpageshadow="2"
     inkscape:pageopacity="0.0"
     inkscape:pagecheckerboard="0"
     inkscape:deskcolor="#d1d1d1"
     inkscape:document-units="mm"
     showgrid="false"
     inkscape:zoom="0.70710678"
     inkscape:cx="1484.2171"
     inkscape:cy="301.22749"
     inkscape:window-width="2560"
     inkscape:window-height="1368"
     inkscape:window-x="-2"
     inkscape:window-y="-8"
     inkscape:window-maximized="1"
     inkscape:current-layer="layer1" />
  <defs
     id="defs2">
    <inkscape:path-effect
       effect="roughen"
       id="path-effect2508"
       is_visible="true"
       lpeversion="1.2"
       method="size"
       max_segment_size="4"
       segments="1"
       displace_x="0.4;1"
       displace_y="0.8;1"
       global_randomize="1.6;1"
       handles="along"
       shift_nodes="true"
       fixed_displacement="false"
       spray_tool_friendly="false" />
  </defs>
  <g
     inkscape:label="Layer 1"
     inkscape:groupmode="layer"
     id="layer1">
    <path
       style="fill:#7fc48b;fill-opacity:1;stroke:#206704;stroke-width:1.11522;stroke-dasharray:none;stroke-opacity:1"
       d="m 526.58743,13.610741 -3.63632,-0.462754 -2.96244,0.199989 -3.90478,-0.241298 -3.4477,-0.09279 -3.38229,0.143707 -3.33616,0.28046 -3.65772,-0.321361 c -1.14574,0.520296 -2.29353,0.952523 -3.69879,1.071471 -1.27225,0.273434 -3.00771,0.06246 -4.4988,-0.09882 -1.41812,-0.151543 -2.68656,-0.284616 -3.87886,-0.53962 -1.12047,-0.149666 -2.27136,-0.555003 -3.0163,-0.788344 -0.70286,-0.220158 -1.11814,-0.383705 -1.11814,-0.383705 -0.47234,0.58067 -1.46758,0.274772 -2.5562,0.596313 -1.21283,-0.432893 -2.48317,0.114155 -3.84127,0.270131 -1.45232,-0.293271 -2.56089,0.287913 -3.8663,0.324762 -1.20505,0.05649 -2.69041,0.0048 -3.75722,-0.186563 -1.03734,-0.186066 -1.82673,-0.501019 -2.18755,-0.987631 -1.08244,0.733178 -2.21774,0.857041 -3.42852,0.587849 -1.21077,-0.269193 -1.95123,-0.873041 -3.20925,-1.544504 -0.38489,0.67821 -1.23469,0.4171 -2.23961,0.873847 -1.08804,-0.403301 -2.21163,1.042203 -3.48809,1.335089 -1.23441,0.28324 -2.53424,0.332318 -3.69634,-0.115511 l -2.9208,0.258203 -3.58049,-0.171078 -3.23502,-0.09347 -3.28308,-0.19581 -3.27174,-0.01988 c -1.00396,0.226442 -2.02294,0.04227 -3.01774,0.297183 -1.04148,-0.189528 -2.06593,0.453724 -3.10158,0.684028 -1.02804,0.136109 -2.00881,0.379834 -3.04761,0.46601 -1.07104,0.06175 -2.21627,-0.552351 -3.36109,-0.732948 -1.16219,-0.183336 -1.96308,0.308524 -3.25957,-0.306617 -1.4583,0.944813 -2.73133,1.725775 -4.00237,2.132129 -1.21584,0.553406 -2.3604,0.79808 -3.51192,0.777844 -1.02691,0.202702 -1.97638,-0.186213 -3.06551,-0.539795 -0.71313,-0.268478 -2.27049,-1.214719 -3.33275,-1.699797 -0.9772,-0.446242 -1.68196,-0.383085 -2.52621,-0.773857 -1.69717,0.411891 -3.40877,-0.180584 -4.90579,0.04615 -1.60143,-0.68147 -2.84045,0.489111 -4.08972,0.630607 -1.20437,0.208478 -2.11049,0.236522 -3.08276,0.241984 -0.77898,0.02099 -2.04499,-0.289529 -2.79515,-0.473132 -0.69052,-0.169005 -0.97163,0.02122 -1.28374,-0.330883 -0.26852,0.194403 -0.98821,0.322096 -1.91246,0.599374 -0.97965,0.132794 -2.1169,0.517227 -3.43519,0.752843 -1.34866,0.187894 -2.9329,-0.353234 -4.42271,-0.29361 -1.6107,-0.71756 -3.0196,-0.150793 -4.38767,-0.221293 -1.42603,-0.07349 -2.77682,-0.664543 -3.91654,-1.444801 -3.28767,0.438519 -5.01786,0.153631 -5.93426,0.223953 -1.00889,-0.408564 -1.08937,-0.795454 -1.30818,-0.744709 -0.19697,0.04568 -0.47389,0.581138 -1.5811,0.595067 -1.74206,0.623504 -3.29746,1.073396 -4.73483,1.351816 -1.42892,0.301991 -2.2468,0.614137 -3.46963,0.640704 -0.87283,0.236118 -2.47963,-0.0096 -3.7549,-0.193554 -0.91539,-0.08498 -2.29842,-1.511625 -3.42926,-1.736506 -1.10286,-1.334888 -2.10275,-0.186152 -3.15993,-0.07275 -1.09294,0.117238 -2.0748,0.50798 -3.2234,0.490146 -1.22689,0.128198 -2.49596,0.227634 -3.74054,0.353493 -1.25785,0.08632 -2.21164,0.395871 -3.40553,0.47698 -1.00798,0.241398 -2.52237,0.118932 -3.7098,0.07421 -1.08239,-0.03653 -1.83813,-0.01696 -2.76232,-0.193009 -0.9297,-0.177106 -2.04228,-0.583336 -2.7126,-0.918612 -1.24226,0.153241 -2.56488,0.0728 -3.80266,0.247005 -1.31673,-0.132447 -2.28084,0.512218 -3.51747,0.544957 -1.26489,0.03349 -2.6655,-0.167933 -4.03359,-0.683778 -0.89351,0.848205 -1.64965,1.350028 -2.45713,1.302408 -0.80748,-0.04762 -1.51014,-0.414896 -2.22744,-1.152584 -1.19346,0.508848 -2.01943,1.039123 -3.14957,1.203349 -0.89835,0.401308 -2.56102,-0.441783 -3.77471,-0.55203 -1.14194,-0.706707 -2.01194,-0.138918 -3.01647,-0.245597 -1.04516,-0.05369 -2.2448,-0.562892 -3.31773,-0.679052 -1.06809,-0.115636 -1.69317,0.206499 -2.75135,0.149502 l -2.96888,0.253516 -3.6595,-0.490635 -3.34433,-0.04773 -3.07451,0.126472 -3.53392,-0.03563 -3.21327,-0.668739 -3.24914,0.464848 -3.07246,0.535834 -3.31636,0.07055 -3.20714,0.396348 c -0.9639,-0.210274 -1.63643,0.04915 -2.66485,0.0086 -0.74156,0.238274 -2.33438,-0.354194 -3.46275,-0.762394 -0.99452,-0.359777 -1.95263,-0.910725 -2.72146,-1.793942 -0.57554,1.242992 -1.35056,1.846102 -2.22105,2.13907 -0.8735,0.284336 -1.82146,0.271058 -2.79175,0.241868 -0.97157,-0.02923 -1.85295,-0.03185 -2.7331,0.238442 l -4.11208,-0.779599 -3.86563,-0.341069 -3.62903,0.422495 -4.35133,-0.90069 c -0.97537,0.09941 -1.86481,0.212744 -2.72414,0.496471 -0.87413,0.165093 -1.71294,0.627772 -2.60079,0.936262 -0.87249,0.299455 -1.42875,0.861145 -2.45147,1.007256 -0.72135,0.443898 -2.42444,-0.03727 -3.91354,-0.333975 -1.36101,-0.271183 -2.56966,-0.329097 -4.23571,-1.009608 -1.31097,0.749418 -2.57992,1.121484 -3.75646,1.361454 -1.19948,0.158065 -2.32185,-0.717366 -3.39182,-0.802481 -1.09902,-1.073408 -2.17587,-0.551424 -3.16651,-0.650295 -1.1615,-0.475544 -1.63016,-0.02885 -2.6307,-0.03353 -1.01161,-0.0047 -2.18447,0.104029 -3.27372,0.03772 -1.00157,0.551624 -1.97214,1.053541 -3.02592,1.338995 -1.00889,0.381611 -2.04943,0.536493 -3.16545,0.579191 -1.0099,0.134393 -2.2203,0.07356 -3.39538,-0.105727 -1.06951,-0.06007 -2.28727,-0.43941 -3.45154,-0.795278 -1.14637,-0.350396 -1.98215,-0.63107 -3.09398,-1.052669 -0.97078,0.514985 -1.9162,1.025078 -3.29868,1.230679 -1.15469,0.388615 -2.74465,0.284696 -4.34542,0.236196 -1.23505,-0.03697 -2.69542,-0.06607 -4.0922,-0.26554 -0.90373,-0.06492 -2.59678,-0.290579 -3.50389,-0.565115 -0.74688,-0.226046 -1.25404,-0.520447 -1.21117,-0.676025 l -3.28229,-0.07836 -3.26734,-0.208184 -3.07381,0.2762 -3.36071,0.0112 -3.39406,-0.67093 c -0.80285,0.315345 -1.7266,0.534784 -2.66284,0.712456 -0.9456,0.118051 -1.89292,0.252881 -2.78939,0.18093 -0.90211,-0.0724 -1.81441,-0.62272 -2.51675,-1.105834 -0.56786,0.75312 -1.30803,1.1963 -2.16044,1.416772 -0.85242,0.220471 -1.77582,0.279464 -2.79262,0.14175 -1.01681,-0.137715 -2.18371,-0.599754 -3.24475,-0.921191 l -3.1206,0.189078 -3.22522,0.167996 -3.14593,0.181979 -3.44423,-0.218542 -2.75314,-0.07791 c -1.05641,-0.0432 -2.11531,0.0448 -3.26228,0.03372 -1.08918,0.09462 -2.40081,-0.154427 -3.55799,-0.197846 -1.13252,-0.04249 -2.19471,-0.01174 -3.1838,-0.06979 -0.76032,-0.04462 -1.56554,0.237898 -2.24382,0.153021 -0.67828,-0.08488 -1.18511,-0.456758 -1.45031,-2.00752 -0.897291,1.129388 -1.784853,1.238423 -2.624138,0.861812 -0.839286,-0.376611 -1.647054,-1.391212 -2.418041,-2.4083128 -0.213838,1.7572018 -0.748743,2.2982538 -1.425333,2.8081328 -0.745116,0.07052 -1.515672,0.673 -2.565581,0.682769 -1.073904,0.01 -2.377742,-0.183378 -3.833868,-0.262292 -1.746841,-0.09467 -3.275951,-0.393422 -4.365998,-0.797548 -1.090047,-0.404127 -1.774782,-0.986127 -1.973966,-2.5383067 -0.849741,1.3092127 -1.433705,2.3060417 -2.434452,2.9054547 -0.731526,0.753353 -2.288835,0.79813 -3.527358,0.899427 -1.113213,-0.05885 -2.042411,0.302867 -3.185931,0.218792 -1.002191,0.172669 -2.557421,-0.788126 -3.778991,-0.91059 -1.171009,-0.117395 -1.797388,0.620777 -2.844114,0.797441 l -3.306236,-0.04516 -3.336738,-0.06116 -3.295621,-0.04912 -3.349373,-0.07388 -3.258513,0.05251 C 47.64324,13.31245 46.533596,13.164046 45.509781,12.900964 44.492267,12.655231 43.536964,11.09422 42.882845,10.409017 42.233349,9.7286552 41.875389,9.917507 41.958342,8.3938984 40.950249,9.4962215 40.36359,10.084645 39.856504,10.718573 39.349419,11.352502 38.979114,12.129924 37.885567,12.245518 36.79202,12.361113 35.72026,11.651 34.681707,10.624505 33.643154,9.5980112 32.59931,8.1718161 32.372962,7.8003266 c -0.06474,0.8516982 -0.409435,1.3758004 -0.941647,2.0307283 -0.575466,0.4401921 -1.344608,0.8646841 -2.313891,1.3570671 -0.98088,0.09676 -2.161018,0.718717 -3.461573,1.082632 -1.353785,0.15521 -2.486747,0.78654 -4.040547,1.018015 -1.591774,0.237133 -3.507007,0.291987 -5.382095,0.228046 l -3.400007,0.153808 -3.2055818,0.161447 -3.978012,-0.321805 -3.4223211,-0.03856 -3.4011435,0.0533 -3.4337901,0.08177 0.4355406,4.006153 0.2561922,4.133416 0.07057,3.870581 0.1872072,4.035127 -0.1935916,3.466879 0.1683148,4.224257 -0.2514588,3.339499 -0.2159744,4.233446 -0.031422,4.181552 0.1892628,3.992054 -0.2147241,3.811428 -0.1476621,4.095303 -0.3173039,2.985556 -0.093173,4.802726 4.07598445,0.140169 3.99031655,0.127683 3.8381522,-0.209962 4.1186699,0.07343 3.943003,-0.01584 4.129961,0.167959 4.093614,0.0067 3.668415,-0.428215 4.13303,0.05463 4.089476,0.203495 3.967451,0.02942 4.1456,0.274194 3.71353,-0.159962 4.003321,-0.331528 4.000982,-0.547221 3.982834,-0.03761 4.144306,0.112229 3.929631,0.07806 3.914823,-0.792626 4.099834,0.107096 3.905069,-0.0078 3.86849,-0.571626 4.099222,-0.334606 4.033396,0.03487 3.970553,-0.01425 3.944436,-0.134359 4.073329,0.03287 4.00801,0.03704 3.99361,0.03031 4.01466,0.05154 4.1679,0.28651 3.76415,-0.323834 3.99454,-0.0074 4.04085,0.0701 3.87573,-0.199637 4.07841,0.01502 4.02896,0.07229 3.9051,-0.26022 4.08971,0.06274 3.96188,0.02667 3.92992,-0.148624 4.05562,0.01778 4.03798,0.09933 3.951,0.01814 4.09728,0.04464 4.25981,0.08644 3.91062,0.111051 3.96004,0.299694 3.77122,0.06161 3.95192,-0.337931 4.37969,0.271519 3.56877,-0.753105 4.24385,0.27378 4.20359,0.06138 3.6543,0.112808 4.04768,0.06061 3.88667,0.03221 3.98252,-0.541664 4.61395,0.06722 3.30844,-0.235294 4.26789,0.259318 3.76993,-0.05599 4.02252,0.01982 4.07104,0.120576 3.95995,0.05681 4.40502,0.04988 3.46879,-0.274468 4.07044,0.01693 3.99166,-0.206067 3.97051,-0.204682 4.02068,-0.07956 4.06574,0.06743 3.92932,0.01893 4.18825,0.08847 4.19275,0.246845 3.59025,-0.109413 3.97097,-0.115744 4.41253,0.202448 3.88334,0.182156 3.92019,0.242236 4.23665,0.147105 3.50389,-0.09481 4.20252,0.263046 3.84405,0.05212 4.30448,0.103321 3.72469,0.04307 4.27588,0.282697 3.55734,-0.305909 4.05992,-0.05137 4.3342,0.288913 3.76364,0.116287 3.90689,-0.563546 3.96552,-0.215099 4.04935,-0.254335 4.01533,0.07237 4.24715,0.187396 3.67874,-0.09755 3.94921,-0.722332 4.02502,-0.703835 4.25822,0.131586 3.84697,0.07253 4.26178,0.41154 3.69355,-0.643835 4.17222,0.279528 4.21567,0.285402 3.88503,0.380378 3.69171,0.01287 4.31527,0.296914 3.54662,-0.467954 4.21964,0.139099 3.9196,0.0624 4.09009,0.247897 3.91649,0.118201 3.96872,0.04201 4.08526,0.215432 3.99114,0.144605 4.20092,0.287539 3.834,0.149236 3.81749,-0.02798 3.92594,-0.2398 4.02943,-0.207538 4.15141,0.197693 3.93118,0.151264 3.95146,-0.148341 3.97904,-0.03741 4.32892,0.45007 3.64484,-0.02789 4.11957,0.244623 3.82456,-0.222406 4.44083,0.507284 3.51645,-0.462965 4.38263,0.866946 3.70327,0.414778 -0.12342,-4.747743 -0.01,-3.225513 0.004,-4.22624 0.033,-3.593201 -0.0431,-4.083871 -0.0837,-4.073323 0.11403,-3.617927 0.0344,-4.004858 0.006,-3.991992 0.28789,-3.703848 -0.2134,-4.721105 0.0709,-3.373267 -0.10323,-4.929057 z"
       id="path236"
       sodipodi:nodetypes="ccccccccsccsccccccccccccccccccccccccccccccccc"
       inkscape:path-effect="#path-effect2508"
       inkscape:original-d="M 526.52083,13.496307 H 502.3776 c -5.84628,2.221874 -16.34605,-1.122532 -16.34605,-1.122532 -2.36172,2.903351 -14.40527,2.428145 -16.20573,0 -2.16488,1.466356 -4.65276,0.34879 -7.1688,-0.994135 -1.15468,2.034629 -5.35094,3.483032 -8.89661,2.116667 h -16.20573 c -5.0868,0.945334 -9.78896,3.044546 -16.20572,0 -7.29154,4.724066 -11.64771,2.109724 -16.20573,0 -8.48584,2.059457 -14.58427,1.829215 -16.20573,0 -1.34261,0.972013 -12.23774,4.067899 -17.79323,0.264583 -9.86303,1.315558 -5.42396,-0.176391 -8.92969,-0.132291 -10.45236,3.741025 -14.65312,-0.01986 -21.89427,-0.132292 -6.13447,0.64099 -12.76859,1.719173 -16.20573,0 -3.72677,0.459721 -7.35173,1.530246 -11.41016,0 -1.78701,1.696411 -3.36098,1.475375 -4.79557,0 -5.9673,2.544239 -10.86771,0.287526 -16.20573,0 h -16.20573 l -16.01863,0.935443 c -2.95481,-0.855468 -6.38953,0.208718 -8.85122,-2.619241 -1.72664,3.728976 -5.27706,1.621825 -7.91578,2.432153 l -15.83155,-0.748355 c -4.89443,-0.319371 -7.47665,3.565469 -16.20573,0 -6.55486,3.74709 -10.90314,0.322794 -16.20573,0 -5.00789,2.758118 -10.49444,2.165681 -16.20573,0 -4.85392,2.574928 -16.45604,0.908544 -16.20573,0 h -16.20573 c -2.50419,0.393535 -5.89011,1.007983 -7.99055,-0.436823 -1.70356,2.259361 -5.03207,1.401135 -8.21518,0.436823 H 113.4401 c -2.70931,-0.01461 -6.53221,0.08417 -9.5318,-0.09187 -1.52064,-0.08924 -3.22058,1.139565 -3.75098,-1.96196 -1.794586,2.258777 -3.438947,0.720436 -4.980921,-1.313766 -0.641516,5.271606 -3.50384,3.347863 -7.823415,3.113766 C 83.859302,13.053139 81.427014,13.045981 81.028645,9.9416223 76.779939,16.487688 70.290354,12.573525 64.822916,13.496307 H 48.617187 C 45.574583,12.731689 41.704379,12.973803 41.954123,8.3867109 39.937938,10.591357 40.015454,11.916341 37.82836,12.14753 35.641265,12.37872 32.864155,8.626626 32.411458,7.8836469 32.087758,12.142138 25.548718,13.814909 16.205729,13.496307 H -4.7625 v 55.29536 h 531.28333 z" />
  </g>
  <g
     inkscape:groupmode="layer"
     id="layer2"
     inkscape:label="Details">
    <g
       id="g3408">
      <path
         style="fill:#7fc48b;fill-opacity:1;stroke:#206704;stroke-width:1.11522;stroke-linecap:round;stroke-dasharray:none;stroke-opacity:1"
         d="m 80.839609,31.111239 c 0.150651,-1.675694 -0.328083,-3.819111 -3.05211,-4.652906"
         id="path3291"
         sodipodi:nodetypes="cc" />
      <path
         style="fill:#7fc48b;fill-opacity:1;stroke:#206704;stroke-width:1.11522;stroke-linecap:round;stroke-dasharray:none;stroke-opacity:1"
         d="m 82.892077,31.223587 c 0.669908,-1.940278 -1.79363,-6.032075 -0.309979,-8.533619"
         id="path3293"
         sodipodi:nodetypes="cc" />
      <path
         style="fill:#7fc48b;fill-opacity:1;stroke:#206704;stroke-width:1.11522;stroke-dasharray:none;stroke-opacity:1;stroke-linecap:round"
         d="m 86.251412,30.523381 c -0.15805,0.727889 0.07078,-4.522105 3.271298,-4.797353"
         id="path3295"
         sodipodi:nodetypes="cc" />
    </g>
    <g
       id="g3416"
       transform="translate(100.18598,15.715448)">
      <path
         style="fill:#7fc48b;fill-opacity:1;stroke:#206704;stroke-width:1.11522;stroke-linecap:round;stroke-dasharray:none;stroke-opacity:1"
         d="m 80.839609,31.111239 c 0.150651,-1.675694 -0.328083,-3.819111 -3.05211,-4.652906"
         id="path3410"
         sodipodi:nodetypes="cc" />
      <path
         style="fill:#7fc48b;fill-opacity:1;stroke:#206704;stroke-width:1.11522;stroke-linecap:round;stroke-dasharray:none;stroke-opacity:1"
         d="m 82.892077,31.223587 c 0.669908,-1.940278 -1.79363,-6.032075 -0.309979,-8.533619"
         id="path3412"
         sodipodi:nodetypes="cc" />
      <path
         style="fill:#7fc48b;fill-opacity:1;stroke:#206704;stroke-width:1.11522;stroke-linecap:round;stroke-dasharray:none;stroke-opacity:1"
         d="m 86.251412,30.523381 c -0.15805,0.727889 0.07078,-4.522105 3.271298,-4.797353"
         id="path3414"
         sodipodi:nodetypes="cc" />
    </g>
    <g
       id="g3424"
       transform="matrix(-1,0,0,1,390.26286,-0.42413527)">
      <path
         style="fill:#7fc48b;fill-opacity:1;stroke:#206704;stroke-width:1.11522;stroke-linecap:round;stroke-dasharray:none;stroke-opacity:1"
         d="m 80.839609,31.111239 c 0.150651,-1.675694 -0.328083,-3.819111 -3.05211,-4.652906"
         id="path3418"
         sodipodi:nodetypes="cc" />
      <path
         style="fill:#7fc48b;fill-opacity:1;stroke:#206704;stroke-width:1.11522;stroke-linecap:round;stroke-dasharray:none;stroke-opacity:1"
         d="m 82.892077,31.223587 c 0.669908,-1.940278 -1.79363,-6.032075 -0.309979,-8.533619"
         id="path3420"
         sodipodi:nodetypes="cc" />
      <path
         style="fill:#7fc48b;fill-opacity:1;stroke:#206704;stroke-width:1.11522;stroke-linecap:round;stroke-dasharray:none;stroke-opacity:1"
         d="m 86.251412,30.523381 c -0.15805,0.727889 0.07078,-4.522105 3.271298,-4.797353"
         id="path3422"
         sodipodi:nodetypes="cc" />
    </g>
    <g
       id="g3432"
       transform="matrix(0.65210702,0,0,0.46929837,360.9732,33.328746)">
      <path
         style="fill:#7fc48b;fill-opacity:1;stroke:#206704;stroke-width:1.11522;stroke-linecap:round;stroke-dasharray:none;stroke-opacity:1"
         d="m 80.839609,31.111239 c 0.150651,-1.675694 -0.328083,-3.819111 -3.05211,-4.652906"
         id="path3426"
         sodipodi:nodetypes="cc" />
      <path
         style="fill:#7fc48b;fill-opacity:1;stroke:#206704;stroke-width:1.11522;stroke-linecap:round;stroke-dasharray:none;stroke-opacity:1"
         d="m 82.892077,31.223587 c 0.669908,-1.940278 -1.79363,-6.032075 -0.309979,-8.533619"
         id="path3428"
         sodipodi:nodetypes="cc" />
      <path
         style="fill:#7fc48b;fill-opacity:1;stroke:#206704;stroke-width:1.11522;stroke-linecap:round;stroke-dasharray:none;stroke-opacity:1"
         d="m 86.251412,30.523381 c -0.15805,0.727889 0.07078,-4.522105 3.271298,-4.797353"
         id="path3430"
         sodipodi:nodetypes="cc" />
    </g>
    <g
       id="g3440"
       transform="matrix(0.65210702,0,0,0.46929837,246.93778,19.305829)">
      <path
         style="fill:#7fc48b;fill-opacity:1;stroke:#206704;stroke-width:1.11522;stroke-linecap:round;stroke-dasharray:none;stroke-opacity:1"
         d="m 80.839609,31.111239 c 0.150651,-1.675694 -0.328083,-3.819111 -3.05211,-4.652906"
         id="path3434"
         sodipodi:nodetypes="cc" />
      <path
         style="fill:#7fc48b;fill-opacity:1;stroke:#206704;stroke-width:1.11522;stroke-linecap:round;stroke-dasharray:none;stroke-opacity:1"
         d="m 82.892077,31.223587 c 0.669908,-1.940278 -1.79363,-6.032075 -0.309979,-8.533619"
         id="path3436"
         sodipodi:nodetypes="cc" />
      <path
         style="fill:#7fc48b;fill-opacity:1;stroke:#206704;stroke-width:1.11522;stroke-linecap:round;stroke-dasharray:none;stroke-opacity:1"
         d="m 86.251412,30.523381 c -0.15805,0.727889 0.07078,-4.522105 3.271298,-4.797353"
         id="path3438"
         sodipodi:nodetypes="cc" />
    </g>
    <g
       id="g3448"
       transform="matrix(-0.65210702,0,0,0.46929837,227.98361,23.539162)">
      <path
         style="fill:#7fc48b;fill-opacity:1;stroke:#206704;stroke-width:1.11522;stroke-linecap:round;stroke-dasharray:none;stroke-opacity:1"
         d="m 80.839609,31.111239 c 0.150651,-1.675694 -0.328083,-3.819111 -3.05211,-4.652906"
         id="path3442"
         sodipodi:nodetypes="cc" />
      <path
         style="fill:#7fc48b;fill-opacity:1;stroke:#206704;stroke-width:1.11522;stroke-linecap:round;stroke-dasharray:none;stroke-opacity:1"
         d="m 82.892077,31.223587 c 0.669908,-1.940278 -1.79363,-6.032075 -0.309979,-8.533619"
         id="path3444"
         sodipodi:nodetypes="cc" />
      <path
         style="fill:#7fc48b;fill-opacity:1;stroke:#206704;stroke-width:1.11522;stroke-linecap:round;stroke-dasharray:none;stroke-opacity:1"
         d="m 86.251412,30.523381 c -0.15805,0.727889 0.07078,-4.522105 3.271298,-4.797353"
         id="path3446"
         sodipodi:nodetypes="cc" />
    </g>
    <g
       id="g3456"
       transform="matrix(-0.65210702,0,0,0.46929837,93.575274,26.714162)">
      <path
         style="fill:#7fc48b;fill-opacity:1;stroke:#206704;stroke-width:1.11522;stroke-linecap:round;stroke-dasharray:none;stroke-opacity:1"
         d="m 80.839609,31.111239 c 0.150651,-1.675694 -0.328083,-3.819111 -3.05211,-4.652906"
         id="path3450"
         sodipodi:nodetypes="cc" />
      <path
         style="fill:#7fc48b;fill-opacity:1;stroke:#206704;stroke-width:1.11522;stroke-linecap:round;stroke-dasharray:none;stroke-opacity:1"
         d="m 82.892077,31.223587 c 0.669908,-1.940278 -1.79363,-6.032075 -0.309979,-8.533619"
         id="path3452"
         sodipodi:nodetypes="cc" />
      <path
         style="fill:#7fc48b;fill-opacity:1;stroke:#206704;stroke-width:1.11522;stroke-linecap:round;stroke-dasharray:none;stroke-opacity:1"
         d="m 86.251412,30.523381 c -0.15805,0.727889 0.07078,-4.522105 3.271298,-4.797353"
         id="path3454"
         sodipodi:nodetypes="cc" />
    </g>
    <g
       id="g3464"
       transform="matrix(-1,0,0,1,567.53369,5.396698)">
      <path
         style="fill:#7fc48b;fill-opacity:1;stroke:#206704;stroke-width:1.11522;stroke-linecap:round;stroke-dasharray:none;stroke-opacity:1"
         d="m 80.839609,31.111239 c 0.150651,-1.675694 -0.328083,-3.819111 -3.05211,-4.652906"
         id="path3458"
         sodipodi:nodetypes="cc" />
      <path
         style="fill:#7fc48b;fill-opacity:1;stroke:#206704;stroke-width:1.11522;stroke-linecap:round;stroke-dasharray:none;stroke-opacity:1"
         d="m 82.892077,31.223587 c 0.669908,-1.940278 -1.79363,-6.032075 -0.309979,-8.533619"
         id="path3460"
         sodipodi:nodetypes="cc" />
      <path
         style="fill:#7fc48b;fill-opacity:1;stroke:#206704;stroke-width:1.11522;stroke-linecap:round;stroke-dasharray:none;stroke-opacity:1"
         d="m 86.251412,30.523381 c -0.15805,0.727889 0.07078,-4.522105 3.271298,-4.797353"
         id="path3462"
         sodipodi:nodetypes="cc" />
    </g>
    <g
       id="g3472"
       transform="matrix(0.65210702,0,0,0.46929837,436.90862,25.391246)">
      <path
         style="fill:#7fc48b;fill-opacity:1;stroke:#206704;stroke-width:1.11522;stroke-linecap:round;stroke-dasharray:none;stroke-opacity:1"
         d="m 80.839609,31.111239 c 0.150651,-1.675694 -0.328083,-3.819111 -3.05211,-4.652906"
         id="path3466"
         sodipodi:nodetypes="cc" />
      <path
         style="fill:#7fc48b;fill-opacity:1;stroke:#206704;stroke-width:1.11522;stroke-linecap:round;stroke-dasharray:none;stroke-opacity:1"
         d="m 82.892077,31.223587 c 0.669908,-1.940278 -1.79363,-6.032075 -0.309979,-8.533619"
         id="path3468"
         sodipodi:nodetypes="cc" />
      <path
         style="fill:#7fc48b;fill-opacity:1;stroke:#206704;stroke-width:1.11522;stroke-linecap:round;stroke-dasharray:none;stroke-opacity:1"
         d="m 86.251412,30.523381 c -0.15805,0.727889 0.07078,-4.522105 3.271298,-4.797353"
         id="path3470"
         sodipodi:nodetypes="cc" />
    </g>
  </g>
</svg>
