<?xml version="1.0" encoding="UTF-8" standalone="no"?>
<!-- Created with Inkscape (http://www.inkscape.org/) -->

<svg
   width="144"
   height="124"
   viewBox="0 0 38.1 32.808334"
   version="1.1"
   id="svg5"
   inkscape:version="1.2.1 (9c6d41e410, 2022-07-14)"
   sodipodi:docname="meetingPoint_no_edge.svg"
   xmlns:inkscape="http://www.inkscape.org/namespaces/inkscape"
   xmlns:sodipodi="http://sodipodi.sourceforge.net/DTD/sodipodi-0.dtd"
   xmlns="http://www.w3.org/2000/svg"
   xmlns:svg="http://www.w3.org/2000/svg">
  <sodipodi:namedview
     id="namedview7"
     pagecolor="#ffffff"
     bordercolor="#000000"
     borderopacity="0.25"
     inkscape:showpageshadow="2"
     inkscape:pageopacity="0.0"
     inkscape:pagecheckerboard="0"
     inkscape:deskcolor="#d1d1d1"
     inkscape:document-units="mm"
     showgrid="true"
     inkscape:zoom="10.716783"
     inkscape:cx="22.301468"
     inkscape:cy="36.484829"
     inkscape:window-width="2560"
     inkscape:window-height="1528"
     inkscape:window-x="-8"
     inkscape:window-y="1432"
     inkscape:window-maximized="1"
     inkscape:current-layer="layer1"
     showguides="false">
    <inkscape:grid
       type="xygrid"
       id="grid132"
       spacingx="2.38125"
       spacingy="2.38125"
       originx="0"
       originy="0" />
  </sodipodi:namedview>
  <defs
     id="defs2">
    <inkscape:path-effect
       effect="roughen"
       id="path-effect472"
       is_visible="true"
       lpeversion="1.2"
       method="size"
       max_segment_size="0.443319"
       segments="2"
       displace_x="0.65;1"
       displace_y="0.173077;1"
       global_randomize="1;253101687"
       handles="rand"
       shift_nodes="true"
       fixed_displacement="false"
       spray_tool_friendly="false" />
    <inkscape:path-effect
       effect="roughen"
       id="path-effect468"
       is_visible="true"
       lpeversion="1.2"
       method="size"
       max_segment_size="0.443319"
       segments="2"
       displace_x="0.65;1"
       displace_y="0.173077;1"
       global_randomize="1;1941008313"
       handles="rand"
       shift_nodes="true"
       fixed_displacement="false"
       spray_tool_friendly="false" />
    <inkscape:path-effect
       effect="roughen"
       id="path-effect308"
       is_visible="true"
       lpeversion="1.2"
       method="size"
       max_segment_size="0.443319"
       segments="2"
       displace_x="0.65;1"
       displace_y="0.173077;1"
       global_randomize="1;1711892198"
       handles="rand"
       shift_nodes="true"
       fixed_displacement="false"
       spray_tool_friendly="false" />
    <inkscape:path-effect
       effect="roughen"
       id="path-effect304"
       is_visible="true"
       lpeversion="1.2"
       method="size"
       max_segment_size="0.443319"
       segments="2"
       displace_x="0.65;1"
       displace_y="0.173077;1"
       global_randomize="1;1941008313"
       handles="rand"
       shift_nodes="true"
       fixed_displacement="false"
       spray_tool_friendly="false" />
    <inkscape:path-effect
       effect="roughen"
       id="path-effect300"
       is_visible="true"
       lpeversion="1.2"
       method="size"
       max_segment_size="0.443319"
       segments="2"
       displace_x="0.65;1"
       displace_y="0.173077;1"
       global_randomize="1;32455545"
       handles="rand"
       shift_nodes="true"
       fixed_displacement="false"
       spray_tool_friendly="false" />
    <inkscape:path-effect
       effect="roughen"
       id="path-effect296"
       is_visible="true"
       lpeversion="1.2"
       method="size"
       max_segment_size="0.443319"
       segments="2"
       displace_x="0.65;1"
       displace_y="0.173077;1"
       global_randomize="1;1941008313"
       handles="rand"
       shift_nodes="true"
       fixed_displacement="false"
       spray_tool_friendly="false" />
    <inkscape:path-effect
       effect="roughen"
       id="path-effect292"
       is_visible="true"
       lpeversion="1.2"
       method="size"
       max_segment_size="0.443319"
       segments="2"
       displace_x="0.65;1"
       displace_y="0.173077;1"
       global_randomize="1;253101687"
       handles="rand"
       shift_nodes="true"
       fixed_displacement="false"
       spray_tool_friendly="false" />
    <inkscape:path-effect
       effect="roughen"
       id="path-effect288"
       is_visible="true"
       lpeversion="1.2"
       method="size"
       max_segment_size="0.443319"
       segments="2"
       displace_x="0.65;1"
       displace_y="0.173077;1"
       global_randomize="1;1941008313"
       handles="rand"
       shift_nodes="true"
       fixed_displacement="false"
       spray_tool_friendly="false" />
    <inkscape:path-effect
       effect="roughen"
       id="path-effect284"
       is_visible="true"
       lpeversion="1.2"
       method="size"
       max_segment_size="0.443319"
       segments="2"
       displace_x="0.65;1"
       displace_y="0.173077;1"
       global_randomize="1;1941008313"
       handles="rand"
       shift_nodes="true"
       fixed_displacement="false"
       spray_tool_friendly="false" />
    <inkscape:path-effect
       effect="roughen"
       id="path-effect280"
       is_visible="true"
       lpeversion="1.2"
       method="size"
       max_segment_size="0.443319"
       segments="2"
       displace_x="0.65;1"
       displace_y="0.173077;1"
       global_randomize="1;1941008313"
       handles="rand"
       shift_nodes="true"
       fixed_displacement="false"
       spray_tool_friendly="false" />
    <inkscape:path-effect
       effect="roughen"
       id="path-effect9560"
       is_visible="true"
       lpeversion="1.2"
       method="size"
       max_segment_size="0.443319"
       segments="2"
       displace_x="0.65;1"
       displace_y="0.173077;1"
       global_randomize="1;1711892198"
       handles="rand"
       shift_nodes="true"
       fixed_displacement="false"
       spray_tool_friendly="false" />
    <inkscape:path-effect
       effect="roughen"
       id="path-effect9556"
       is_visible="true"
       lpeversion="1.2"
       method="size"
       max_segment_size="0.443319"
       segments="2"
       displace_x="0.65;1"
       displace_y="0.173077;1"
       global_randomize="1;1941008313"
       handles="rand"
       shift_nodes="true"
       fixed_displacement="false"
       spray_tool_friendly="false" />
    <inkscape:path-effect
       effect="roughen"
       id="path-effect9546"
       is_visible="true"
       lpeversion="1.2"
       method="size"
       max_segment_size="0.443319"
       segments="2"
       displace_x="0.65;1"
       displace_y="0.173077;1"
       global_randomize="1;32455545"
       handles="rand"
       shift_nodes="true"
       fixed_displacement="false"
       spray_tool_friendly="false" />
    <inkscape:path-effect
       effect="roughen"
       id="path-effect9542"
       is_visible="true"
       lpeversion="1.2"
       method="size"
       max_segment_size="0.443319"
       segments="2"
       displace_x="0.65;1"
       displace_y="0.173077;1"
       global_randomize="1;1941008313"
       handles="rand"
       shift_nodes="true"
       fixed_displacement="false"
       spray_tool_friendly="false" />
    <inkscape:path-effect
       effect="roughen"
       id="path-effect9532"
       is_visible="true"
       lpeversion="1.2"
       method="size"
       max_segment_size="0.443319"
       segments="2"
       displace_x="0.65;1"
       displace_y="0.173077;1"
       global_randomize="1;253101687"
       handles="rand"
       shift_nodes="true"
       fixed_displacement="false"
       spray_tool_friendly="false" />
    <inkscape:path-effect
       effect="roughen"
       id="path-effect9528"
       is_visible="true"
       lpeversion="1.2"
       method="size"
       max_segment_size="0.443319"
       segments="2"
       displace_x="0.65;1"
       displace_y="0.173077;1"
       global_randomize="1;1941008313"
       handles="rand"
       shift_nodes="true"
       fixed_displacement="false"
       spray_tool_friendly="false" />
    <inkscape:path-effect
       effect="roughen"
       id="path-effect2677"
       is_visible="true"
       lpeversion="1.2"
       method="size"
       max_segment_size="0.443319"
       segments="2"
       displace_x="0.65;1"
       displace_y="0.173077;1"
       global_randomize="1;1941008313"
       handles="rand"
       shift_nodes="true"
       fixed_displacement="false"
       spray_tool_friendly="false" />
    <inkscape:path-effect
       effect="roughen"
       id="path-effect336"
       is_visible="true"
       lpeversion="1.2"
       method="size"
       max_segment_size="0.443319"
       segments="2"
       displace_x="0.65;1"
       displace_y="0.173077;1"
       global_randomize="1;1941008313"
       handles="rand"
       shift_nodes="true"
       fixed_displacement="false"
       spray_tool_friendly="false" />
  </defs>
  <g
     inkscape:label="Layer 1"
     inkscape:groupmode="layer"
     id="layer1"
     transform="translate(-5.2674533,-5.2560288)">
    <path
       style="fill:#9effff;stroke:none;stroke-width:0.264583;stroke-linecap:round;stroke-opacity:1"
       d="m 5.5932831,13.81208 c 0.1582111,-0.07109 0.071829,-0.240097 0.078921,-0.387234 0.00228,-0.140145 -0.024641,-0.32013 0.00828,-0.487754 0.059654,-0.158327 0.039181,-0.345192 0.048561,-0.535691 -0.06859,-0.207425 -0.2112597,-0.418057 -0.2955424,-0.630162 0.031065,-0.179711 0.1650949,-0.308152 0.092778,-0.525244 -0.00245,-0.182362 0.1162838,-0.332119 0.076477,-0.48601 0.00139,-0.17289 -0.044034,-0.313122 0.01252,-0.425213 -0.082762,-0.170127 0.1099434,-0.235223 0.1716398,-0.281008 0.05228,-0.01741 0.098662,-0.01159 0.056328,-0.02298 C 5.7265989,9.8164826 6.0593133,9.7020945 5.9674802,9.5173271 5.9165688,9.3354157 5.8936088,9.1294268 5.8667359,8.9678958 5.8364645,8.825979 5.8211526,8.6504439 5.8286126,8.5583589 5.7041323,8.4200647 5.5732029,8.2775779 5.6416175,8.2232368 5.7842213,8.1352466 5.6988795,8.0327212 5.7369247,7.9103171 5.7857991,7.8143044 5.754807,7.6938367 5.8222967,7.6093995 5.9279311,7.5405381 5.9894185,7.4415101 6.1148749,7.3654393 6.2090016,7.3049262 6.4061308,7.2598076 6.4931212,7.1955165 6.5043614,7.1193052 6.8229788,7.1396339 6.9202035,7.0875273 6.9078397,7.00539 7.5291395,6.9574723 7.6482899,6.8974218 7.8453433,6.8393458 7.6022277,6.8074033 7.8084282,6.7426172 7.8702841,6.6587821 7.5775253,6.568141 7.6434067,6.4770546 7.874411,6.3607501 7.772343,6.1797944 7.9462406,6.0807396 8.0733689,6.0097897 8.2332395,5.9456348 8.3482737,5.866699 8.5710318,5.8516203 8.2836237,5.7147483 8.5406326,5.7117369 8.7854695,5.6871332 8.8161247,5.6242312 8.9984901,5.5926388 c -0.043608,-0.06436 0.1337901,-0.07223 0.3229663,-0.071628 0.1475396,-0.012825 0.4816063,0.039335 0.6241768,0.016677 0.1225698,0.030267 0.1887878,0.00428 0.2398678,-0.011308 0.175339,0.00611 0.830485,0.110924 0.94883,0.1058058 0.0054,0.00344 -0.06801,-0.049565 -0.09363,-0.052185 0.204915,-0.011605 0.331038,-0.046628 0.535091,-0.047712 0.192096,-0.018975 0.468235,0.00108 0.664058,-0.00789 0.336208,0.00868 0.436395,0.039862 0.596901,0.03989 0.15237,-0.00437 0.278205,-0.040048 0.534137,-0.017624 -0.150269,0.1055445 -0.378569,0.1907229 -0.536691,0.2864554 -0.156177,0.087137 -0.378078,0.1441743 -0.545316,0.2224766 -0.153582,0.097477 -0.355476,0.1287742 -0.510167,0.2078746 -0.14561,0.078399 -0.322406,0.1349772 -0.469745,0.1959727 -0.162778,0.068245 -0.212148,0.1407891 -0.356208,0.2072782 -0.136554,0.076553 -0.890395,0.074174 -0.95148,0.1578595 -0.1866232,0.1596372 0.111168,0.3859422 0.473872,0.5914104 0.03978,0.014423 -0.06213,8.187e-4 -0.09323,-0.00343 0.04345,0.025347 0.160153,0.1303258 0.208751,0.1541536 0.183777,0.068016 0.18099,0.073514 0.169728,0.1177273 0.332342,0.1551938 0.961282,0.2919942 1.081315,0.3858505 0.0045,0.054725 0.527248,0.1062185 0.637168,0.164824 0.710734,0.4528917 0.672285,0.7319024 0.04493,0.8493271 -0.03596,0.010797 -0.09824,0.015614 -0.182301,0.021319 -0.05073,0.0045 -0.08554,0.024495 -0.138106,0.025284 -0.06806,0.016956 -0.168287,-0.01779 -0.31907,-0.00993 -0.151533,0.00777 -0.16721,0.032055 -0.235117,0.052239 -0.187118,0.01244 -0.378158,0.013162 -0.621608,0.016561 -0.189201,-0.00238 -0.390299,3.638e-4 -0.453319,0.015143 -0.195357,-6.207e-4 -0.389721,0.00494 -0.55155,0.011307 -0.1645549,0.00908 -0.2067308,0.02776 -0.3955936,0.033577 -0.1828978,0.01191 -0.3942635,-0.046193 -0.5709286,-0.027648 -0.2000403,0.00151 -0.1878403,0.049951 -0.2794561,0.079097 -0.082085,0.04797 -0.1202051,0.1017448 -0.1353568,0.1449081 0.1164183,0.064024 0.2193103,0.127154 0.3238813,0.197017 0.1916823,0.1073047 0.7293573,0.1823465 0.7535373,0.2303213 0.1260263,0.092803 -0.1870408,0.1264211 -0.2431443,0.2076521 0.1428521,0.05988 0.3739827,0.240146 0.4123361,0.288517 0.033733,0.03899 0.057781,0.0314 0.2466897,0.0419 0.177123,0.0062 0.215006,-0.02943 0.368631,-0.04679 0.220955,-0.014 0.509355,-0.02062 0.67024,-0.04533 0.0237,-0.02384 0.09909,-0.02495 0.211584,-0.01385 0.224726,0.02455 0.309365,0.118491 0.156548,0.268734 -0.09683,0.101282 -0.294111,0.195056 -0.475644,0.411708 -0.01138,0.06268 0.205915,0.159571 0.241335,0.22606 0.05007,0.04789 0.0551,0.05791 0.09825,0.09785 0.143824,0.116904 0.368518,0.203179 0.515405,0.299888 0.120953,0.06152 0.403179,0.197184 0.554453,0.26584 0.08141,0.07017 0.139809,0.10513 0.253838,0.169137 0.05984,0.04603 0.191324,0.143369 0.348834,0.212752 0.04747,0.02432 0.242429,0.110751 0.28357,0.115863 0.200677,0.04055 0.261318,0.124167 0.337745,0.139357 0.119099,0.04518 0.217913,0.107242 0.334679,0.140393 0.142995,0.03541 0.01224,-0.01358 0.188489,0.02732 0.0062,0.0541 -0.111269,0.08498 -0.264706,0.117603 -0.09964,0.02407 0.0071,0.05877 -0.02091,0.09702 -0.176645,0.03387 -0.392052,0.04914 -0.569532,0.08663 -0.234899,0.0049 -0.271394,0.07335 -0.527193,0.06942 -0.299337,-0.02156 -0.240376,0.06322 -0.450004,0.0594 -0.239862,0.003 -0.698058,-0.08468 -0.797076,-0.05714 -0.11576,-0.0058 -0.207147,-0.0069 -0.28279,-0.0052 -0.175597,0.01377 -0.138452,0.05514 -0.241074,0.07117 -0.220414,0.02455 0.125743,0.114332 0.113752,0.156384 -0.05084,0.111735 -0.01245,0.21567 -0.118325,0.267962 -0.134759,0.06059 -0.324014,0.07893 -0.520703,0.08036 -0.103384,0.01081 -0.333645,-0.01889 -0.6712759,-0.05114 -0.075253,0.0044 -0.1102381,0.0074 -0.2046987,0.0048 -0.1571925,0.0073 -0.363407,2.46e-4 -0.4870104,0.06847 -0.010619,0.05381 0.079907,0.192248 0.1127945,0.287718 0.058551,0.0832 0.5317635,0.305773 0.6264946,0.40207 -0.012185,0.06371 0.1350699,0.139488 0.2121059,0.208391 0.102311,0.118068 0.348981,0.261782 0.489055,0.392808 0.158375,0.131995 0.434017,0.316906 0.621853,0.409206 0.05633,0.09206 -0.3176,0.06569 -0.512534,0.08176 -0.01442,0.03217 -0.06191,0.105534 -0.161825,0.169749 -0.08099,0.07804 -0.102055,0.210468 -0.267857,0.310767 -0.118278,0.07723 -0.101373,0.24677 -0.3036989,0.321985 -0.1565326,0.09709 -0.1797967,0.26325 -0.4155079,0.30409 -0.1351922,0.08486 -0.1684269,0.167922 -0.2940007,0.214032 -0.106362,0.04571 -0.4041057,0.03441 -0.4550962,0.04368 0.078398,0.03731 0.086548,0.04544 0.3173595,0.08439 0.1536305,0.03248 0.3487776,0.08001 0.534033,0.113245 0.080096,0.01159 0.1724777,0.03872 0.2617093,0.05563 0.1644459,0.02163 0.2263869,0.09145 0.3367419,0.0978 0.0075,-0.0011 0.09155,0.01613 0.185302,0.01667 0.136503,-0.0023 0.231027,0.02752 0.432158,0.05632 0.163254,0.03258 0.33366,0.07139 0.552822,0.08332 0.200177,0.02774 0.53319,0.103917 0.591952,0.119928 0.194928,0.04676 0.410534,0.181433 0.611393,0.246771 -0.123641,0.02546 -0.638745,-0.0681 -0.849213,-0.03379 -0.102492,0.03412 -0.268592,0.03653 -0.350738,0.08716 -0.188107,0.08774 -0.08306,0.310232 -0.183933,0.422893 -0.171415,0.119238 -0.148227,0.338727 -0.209403,0.41875 -0.06293,0.05109 -0.24832,-0.02179 -0.223797,0.014 0.101029,0.109748 -0.03678,0.06965 0.01981,0.105758 0.01154,0.06388 0.254873,0.127307 0.350833,0.189492 0.0054,0.01236 0.267145,0.0284 0.361419,0.07665 -0.02474,-0.01818 0.288721,0.07365 0.296883,0.07593 0.07139,0.046 0.190786,0.06875 0.09129,0.09391 0.06551,0.110277 0.211113,0.364395 0.288803,0.601987 0.0316,0.152823 0.09623,0.327357 0.149961,0.534832 0.07848,0.241971 0.234294,0.554681 0.387284,0.940963 -0.333575,-0.200218 -0.329231,-0.313175 -0.538322,-0.462871 -0.304668,-0.201685 -0.309301,-0.281087 -0.446988,-0.382464 -0.269173,-0.15635 -0.550869,-0.250642 -0.77248,-0.341535 -0.181667,-0.07146 -0.224397,-0.06667 -0.337508,-0.09249 -0.13658,-0.03209 -0.187539,-0.05449 -0.209505,-0.04129 -0.105502,-0.0089 -0.255227,-0.01785 -0.3899,-0.02243 -0.1692307,-0.0167 -0.05009,-0.01273 -0.1430499,-0.01875 -0.093828,0.0019 -0.2641969,-0.0083 -0.4109976,-0.0123 -0.1224952,-0.01829 -0.0199,0.06428 -0.1348133,0.05791 -0.048841,0.02099 -0.3409353,-0.03165 -0.5538894,-0.07207 -0.1648618,-0.03269 -0.1225663,0.06311 -0.3416864,0.01432 -0.1604595,-0.01941 -0.2892723,-0.02917 -0.4596074,-0.04662 -0.1709404,-0.01727 0.050982,0.02929 -0.083187,0.03903 -0.2662981,-0.01973 -0.5454944,-0.04826 -0.7742439,-0.08405 -0.10497,-0.01513 -0.2506144,-0.05069 -0.3805447,-0.09457 -0.1038305,-0.03771 -0.2122124,-0.06974 -0.2756743,-0.102784 -0.1611849,-0.06908 -0.403169,-0.159614 -0.4683799,-0.234639 0.017509,-0.03224 -0.3243474,-0.133607 -0.3568409,-0.175677 -0.00735,-0.03872 -0.019134,-0.05942 -0.083105,-0.116384 -0.1113387,-0.138708 -0.3382925,-0.301282 -0.2566799,-0.473676 0.01219,-0.145182 0.2470024,-0.309565 0.2916325,-0.497471 0.155382,-0.158496 0.1961387,-0.330614 0.2023322,-0.538232 -0.047542,-0.24222 -0.1746573,-0.509211 -0.127083,-0.787448 0.068816,-0.08327 0.018275,-0.196759 0.014854,-0.313823 0.044757,-0.113399 0.4330842,-0.124092 0.4592895,-0.250566 -0.0256,-0.197992 -0.075948,-0.415404 -0.159408,-0.648468 C 5.9256958,15.352345 5.9330926,15.206802 5.913116,15.076397 5.8941292,14.940109 5.8748889,14.806562 5.859143,14.680578 5.7949898,14.524067 5.771411,14.361498 5.7231627,14.185681 5.6913422,14.04039 5.6152959,13.950078 5.5932831,13.81208 Z"
       id="path238"
       sodipodi:nodetypes="zcccscssscsssccscccz"
       inkscape:path-effect="#path-effect336"
       inkscape:original-d="M 5.6788178,13.815445 C 5.6455731,12.834804 5.8696818,10.030994 5.8696818,10.030994 5.2583693,7.8382125 5.8224784,7.380882 7.6818718,6.6759861 8.5935051,5.5581553 10.379285,5.3030984 13.373945,5.5467073 11.714066,6.5830685 9.3517195,6.9535187 10.894894,7.6852324 15.089932,9.6743572 9.1043809,8.8935876 8.6192684,9.4424966 c 0.485113,0.254572 0.8389428,0.5696544 1.1465158,0.8630514 0.3075728,0.293397 2.6683938,-0.5641711 1.3143248,0.685221 -0.309305,0.285394 1.084291,0.788463 1.546942,1.048061 0.46265,0.259598 1.049095,0.492172 1.844362,0.679147 -0.501018,0.39772 -3.458352,0.168046 -3.489819,0.540472 -0.04934,0.5839 -1.2088314,0.185865 -1.6490834,0.447138 -0.440251,0.261273 1.9720194,1.590688 1.5806944,1.750381 -0.391325,0.159692 -1.5821728,1.328693 -1.9122088,1.364568 1.1410918,0.358335 1.5884228,0.140199 3.6079278,0.784711 -0.688781,0.169487 -2.075945,0.714578 -1.798001,0.967084 0.605381,0.549975 0.704118,-0.210457 1.942714,2.605248 -2.751712,-2.179938 -2.528404,-1.092212 -4.3560252,-1.463291 -1.8213339,-0.127931 -3.3133446,0.236472 -2.623362,-2.989185 0.00748,-0.675219 -0.062187,-1.929017 -0.095432,-2.909658 z" />
    <path
       style="fill:#e0ffff;fill-opacity:1;stroke:none;stroke-width:0.529167;stroke-linecap:round;stroke-opacity:1"
       d="m 6.6692588,9.3491293 c 0,0 0.1821109,0.084694 0.085301,0.7255967 -0.03289,0.217741 2.7789169,1.384514 2.7640707,1.690954 -0.017801,0.367426 -3.1950203,0.141802 -3.1881662,0.657071 0.012432,0.934629 0.2521879,1.088033 0.4823214,1.556874 0.1264345,0.257579 1.7486643,1.170316 1.7622192,1.342019 0.015257,0.193268 -1.3845417,0.518069 -1.5885038,0.674375 -0.2247207,0.172214 -0.4900395,0.473139 -0.5053172,0.887678 0.095335,0.247311 0.1747479,0.459213 0.2377074,0.640232 0.1315844,0.378328 2.0813688,0.7757 2.0643632,0.925553 -0.019022,0.16762 -2.0241041,0.06422 -2.2418977,0.0555 C 6.4201174,18.500131 6.2670283,18.476919 6.0809181,18.44532 5.9160851,18.304226 5.7887376,18.46148 5.6896492,18.053079 5.4116171,17.143084 5.6102715,17.014113 5.9333859,16.690048 5.8447167,16.497514 6.0118699,16.366253 5.9170105,15.932549 5.8221512,15.498846 5.4652793,14.762701 5.45747,14.523519 5.8965483,14.082972 5.7888149,14.173832 5.5404355,13.756991 5.5061678,13.187987 5.3849728,12.534179 5.40329,12.037713 L 5.564124,10.608316 C 5.3663542,9.7192735 5.507053,8.4105369 5.7893607,7.6262181 5.9090182,7.7808908 6.8942479,7.2027332 7.2029731,7.4938935 7.2986553,7.5841318 9.6384906,7.9631283 9.5583029,8.2680659 9.5138473,8.4371214 7.1261754,8.4412443 7.0057338,8.6990745 6.9172346,8.8885253 6.8061107,9.1041355 6.6692588,9.3491293 Z"
       id="path2733"
       sodipodi:nodetypes="cscsssscssscccscccccsssc" />
    <path
       style="fill:#9effff;stroke:none;stroke-width:0.264583;stroke-linecap:round;stroke-opacity:1"
       d="m 15.165316,13.799087 c 0.111873,-0.05809 0.02549,-0.227104 0.03258,-0.374241 0.0023,-0.140145 -0.02464,-0.32013 0.0083,-0.487754 0.05965,-0.158327 0.03918,-0.345192 0.04856,-0.535691 -0.06859,-0.207425 -0.21126,-0.418057 -0.295542,-0.630162 0.03107,-0.179711 0.165095,-0.308152 0.09278,-0.525244 -0.0025,-0.182362 0.116285,-0.332119 0.07648,-0.486011 0.0014,-0.172889 -0.04403,-0.313121 0.01252,-0.425212 -0.08276,-0.170127 0.109944,-0.235223 0.17164,-0.281008 0.05228,-0.01741 0.09866,-0.01159 0.05633,-0.02298 C 15.252294,9.8164826 15.585008,9.7020945 15.493175,9.5173271 15.442264,9.3354157 15.419304,9.1294268 15.392431,8.9678959 15.36216,8.8259791 15.346848,8.650444 15.354308,8.558359 15.229828,8.4200648 15.098899,8.277578 15.167313,8.2232369 c 0.142604,-0.08799 0.05726,-0.1905157 0.09531,-0.3129198 0.04887,-0.096013 0.01788,-0.2164804 0.08537,-0.3009177 0.105635,-0.068861 0.167122,-0.1678893 0.292578,-0.2439601 0.09413,-0.060513 0.291256,-0.1056317 0.378247,-0.1699228 0.01124,-0.076211 0.329857,-0.055883 0.427082,-0.1079892 -0.01236,-0.082137 0.608936,-0.130055 0.728086,-0.1901055 0.197053,-0.058076 -0.04606,-0.090019 0.160137,-0.1548046 0.06617,-0.090343 -0.224043,-0.1836816 -0.156967,-0.2741634 0.240745,-0.1244466 0.148368,-0.2977126 0.334081,-0.3777279 0.130382,-0.054983 0.294236,-0.098369 0.414499,-0.1531506 0.217635,0.00395 -0.07511,-0.1130111 0.176529,-0.095577 0.239381,8.13e-5 0.265263,-0.037026 0.443628,-0.042468 -0.05086,-0.046343 0.118998,-0.036293 0.300486,-0.018049 0.14348,0.00511 0.472916,0.074939 0.610541,0.069497 0.120348,0.039258 0.184046,0.022074 0.232389,0.015092 0.180121,0.02368 0.838057,0.1447754 0.95833,0.1547937 0.0054,0.00344 -0.06801,-0.049565 -0.09363,-0.052185 0.238866,0.013845 0.375015,-0.0015 0.595635,0.015456 0.20209,0.010628 0.495637,0.041176 0.725844,0.050188 0.219945,0.026505 0.322385,-0.00982 0.578719,0.010962 -0.192773,0.1322375 0.03562,0.2606962 -0.138321,0.3534966 -0.330008,0.151844 -0.741893,0.233788 -1.049789,0.3088797 -0.165602,0.037002 -0.383611,0.043045 -0.532001,0.073412 -0.130153,0.048181 -0.29316,0.034103 -0.393981,0.074316 -0.08756,0.03862 -0.190687,0.062067 -0.248981,0.099697 -0.06353,0.037784 -0.0036,0.089276 -0.0305,0.1453848 -0.03463,0.050276 -0.569503,0.064516 -0.552738,0.1455846 0.118579,0.1220763 0.751301,0.2902711 0.916584,0.4400229 0.182577,0.1756158 0.150512,0.3130654 0.287823,0.4617555 0.134049,0.1786437 0.303841,0.3545545 0.287791,0.4505199 0.0019,0.079082 0.0453,0.1339374 -0.07935,0.1770316 -0.01194,0.094825 0.28244,0.1672906 0.08422,0.1961779 -0.266575,0.069887 -0.09076,0.111127 -0.352413,0.1496988 -0.254337,0.023082 -0.367748,0.098074 -0.693925,0.1150757 -0.219893,0.00464 -0.456486,0.0055 -0.694724,0.011881 -0.180171,0.00228 -0.324591,0.024694 -0.465383,0.032861 -0.08158,0.028363 -0.249172,0.029269 -0.417826,0.032809 -0.06562,0.02929 -0.139631,0.1007902 -0.148249,0.1467681 -0.02769,0.032232 -0.0015,0.087547 0.0932,0.1557796 0.100429,0.066118 0.408914,0.1996584 0.545608,0.2991791 0.07594,0.052933 -0.171555,0.06859 -0.115065,0.1230186 0.06633,0.07816 0.384862,0.159329 0.443802,0.229559 0.07364,0.05745 0.303828,0.10385 0.394575,0.126539 0.09626,0.0208 0.172061,-0.03612 0.260961,-0.02077 0.174887,0.02815 0.2686,0.04734 0.484907,0.118682 0.105681,0.04352 0.217601,0.117258 0.257917,0.207291 0.18685,0.08587 0.103391,0.212746 -0.04381,0.303034 -0.0053,0.156533 -0.07669,0.358826 -0.311706,0.560317 -0.02969,0.05956 -0.334386,-0.02993 -0.275048,-0.02263 0.09451,0.0057 0.758175,0.01357 1.011116,-0.01851 0.191916,0.02571 -0.213436,-0.05827 -0.183729,-0.05485 0.252183,-0.02732 0.543274,-0.05568 0.735639,-0.08255 0.188219,-0.01385 0.317096,0.0049 0.532361,0.02318 0.09665,5.56e-4 0.171363,-0.07646 0.286306,-0.02075 0.121335,0.07744 0.407435,0.205569 0.416595,0.249121 0.06872,0.03386 0.160145,0.07982 0.171851,0.103879 0.164826,0.04864 0.417449,0.125532 0.58902,0.166753 0.15669,0.03952 0.431759,0.16662 0.497293,0.19356 -0.0491,0.05503 -0.05124,0.08211 -0.152431,0.124089 -0.09185,0.03806 -0.101351,0.0972 -0.269781,0.152461 -0.199505,0.03825 -0.523898,0.07414 -0.805618,0.08697 -0.166283,-0.01834 -0.45915,-0.01319 -0.63691,-0.0046 -0.229759,0.01411 -0.156764,0.111003 -0.311532,0.120819 -0.209555,0.02965 -0.338502,0.14616 -0.549577,0.164684 -0.206827,0.02448 -0.329693,0.08613 -0.521334,0.107833 -0.136831,0.0307 -0.352995,0.04119 -0.554206,0.06048 -0.138683,0.008 0.07377,0.04258 0.02965,0.08214 -0.03714,0.02704 -0.444534,0.0083 -0.446602,0.04624 0.0051,0.145974 -0.219559,0.228989 -0.295531,0.32265 -0.138809,0.07601 0.09204,0.209355 -0.0012,0.265667 -0.191705,0.06788 -0.199676,0.198713 -0.285361,0.281978 -0.197686,0.05134 -0.282893,0.126595 -0.404394,0.190871 -0.1059,0.03488 -0.119319,0.101744 -0.07381,0.188551 0.132477,0.107129 0.129838,0.223125 0.349441,0.359474 0.156539,0.126005 -0.111505,0.208118 0.0065,0.320537 0.169776,0.186597 0.577228,0.370077 0.85022,0.528992 0.08061,0.07198 0.343437,0.17905 0.392035,0.240853 0.25217,0.08648 0.300025,0.149531 0.260115,0.170381 -0.177613,4.66e-4 -0.262011,0.0747 -0.426534,0.130285 -0.144358,0.06862 -0.327626,0.143862 -0.512576,0.211297 -0.155604,0.07379 -0.06186,0.220892 -0.320696,0.265799 -0.17311,0.08989 -0.360303,0.19226 -0.441608,0.251868 -0.124368,0.04411 -0.545005,-0.02609 -0.69933,-0.0384 0.05237,0.101438 0.248173,0.210154 0.360956,0.301652 0.05043,0.07104 0.524194,0.231116 0.621282,0.278927 0.124342,0.02172 0.02131,0.01194 0.02445,0.01579 0.119866,0.06677 0.267752,0.14853 0.361887,0.168959 0.07801,0.02489 0.379758,0.06475 0.474514,0.07482 0.100522,0.0098 0.422109,0.0947 0.528276,0.109913 0.126932,0.01413 0.436826,0.156165 0.616213,0.191459 0.126676,0.02835 0.122874,-0.02954 0.444913,0.07732 -0.18739,0.03163 -0.424657,0.06404 -0.572953,0.11715 -0.182326,0.03985 -0.625757,0.06428 -0.777583,0.105659 -0.222484,0.08571 -0.286568,0.166493 -0.170132,0.276597 0.02841,0.02862 0.417366,0.08228 0.467969,0.128064 0.09566,0.07541 0.09121,0.170065 0.135943,0.182518 -0.05964,0.0049 -0.04164,0.0098 -0.01461,-0.01005 0.05838,-0.03208 0.07145,-0.0533 0.190606,-0.04765 0.08759,0.01529 0.152042,0.04217 0.257186,0.06631 0.09513,0.05028 0.20554,0.07224 0.285979,0.127248 0.119876,0.06498 0.03441,0.05442 0.23268,0.188745 0.131157,0.133814 0.363109,0.383515 0.490062,0.626926 0.111944,0.232931 0.287961,0.53282 0.468578,0.887231 -0.238745,-0.18521 -0.19624,-0.230342 -0.382946,-0.364807 -0.303052,-0.20559 -0.422166,-0.237996 -0.632804,-0.341539 -0.232663,-0.10311 -0.538971,-0.197878 -0.696133,-0.226254 -0.222451,-0.03916 -0.253052,-0.02709 -0.387665,-0.03891 -0.124532,-0.013 -0.05728,0.01184 -0.243928,0.01639 -0.214439,-9.61e-4 -0.320905,-0.02244 -0.537647,-0.02637 -0.05058,0.0037 -0.09741,0.01854 -0.145685,0.03174 -0.155622,-0.0015 0.231674,0.126644 0.101624,0.107811 -0.165888,0.03266 -0.399915,0.05667 -0.66391,0.05894 -0.09658,0.006 -0.290422,-0.01049 -0.41376,-0.0192 -0.0958,-0.0045 -0.02326,0.07373 -0.133057,0.03764 -0.05726,0.01115 -0.712951,-0.10842 -0.811744,-0.122451 -0.13559,-0.012 -0.489696,-0.07632 -0.599891,-0.08178 -0.05889,-0.0032 -0.09625,0.04037 -0.152511,0.03578 -0.151319,-0.0085 -0.206429,-0.0081 -0.365477,-0.02215 -0.104582,-0.0022 -0.487206,-0.09806 -0.599255,-0.115351 -0.09122,-0.05194 0.0046,-0.0037 -0.05883,-0.0084 -0.06156,-0.0075 -0.192951,-0.03373 -0.279189,-0.05849 -0.138679,-0.03887 -0.178014,-0.06048 -0.321841,-0.151219 -0.08292,-0.07611 -0.159049,-0.195774 -0.204771,-0.350036 -0.02057,-0.108322 0.21996,-0.183975 0.220665,-0.3577 0.03686,-0.147473 0.04462,-0.334743 -0.0014,-0.567041 -0.02253,-0.186732 0.332908,-0.292096 0.323447,-0.511264 -0.0085,-0.220352 -0.428051,-0.560937 -0.381664,-0.816283 -0.02399,-0.114795 -0.0509,-0.241999 -0.03883,-0.363621 0.0087,-0.111311 0.07873,-0.209668 0.08695,-0.346542 0.01847,-0.134166 -0.110433,-0.348478 -0.02703,-0.484745 0.03004,-0.132819 -0.123721,-0.308894 -0.01614,-0.425802 0.02779,-0.157238 0.09678,-0.297823 0.135213,-0.449596 0.01273,-0.14339 0.165653,-0.253009 0.21455,-0.382862 -0.07958,-0.148563 -0.0076,-0.275428 -0.104058,-0.424475 -0.08832,-0.335557 0.05047,-0.447084 0.0051,-0.447498 0.0624,0.0069 0.01368,0.158087 -0.0527,0.2793 -0.108099,0.07781 -0.288487,0.143499 -0.298802,0.135893 z"
       id="path9520"
       sodipodi:nodetypes="zcccscssscsssccsccczz"
       inkscape:path-effect="#path-effect9528"
       inkscape:original-d="m 15.204513,13.815445 c -0.03325,-0.980641 0.190864,-3.784451 0.190864,-3.784451 -0.611313,-2.1927815 -0.0472,-2.650112 1.81219,-3.3550079 0.911633,-1.1178308 2.260819,-0.8569126 5.255479,-0.6133037 -1.659879,1.0363612 -3.311999,0.4801587 -2.042457,1.62255 2.210518,1.9891248 -1.790513,1.2083552 -2.275626,1.7572642 0.485113,0.254572 0.838943,0.5696544 1.146516,0.8630514 0.307573,0.293397 2.192109,-0.0482 0.83804,1.201196 -0.309305,0.285394 1.798718,-0.322868 2.261369,-0.06327 0.46265,0.259598 0.804689,0.387427 1.599956,0.574402 -0.501018,0.39772 -4.047444,0.669695 -4.078911,1.042121 -0.04934,0.5839 -0.653166,0.781221 -1.093418,1.042494 -0.440251,0.261273 1.932329,1.590688 1.541004,1.750381 -0.391325,0.159692 -1.502792,0.931789 -1.832828,0.967664 0.704498,0.87431 1.032757,0.457722 3.052262,1.102234 -0.688781,0.169487 -1.520279,0.397055 -1.242335,0.649561 0.605381,0.549975 0.90257,-0.845503 2.141166,1.970202 -2.751712,-2.179938 -2.726856,-0.457166 -4.554477,-0.828245 -1.821334,-0.127931 -3.313345,0.236472 -2.623362,-2.989185 0.0075,-0.675219 0.406895,-1.953706 0.176146,-2.934347 -0.23075,-0.980641 -0.271578,0.02469 -0.271578,0.02469 z" />
    <path
       style="fill:#e0ffff;fill-opacity:1;stroke:none;stroke-width:0.529167;stroke-linecap:round;stroke-opacity:1"
       d="m 16.194954,9.3491293 c 0,0 -0.105221,1.4293877 0.442514,1.0828107 0.396936,-0.251161 2.703691,0.838747 1.970262,1.929096 -1.061864,1.113186 -3.123709,0.204266 -2.751572,0.458619 0.771682,0.527439 0.252188,0.691129 0.482322,1.15997 0.126434,0.257579 1.748664,1.170316 1.762219,1.342019 0.01526,0.193268 -0.908257,0.716521 -1.112219,0.872827 -0.224721,0.172214 -0.966325,0.274687 -0.981602,0.689226 0.09533,0.247311 0.651033,0.300451 0.713992,0.48147 0.131585,0.378328 2.121059,1.212295 2.104053,1.362148 -0.01902,0.16762 -2.540079,-0.213613 -2.757872,-0.222333 -0.12124,-0.0049 -0.274329,-0.02806 -0.460439,-0.05966 -0.164833,-0.141094 -0.292181,0.01616 -0.391269,-0.392241 -0.278032,-0.909995 -0.07938,-1.038966 0.243737,-1.363031 -0.08867,-0.192534 0.07848,-0.323795 -0.01638,-0.757499 -0.09486,-0.433703 -0.130778,-1.046405 -0.138587,-1.285587 0.439078,-0.440547 0.257279,-0.547196 0.0089,-0.964037 -0.03427,-0.569004 -0.106085,-1.247501 -0.08777,-1.743967 l 0.08677,-1.651595 c -0.19777,-0.8890425 -0.279268,-1.8768261 0.003,-2.6611449 0.119657,0.1546727 1.104887,-0.4234849 1.413612,-0.1323246 0.09568,0.090238 2.117994,0.032641 2.037807,0.3375781 -0.04446,0.1690555 -1.836772,0.7685343 -1.957213,1.0263645 -0.0885,0.1894508 -0.477456,0.2462994 -0.614308,0.4912932 z"
       id="path9522"
       sodipodi:nodetypes="cscsssscssscccscccccssscc" />
    <path
       style="fill:#9effff;stroke:none;stroke-width:0.264583;stroke-linecap:round;stroke-opacity:1"
       d="m 24.985707,13.81901 c 0.05532,-0.07802 -0.03106,-0.247027 -0.02397,-0.394164 0.0023,-0.140145 -0.02464,-0.32013 0.0083,-0.487754 0.05965,-0.158327 0.03918,-0.345192 0.04856,-0.535691 -0.06859,-0.207425 -0.21126,-0.418057 -0.295542,-0.630162 0.03106,-0.179711 0.165095,-0.308152 0.09278,-0.525244 -0.0025,-0.182362 0.116285,-0.332119 0.07648,-0.486011 0.0014,-0.172889 -0.04403,-0.313121 0.01252,-0.425212 -0.08276,-0.170127 0.109944,-0.235223 0.17164,-0.281008 0.05228,-0.01741 0.09866,-0.01159 0.05633,-0.02298 -0.116651,-0.2143054 0.215407,-0.3306617 0.122382,-0.5190074 -0.05214,-0.1854611 -0.0771,-0.3972299 -0.106587,-0.566206 -0.03264,-0.1493725 -0.05059,-0.3333461 -0.04593,-0.4345568 -0.127149,-0.1477233 -0.260722,-0.3000692 -0.194839,-0.3645006 0.13936,-0.094401 0.04976,-0.2044568 0.08272,-0.3350052 0.04437,-0.1062521 0.0084,-0.2373873 0.07052,-0.3324116 0.100301,-0.081571 0.156424,-0.1929955 0.276735,-0.2805565 0.09198,-0.071387 0.28774,-0.1266133 0.37411,-0.200025 0.01057,-0.083607 0.328727,-0.070047 0.425887,-0.128135 -0.01431,-0.088477 0.605548,-0.1416231 0.72386,-0.2054481 0.195447,-0.061942 -0.04869,-0.09589 0.15694,-0.160461 0.06617,-0.059812 -0.222399,-0.1247331 -0.152288,-0.1887667 0.255563,-0.077482 0.187999,-0.2084574 0.40608,-0.2506125 0.13041,-0.023627 0.292799,-0.040746 0.409777,-0.073571 0.220527,0.017785 -0.06976,-0.086898 0.183813,-0.058581 0.246271,0.013365 0.278799,-0.01236 0.463365,-0.00804 -0.04232,-0.039928 0.136348,-0.023985 0.326771,-3.294e-4 0.153455,0.010705 0.492967,0.085631 0.640652,0.08483 0.130604,0.042084 0.204405,0.027582 0.262728,0.023149 0.189991,0.028043 0.857579,0.152937 0.987235,0.1662751 0.008,0.00369 -0.0628,-0.049071 -0.08583,-0.051446 0.25195,0.01937 0.400571,0.00812 0.632936,0.028206 0.208431,0.013513 0.50758,0.046009 0.739278,0.055973 0.22366,0.027403 0.328,-0.00853 0.5834,0.012179 -0.169841,0.117602 0.07484,0.2412968 -0.0892,0.3354787 -0.308891,0.1524383 -0.711394,0.2542273 -1.026308,0.3489608 -0.171002,0.048604 -0.399945,0.065704 -0.564821,0.1038604 -0.147577,0.056464 -0.33366,0.047295 -0.46228,0.087227 -0.120977,0.038758 -0.261278,0.056792 -0.359258,0.081415 -0.115605,0.031548 -0.101563,0.070495 -0.164699,0.1073809 -0.02626,0.026438 -0.67648,-0.023228 -0.643898,0.015495 -0.04707,0.036443 0.51344,0.180899 0.86883,0.2943879 0.121228,0.042188 0.135308,0.036461 0.206532,0.061491 0.278219,0.1005626 0.603879,0.22194 0.747781,0.2815221 0.126545,0.06793 0.285908,0.1172643 0.268349,0.1593822 0.163333,0.1140889 0.582488,0.2099968 0.468254,0.2650678 -0.137285,0.1008794 0.105308,0.1823669 -0.139317,0.2633664 -0.190674,0.043383 -0.232236,0.1452735 -0.50589,0.187536 -0.1721,0.026107 -0.37677,0.046188 -0.603448,0.067809 -0.168208,0.016093 -0.319002,0.048495 -0.483369,0.062753 -0.150341,0.032758 -0.331181,0.01413 -0.554665,0.039386 -0.198401,0.026716 -0.254835,0.07161 -0.350567,0.1146216 -0.210338,0.030017 -0.394582,0.055382 -0.598189,0.088952 -0.246787,0.00554 -0.237184,0.04523 -0.289723,0.094714 -0.09664,0.044949 -0.265202,0.076819 -0.287766,0.1279969 0.15443,0.070404 0.241106,0.1358314 0.324131,0.2049163 0.129527,0.078545 0.330404,0.1469295 0.462861,0.2528131 0.08017,0.058572 0.21573,0.1236124 0.261435,0.1794474 -0.0012,0.06791 -0.01299,0.153425 0.04643,0.2287 0.0423,0.03616 0.162977,0.07804 0.289266,0.107417 0.161661,0.04757 0.418737,0.05706 0.421988,0.0772 0.176366,0.0336 0.437964,0.102973 0.675256,0.161469 0.103877,0.03027 0.289771,0.02605 0.196379,0.03383 0.160001,0.04561 0.210807,0.07894 0.344918,0.160579 0.226393,0.112139 0.103837,0.224772 -0.08101,0.419918 -0.06625,0.112826 -0.03547,0.280512 -0.23638,0.430848 -0.118407,0.04654 -0.09,0.141209 -0.0083,0.167445 0.02007,0.01369 0.0561,0.02563 0.207859,0.01657 0.139422,-1.85e-4 0.728233,0.05065 1.010076,0.09441 0.270798,0.03462 0.312161,0.02524 0.365042,0.07698 0.06041,0.07821 0.143961,0.137431 0.188851,0.242452 0.173092,0.10949 0.111297,0.203801 0.117991,0.300102 0.04073,0.122786 0.133871,0.229372 0.123175,0.328363 0.03645,0.119271 0.116657,0.187698 0.217153,0.286025 0.133677,0.116136 0.11272,0.217224 0.287396,0.260082 -0.06407,0.008 -0.284696,0.02033 -0.414741,0.02101 -0.14692,0.0027 0.0017,0.08407 -0.08508,0.07469 -0.146105,-0.0073 -0.252607,0.04733 -0.473451,-0.01028 -0.193641,-0.03982 -0.329429,-0.0508 -0.556109,-0.105219 -0.162104,-0.04292 -0.419523,-0.106025 -0.68072,-0.159244 -0.175362,-0.04432 -0.125304,-0.07378 -0.188232,-0.09222 -0.208157,-0.06311 -0.426292,-0.120748 -0.542158,-0.124679 -0.08446,-0.0072 -0.29998,0.0074 -0.313269,0.02328 -0.02687,0.02189 -0.427078,-0.06553 -0.326751,-0.01017 0.0336,0.201529 0.0091,0.311729 -0.0074,0.398261 -0.119643,0.05902 -0.555129,-0.0018 -0.686271,0.02822 -0.135872,0.025 -0.0034,0.137291 -0.158391,0.215729 -0.0083,0.04671 -0.135293,0.109046 -0.01596,0.201616 0.07378,0.09723 -0.246671,0.162328 -0.153883,0.268418 0.130407,0.176385 0.51612,0.369678 0.832923,0.561104 0.268097,0.131331 0.322278,0.212329 0.551299,0.326778 0.151965,0.08823 0.7514,0.227985 0.866122,0.309434 0.08574,0.0804 -0.441107,0.04836 -0.540307,0.06475 -0.05573,0.02925 -0.158633,0.07778 -0.276584,0.133 -0.09841,0.064 0.04201,0.214508 -0.18603,0.278163 -0.245275,0.08649 -0.213589,0.269749 -0.370897,0.392312 -0.06756,0.120688 -0.315884,0.203417 -0.459429,0.28688 -0.05696,0.09114 -0.339308,0.08711 -0.367506,0.144782 -0.100537,0.06225 -0.234162,0.136276 -0.156141,0.146183 0.23506,0.05444 0.235057,0.07057 0.336538,0.09551 0.123631,0.03115 0.276083,0.09276 0.367666,0.10057 0.05877,0.0096 0.337873,0.04396 0.396366,0.04911 0.05509,0.0078 0.332708,0.08924 0.382398,0.09422 0.05305,0.01218 0.378375,0.153452 0.394534,0.15284 0.05052,0.0043 -0.0032,-0.0053 0.02883,-0.0036 0.0899,-0.0052 0.0903,-0.0484 0.40158,-0.01871 0.100172,0.0061 0.505431,0.07545 0.691085,0.141784 0.179586,0.05136 0.281324,0.06657 0.524346,0.143697 -0.150461,0.02251 -0.311397,0.09243 -0.484734,0.133755 -0.152364,0.06825 -0.395215,0.150092 -0.514212,0.235079 -0.181137,0.06589 -0.315325,0.164623 -0.405068,0.237679 -0.165936,0.06419 -0.250416,0.16059 -0.343468,0.20977 -0.05713,0.0968 -0.217864,0.04356 -0.282605,0.09378 0.137835,0.109337 0.272028,0.153249 0.365958,0.201693 0.08692,0.03707 -0.02493,-0.02016 0.15072,0.0486 0.153606,0.05342 0.264243,0.09417 0.374554,0.129325 0.03753,0.01328 0.182852,0.05586 0.154478,0.03827 0.116961,0.03687 0.267583,0.131283 0.380418,0.184976 0.159392,0.08163 0.261237,0.17913 0.48088,0.325556 0.161047,0.124153 0.509327,0.36413 0.780775,0.546916 -0.318195,-0.04597 -0.432692,-0.04572 -0.639945,-0.07244 -0.211046,-0.02819 -0.219437,-0.01955 -0.471789,-0.03138 -0.289506,-0.01979 -0.456976,-0.06039 -0.722439,-0.08237 -0.09288,-0.0037 -0.178661,0.0042 -0.262881,0.011 -0.192351,-0.01511 0.164956,0.100023 0.01116,0.06959 -0.229568,0.0088 -0.454177,0.02368 -0.690134,0.02853 -0.09668,0.0064 -0.285308,-0.0066 -0.403549,-0.01005 -0.1559,-9.7e-4 8.33e-4,0.05739 -0.07775,0.05442 -0.178433,-0.01 -0.111247,0.04998 -0.214181,0.04844 -0.159701,-0.02108 -0.420642,-0.04803 -0.649037,-0.109139 -0.104484,-0.02219 -0.231977,-0.041 -0.31104,-0.064 -0.116962,-0.03215 -0.507677,-0.173298 -0.610162,-0.192275 -0.115405,0.0048 -0.514087,-0.07962 -0.646983,-0.08058 -0.120509,-0.04878 -0.05375,0.0029 -0.146042,0.0018 -0.08431,0.0093 -0.243681,0.0033 -0.362241,0.0023 -0.139942,-0.0039 -0.194251,0.01937 -0.365663,-0.01218 -0.08082,0.0014 -0.181394,-0.01819 -0.275167,-0.03812 -0.10868,-0.01751 0.04247,0.01766 -0.04889,-0.02567 -0.120466,-0.06549 -0.225715,-0.175385 -0.361359,-0.355178 -0.0611,-0.08054 0.267248,-0.11314 0.238366,-0.196176 -0.05541,-0.143331 -0.159636,-0.325095 -0.225943,-0.524057 -0.02883,-0.11632 -0.0992,-0.256142 -0.150357,-0.404846 -0.101451,-0.193163 -0.06034,-0.311747 -0.0672,-0.501528 -0.07798,-0.234698 -0.08365,-0.512674 0.02064,-0.757391 0.0082,-0.09573 -0.177774,-0.2469 -0.105654,-0.348568 -0.02222,-0.120449 -0.0041,-0.23408 -0.0073,-0.365632 0.01921,-0.118488 0.07839,-0.242974 0.123581,-0.381348 0.05487,-0.153268 -0.232555,-0.33219 -0.315267,-0.50059 -0.05388,-0.171032 0.05988,-0.304749 0.03035,-0.47158 -0.03697,-0.167994 0.47047,-0.227738 0.490042,-0.375102 0.03112,-0.142316 -0.28075,-0.326236 -0.347561,-0.474658 0.103966,0.02041 0.152968,0.04391 0.01057,0.0021 z"
       id="path9534"
       sodipodi:nodetypes="zcccscssscsssccsccczz"
       inkscape:path-effect="#path-effect9542"
       inkscape:original-d="m 24.96835,13.815445 c -0.03325,-0.980641 0.190864,-3.784451 0.190864,-3.784451 -0.611313,-2.1927815 -0.126581,-2.8882544 1.732809,-3.5931503 0.911633,-0.7209268 2.538652,-0.4203182 5.533312,-0.1767093 -1.659879,1.0363612 -3.850144,0.8521222 -2.240909,1.424098 3.295441,1.1713097 -1.946933,1.0661552 -2.275626,1.7572642 0.485113,0.254572 0.838943,0.5696544 1.146516,0.8630514 0.307573,0.293397 2.747775,0.110566 1.393706,1.359958 -0.309305,0.285394 1.00491,0.113726 1.467561,0.373324 0.46265,0.259598 0.493429,1.24629 1.288696,1.433265 -0.501018,0.39772 -3.537732,-0.744834 -3.569199,-0.372408 -0.04934,0.5839 -0.573786,0.344627 -1.014038,0.6059 -0.440251,0.261273 1.97202,1.590688 1.580695,1.750381 -0.391325,0.159692 -1.582173,1.328693 -1.912209,1.364568 1.141092,0.358335 1.588423,0.140199 3.607928,0.784711 -0.688781,0.169487 -2.075945,0.714578 -1.798001,0.967084 0.605381,0.549975 0.442255,-0.158084 2.553728,1.418135 -2.926288,-0.381811 -3.139418,0.0949 -4.967039,-0.276178 -1.821334,-0.127931 -3.313345,0.236472 -2.623362,-2.989185 0.0075,-0.675219 -0.06219,-1.929017 -0.09543,-2.909658 z" />
    <path
       style="fill:#e0ffff;fill-opacity:1;stroke:none;stroke-width:0.529167;stroke-linecap:round;stroke-opacity:1"
       d="m 26.236124,9.9699808 c -0.03289,0.2177412 2.848747,1.0353632 2.8339,1.3418032 -0.009,0.185388 -1.8142,0.143317 -1.269,0.469711 0.745773,0.44647 -1.538496,0.281225 -1.901708,0.676171 -0.632723,0.688003 0.636254,0.96583 0.482322,1.556874 -0.07232,0.277674 2.258203,0.669916 1.814591,0.975411 -0.64447,0.443816 -2.047928,0.745017 -1.920197,1.006068 0.124433,0.25431 -0.49004,0.473139 -0.505317,0.887678 0.09533,0.247311 0.349323,0.459213 0.412282,0.640232 0.131585,0.378328 2.779669,0.09486 2.762665,0.244709 -0.0096,0.08424 -1.422054,0.271991 -1.110319,0.751062 0.416213,0.639633 -1.896117,-0.01038 -2.004455,-0.01472 -0.121242,-0.0049 -0.274329,-0.02806 -0.460439,-0.05966 -0.164833,-0.141094 -0.292181,0.01616 -0.391269,-0.392241 -0.278032,-0.909995 -0.184125,-1.161169 0.138992,-1.485234 -0.08867,-0.192534 -0.07864,0.04281 -0.173498,-0.39089 -0.09486,-0.433703 -0.189868,-1.414254 -0.197677,-1.653436 0.439078,-0.440547 0.331345,-0.349687 0.08296,-0.766528 -0.03427,-0.569004 -0.155462,-1.222812 -0.137145,-1.719278 l 0.160834,-1.429397 c -0.19777,-0.8890425 -0.05707,-2.1977791 0.225237,-2.9820979 0.119657,0.1546727 0.628602,-0.5822465 0.937327,-0.2910862 0.09568,0.090238 2.841972,0.226473 2.761785,0.5314106 -0.04446,0.1690555 -2.187723,0.6096169 -2.308164,0.8674471 -0.815598,0.7496193 -0.149426,0.5857286 -0.233707,1.2359892 z"
       id="path9536"
       sodipodi:nodetypes="ccssssscsssscccscccccsscc" />
    <path
       style="fill:#9effff;stroke:none;stroke-width:0.264583;stroke-linecap:round;stroke-opacity:1"
       d="m 34.402606,13.785602 c 0.203805,-0.04461 0.117422,-0.213619 0.124514,-0.360756 0.0023,-0.140145 -0.02464,-0.32013 0.0083,-0.487754 0.05965,-0.158327 0.03918,-0.345192 0.04856,-0.535691 -0.06859,-0.207425 -0.21126,-0.418057 -0.295542,-0.630162 0.03107,-0.179711 0.165095,-0.308152 0.09278,-0.525244 -0.0025,-0.182362 0.116285,-0.332119 0.07648,-0.486011 0.0014,-0.172889 -0.04403,-0.313121 0.01252,-0.425212 -0.08276,-0.170127 0.109944,-0.235223 0.17164,-0.281008 0.05228,-0.01741 0.09866,-0.01159 0.05633,-0.02298 C 34.581516,9.8164826 34.91423,9.7020945 34.822397,9.5173271 34.771486,9.3354157 34.748526,9.1294268 34.721653,8.9678959 34.691382,8.8259791 34.67607,8.650444 34.68353,8.558359 34.55905,8.4200648 34.428121,8.277578 34.496535,8.2232369 c 0.142604,-0.08799 0.05726,-0.1905157 0.09531,-0.3129198 0.04887,-0.096013 0.01788,-0.2164804 0.08537,-0.3009177 0.105635,-0.068861 0.167122,-0.1678893 0.292578,-0.2439601 0.09413,-0.060513 0.291256,-0.1056317 0.378247,-0.1699228 0.01124,-0.076211 0.329857,-0.055883 0.427082,-0.1079892 -0.01236,-0.082137 0.608936,-0.130055 0.728086,-0.1901055 0.197053,-0.058076 -0.04606,-0.090019 0.160137,-0.1548046 0.06186,-0.083835 -0.230903,-0.1744762 -0.165021,-0.2655626 0.231004,-0.1163045 0.128936,-0.2972602 0.302834,-0.396315 0.127128,-0.07095 0.286999,-0.1351048 0.402033,-0.2140406 0.222758,-0.015079 -0.06465,-0.1519507 0.192359,-0.1549621 0.244836,-0.024604 0.275492,-0.087506 0.457857,-0.1190981 -0.04361,-0.06436 0.13379,-0.07223 0.322966,-0.071628 0.14754,-0.012825 0.481607,0.039334 0.624177,0.016677 0.12257,0.030267 0.188788,0.00428 0.239868,-0.011308 0.175339,0.00611 0.830485,0.110924 0.948829,0.1058058 0.0054,0.00344 -0.068,-0.049565 -0.09363,-0.052185 0.204915,-0.011605 0.331038,-0.046628 0.535091,-0.047712 0.192096,-0.018975 0.468235,0.00108 0.664058,-0.00789 0.336208,0.00868 0.436395,0.039862 0.596901,0.03989 0.15237,-0.00437 0.278205,-0.040048 0.534137,-0.017624 -0.150269,0.1055445 -0.378569,0.1907229 -0.536691,0.2864554 -0.156177,0.087137 -0.378078,0.1441743 -0.545316,0.2224766 -0.153582,0.097477 -0.355476,0.1287742 -0.510167,0.2078746 -0.14561,0.078399 -0.322406,0.1349772 -0.469745,0.1959727 -0.162778,0.068245 -0.212149,0.1407891 -0.356208,0.2072782 -0.136554,0.076553 -0.890395,0.074174 -0.95148,0.1578595 -0.186623,0.1596372 0.111168,0.3859422 0.473872,0.5914104 0.03978,0.014423 -0.06213,8.187e-4 -0.09323,-0.00343 0.04345,0.025347 0.160153,0.1303258 0.208751,0.1541536 0.183777,0.068016 0.18099,0.073514 0.169728,0.1177273 0.332342,0.1551938 0.961282,0.2919942 1.081315,0.3858505 0.0045,0.054725 0.527248,0.1062185 0.637168,0.164824 0.710734,0.4528917 0.672285,0.7319024 0.04493,0.8493271 -0.03596,0.010797 -0.09824,0.015614 -0.182301,0.021319 -0.05073,0.0045 -0.08554,0.024495 -0.138106,0.025284 -0.06806,0.016956 -0.168287,-0.01779 -0.31907,-0.00993 -0.151533,0.00777 -0.16721,0.032055 -0.235117,0.052239 -0.187118,0.01244 -0.378158,0.013162 -0.621609,0.016561 -0.1892,-0.00238 -0.390298,3.638e-4 -0.453318,0.015143 -0.195357,-6.207e-4 -0.389721,0.00494 -0.55155,0.011307 -0.164555,0.00908 -0.206731,0.02776 -0.395594,0.033577 -0.182898,0.01191 -0.394263,-0.046193 -0.570928,-0.027648 -0.200041,0.00151 -0.187841,0.049951 -0.279457,0.079097 -0.08208,0.04797 -0.120205,0.1017449 -0.135357,0.1449082 0.116419,0.064024 0.219311,0.127154 0.323882,0.197017 0.191682,0.1073047 0.729357,0.1823465 0.753537,0.2303213 0.126027,0.092803 -0.187041,0.1264211 -0.243144,0.2076511 0.142852,0.05988 0.373983,0.240147 0.412336,0.288518 0.03373,0.03899 0.05778,0.0314 0.24669,0.0419 0.177123,0.0062 0.215006,-0.02943 0.368631,-0.04679 0.220955,-0.014 0.509355,-0.02062 0.67024,-0.04533 0.0237,-0.02384 0.09908,-0.02495 0.211584,-0.01385 0.224726,0.02455 0.309365,0.118491 0.156548,0.268734 -0.09683,0.101282 -0.294111,0.195056 -0.475644,0.411708 -0.01138,0.06268 0.205915,0.159571 0.241335,0.22606 0.05007,0.04789 0.0551,0.05791 0.09825,0.09785 0.143824,0.116904 0.368518,0.203179 0.515405,0.299888 0.120953,0.06152 0.403179,0.197184 0.554453,0.26584 0.08141,0.07017 0.139809,0.10513 0.253838,0.169137 0.05984,0.04603 0.191324,0.143369 0.348834,0.212752 0.04747,0.02432 0.242429,0.110751 0.28357,0.115863 0.200677,0.04055 0.261318,0.124167 0.337745,0.139357 0.119099,0.04518 0.217913,0.107242 0.334679,0.140393 0.142995,0.03541 0.01224,-0.01358 0.188489,0.02732 0.0062,0.0541 -0.111269,0.08498 -0.264706,0.117603 -0.09964,0.02407 0.0071,0.05877 -0.02091,0.09702 -0.176645,0.03387 -0.392052,0.04914 -0.569532,0.08663 -0.234899,0.0049 -0.271394,0.07335 -0.527193,0.06942 -0.299337,-0.02156 -0.240376,0.06322 -0.450004,0.0594 -0.239862,0.003 -0.698058,-0.08468 -0.797076,-0.05714 -0.11576,-0.0058 -0.207147,-0.0069 -0.28279,-0.0052 -0.175597,0.01377 -0.138452,0.05514 -0.241074,0.07117 -0.220414,0.02455 0.125743,0.114332 0.113752,0.156384 -0.05084,0.111735 -0.01245,0.21567 -0.118325,0.267962 -0.134759,0.06059 -0.324014,0.07893 -0.520703,0.08036 -0.103385,0.01081 -0.333645,-0.01889 -0.671276,-0.05114 -0.07525,0.0044 -0.110239,0.0074 -0.204699,0.0048 -0.157193,0.0073 -0.363407,2.46e-4 -0.487011,0.06847 -0.01062,0.05381 0.07991,0.192248 0.112795,0.287718 0.05855,0.0832 0.531764,0.305773 0.626495,0.40207 -0.01219,0.06371 0.13507,0.139488 0.212105,0.208391 0.102311,0.118069 0.348982,0.261782 0.489056,0.392808 0.158375,0.131995 0.434017,0.316906 0.621853,0.409206 0.05633,0.09206 -0.3176,0.06569 -0.512534,0.08176 -0.01442,0.03217 -0.06191,0.105534 -0.161825,0.169749 -0.08099,0.07804 -0.102056,0.210468 -0.267857,0.310767 -0.118278,0.07723 -0.101373,0.24677 -0.303699,0.321985 -0.156533,0.09709 -0.179797,0.26325 -0.415508,0.30409 -0.135192,0.08486 -0.168427,0.167922 -0.294001,0.214032 -0.106362,0.04571 -0.404105,0.03441 -0.455096,0.04368 0.0784,0.03731 0.08655,0.04544 0.31736,0.08439 0.15363,0.03248 0.348777,0.08001 0.534033,0.113245 0.0801,0.01159 0.172477,0.03872 0.261709,0.05563 0.164446,0.02163 0.226387,0.09145 0.336742,0.0978 0.0075,-0.0011 0.09155,0.01613 0.185302,0.01667 0.136503,-0.0023 0.231027,0.02752 0.432158,0.05632 0.163254,0.03258 0.33366,0.07139 0.552822,0.08332 0.200177,0.02774 0.53319,0.103917 0.591952,0.119928 0.194928,0.04676 0.410534,0.181433 0.611393,0.246771 -0.123641,0.02546 -0.638745,-0.0681 -0.849213,-0.03379 -0.102492,0.03412 -0.268592,0.03653 -0.350738,0.08716 -0.188107,0.08774 -0.08306,0.310232 -0.183933,0.422893 -0.171415,0.119238 -0.148227,0.338727 -0.209403,0.41875 -0.06293,0.05109 -0.24832,-0.02179 -0.223797,0.014 0.101029,0.109748 -0.03677,0.06965 0.01981,0.105758 0.01154,0.06388 0.254873,0.127307 0.350833,0.189492 0.0054,0.01236 0.267145,0.0284 0.361419,0.07665 -0.02474,-0.01818 0.288721,0.07365 0.296883,0.07593 0.07139,0.046 0.190786,0.06875 0.09129,0.09391 0.06551,0.110277 0.211113,0.364395 0.288803,0.601987 0.0316,0.152823 0.09623,0.327357 0.149961,0.534832 0.07848,0.241971 0.234294,0.554681 0.387284,0.940963 -0.333575,-0.200218 -0.329231,-0.313175 -0.538322,-0.462871 -0.304668,-0.201685 -0.309301,-0.281087 -0.446988,-0.382464 -0.269173,-0.15635 -0.550869,-0.250642 -0.77248,-0.341535 -0.181667,-0.07146 -0.224397,-0.06667 -0.337508,-0.09249 -0.13658,-0.03209 -0.187539,-0.05449 -0.209505,-0.04129 -0.105502,-0.0089 -0.255227,-0.01785 -0.3899,-0.02243 -0.169231,-0.0167 -0.05009,-0.01273 -0.14305,-0.01875 -0.09383,0.0019 -0.264197,-0.0083 -0.410997,-0.0123 -0.122496,-0.01829 -0.0199,0.06428 -0.134814,0.05791 -0.04884,0.02099 -0.340935,-0.03165 -0.553889,-0.07207 -0.164862,-0.03269 -0.122566,0.06311 -0.341686,0.01432 -0.16046,-0.01941 -0.289273,-0.02917 -0.459608,-0.04662 -0.17094,-0.01727 0.05098,0.02929 -0.08319,0.03903 -0.266298,-0.01973 -0.545494,-0.04826 -0.774244,-0.08405 -0.10497,-0.01513 -0.250614,-0.05069 -0.380544,-0.09457 -0.103831,-0.03771 -0.212213,-0.06974 -0.275675,-0.102784 -0.161184,-0.06908 -0.403169,-0.159614 -0.468379,-0.234639 0.01751,-0.03224 -0.324348,-0.133607 -0.356841,-0.175677 -0.0074,-0.03872 -0.01913,-0.05942 -0.08311,-0.116384 -0.111338,-0.138708 -0.338292,-0.301282 -0.25668,-0.473676 0.01219,-0.145182 0.247003,-0.309565 0.291633,-0.497471 0.155382,-0.158496 0.196139,-0.330614 0.202332,-0.538232 -0.04754,-0.24222 -0.174657,-0.509211 -0.127083,-0.787448 0.06882,-0.08327 0.01828,-0.196759 0.01486,-0.313823 0.04476,-0.113399 0.433087,-0.124092 0.459292,-0.250566 -0.0256,-0.197993 -0.07595,-0.415405 -0.15941,-0.64847 -0.124093,-0.143542 -0.116697,-0.289085 -0.136674,-0.419489 -0.01899,-0.136289 -0.03823,-0.269835 -0.05397,-0.395819 -0.06415,-0.156511 -0.08773,-0.31908 -0.135982,-0.494897 -0.03182,-0.145291 -0.107867,-0.235603 -0.129879,-0.373601 0.04596,0.0198 -0.05484,-0.02498 -0.0456,-0.02648 z"
       id="path9548"
       sodipodi:nodetypes="zcccscssscsssccscccz"
       inkscape:path-effect="#path-effect9556"
       inkscape:original-d="m 34.533735,13.815445 c -0.03325,-0.980641 0.190864,-3.784451 0.190864,-3.784451 -0.611313,-2.1927815 -0.0472,-2.650112 1.81219,-3.3550079 0.911633,-1.1178308 2.697413,-1.3728877 5.692073,-1.1292788 -1.659879,1.0363612 -4.022226,1.4068114 -2.479051,2.1385251 4.195038,1.9891248 -1.790513,1.2083552 -2.275626,1.7572642 0.485113,0.254572 0.838943,0.5696544 1.146516,0.8630514 0.307573,0.293397 2.668394,-0.5641711 1.314325,0.685221 -0.309305,0.285394 1.084291,0.788463 1.546942,1.048061 0.46265,0.259598 1.049095,0.492172 1.844362,0.679147 -0.501018,0.39772 -3.458352,0.168046 -3.489819,0.540472 -0.04934,0.5839 -1.208832,0.185865 -1.649084,0.447138 -0.440251,0.261273 1.97202,1.590688 1.580695,1.750381 -0.391325,0.159692 -1.582173,1.328693 -1.912209,1.364568 1.141092,0.358335 1.588423,0.140199 3.607928,0.784711 -0.688781,0.169487 -2.075945,0.714578 -1.798001,0.967084 0.605381,0.549975 0.704118,-0.210457 1.942714,2.605248 -2.751712,-2.179938 -2.528404,-1.092212 -4.356025,-1.463291 -1.821334,-0.127931 -3.313345,0.236472 -2.623362,-2.989185 0.0075,-0.675219 -0.06219,-1.929017 -0.09543,-2.909658 z" />
    <path
       style="fill:#e0ffff;fill-opacity:1;stroke:none;stroke-width:0.529167;stroke-linecap:round;stroke-opacity:1"
       d="m 35.524176,9.3491293 c 0,0 0.182111,0.084694 0.0853,0.7255967 -0.03289,0.217741 2.778917,1.384514 2.76407,1.690954 -0.0178,0.367426 -3.19502,0.141802 -3.188166,0.657071 0.01243,0.934629 0.252188,1.088033 0.482322,1.556874 0.126434,0.257579 1.748664,1.170316 1.762219,1.342019 0.01526,0.193268 -1.384542,0.518069 -1.588504,0.674375 -0.224721,0.172214 -0.49004,0.473139 -0.505317,0.887678 0.09533,0.247311 0.174748,0.459213 0.237707,0.640232 0.131585,0.378328 2.081369,0.7757 2.064363,0.925553 -0.01902,0.16762 -2.024104,0.06422 -2.241897,0.0555 -0.12124,-0.0049 -0.274329,-0.02806 -0.460439,-0.05966 -0.164833,-0.141094 -0.292181,0.01616 -0.391269,-0.392241 -0.278032,-0.909995 -0.07938,-1.038966 0.243737,-1.363031 -0.08867,-0.192534 0.07848,-0.323795 -0.01638,-0.757499 -0.09486,-0.433703 -0.451731,-1.169848 -0.45954,-1.40903 0.439078,-0.440547 0.331345,-0.349687 0.08296,-0.766528 -0.03427,-0.569004 -0.155462,-1.222812 -0.137145,-1.719278 l 0.160834,-1.429397 c -0.19777,-0.8890425 -0.05707,-2.1977791 0.225237,-2.9820979 0.119657,0.1546727 1.104887,-0.4234849 1.413612,-0.1323246 0.09568,0.090238 2.435517,0.4692348 2.35533,0.7741724 -0.04446,0.1690555 -2.432128,0.1731784 -2.552569,0.4310086 -0.0885,0.1894508 -0.199623,0.405061 -0.336475,0.6500548 z"
       id="path9550"
       sodipodi:nodetypes="cscsssscssscccscccccsssc" />
    <path
       style="fill:#ffcfe0;fill-opacity:1;stroke:none;stroke-width:0.264583;stroke-linecap:round;stroke-opacity:1"
       d="m 5.5932831,30.431658 c 0.1582111,-0.07109 0.071829,-0.240097 0.07892,-0.387234 0.00228,-0.140145 -0.024641,-0.32013 0.00828,-0.487754 0.059654,-0.158327 0.039181,-0.345192 0.048561,-0.535691 -0.06859,-0.207425 -0.2112597,-0.418057 -0.2955423,-0.630162 0.031065,-0.179711 0.1650949,-0.308152 0.092778,-0.525244 -0.00245,-0.182362 0.1162839,-0.332119 0.076477,-0.48601 0.00139,-0.17289 -0.044034,-0.313122 0.01252,-0.425213 -0.082762,-0.170127 0.1099435,-0.235223 0.1716399,-0.281008 0.05228,-0.01741 0.098662,-0.01159 0.056328,-0.02298 -0.1166509,-0.214305 0.2160635,-0.328693 0.1242304,-0.513461 -0.050911,-0.181911 -0.073871,-0.3879 -0.1007443,-0.549431 -0.030271,-0.141917 -0.045583,-0.317452 -0.038123,-0.409537 -0.1244803,-0.138294 -0.2554097,-0.280781 -0.1869951,-0.335122 0.1426038,-0.08799 0.057262,-0.190516 0.095307,-0.31292 0.048875,-0.09601 0.017882,-0.21648 0.085372,-0.300917 0.1056344,-0.06886 0.1671218,-0.16789 0.2925781,-0.243961 0.094127,-0.06051 0.291256,-0.105631 0.3782463,-0.169922 0.01124,-0.07621 0.3298577,-0.05588 0.4270823,-0.10799 -0.012364,-0.08214 0.608936,-0.130055 0.7280864,-0.190105 0.1970534,-0.05808 -0.046062,-0.09002 0.1601382,-0.154805 0.061856,-0.08384 -0.2309029,-0.174476 -0.1650215,-0.265563 0.2310043,-0.116304 0.1289363,-0.29726 0.3028339,-0.396315 0.1271283,-0.07095 0.2869989,-0.135104 0.402033,-0.21404 0.2227582,-0.01508 -0.06465,-0.151951 0.1923589,-0.154962 0.2448369,-0.0246 0.2754921,-0.08751 0.4578576,-0.119099 -0.043608,-0.06436 0.1337901,-0.07223 0.3229663,-0.07163 0.1475396,-0.01282 0.4816063,0.03933 0.6241768,0.01668 0.1225698,0.03027 0.1887878,0.0043 0.2398678,-0.01131 0.175339,0.0061 0.830485,0.110924 0.94883,0.105806 0.0054,0.0034 -0.06801,-0.04957 -0.09363,-0.05219 0.204915,-0.0116 0.331038,-0.04663 0.535091,-0.04771 0.192096,-0.01897 0.468235,0.0011 0.664058,-0.0079 0.336208,0.0087 0.436395,0.03986 0.596901,0.03989 0.15237,-0.0044 0.278205,-0.04005 0.534137,-0.01762 -0.150269,0.105544 -0.378569,0.190723 -0.536691,0.286455 -0.156177,0.08714 -0.378078,0.144175 -0.545316,0.222477 -0.153582,0.09748 -0.355476,0.128774 -0.510167,0.207875 -0.14561,0.0784 -0.322406,0.134977 -0.469745,0.195972 -0.162778,0.06825 -0.212148,0.14079 -0.356208,0.207279 -0.136554,0.07655 -0.890395,0.07417 -0.95148,0.157859 -0.1866233,0.159637 0.111168,0.385942 0.473872,0.59141 0.03978,0.01442 -0.06213,8.19e-4 -0.09323,-0.0034 0.04345,0.02535 0.160153,0.130326 0.208751,0.154154 0.183777,0.06802 0.18099,0.07351 0.169728,0.117727 0.332342,0.155193 0.961282,0.291994 1.081315,0.38585 0.0045,0.05472 0.527248,0.106219 0.637168,0.164824 0.710734,0.452892 0.672285,0.731903 0.04493,0.849328 -0.03596,0.0108 -0.09824,0.01561 -0.182301,0.02132 -0.05073,0.0045 -0.08554,0.02449 -0.138106,0.02528 -0.06806,0.01696 -0.168287,-0.01779 -0.31907,-0.0099 -0.151533,0.0078 -0.16721,0.03205 -0.235117,0.05224 -0.187118,0.01244 -0.378158,0.01316 -0.621608,0.01656 -0.189201,-0.0024 -0.390299,3.64e-4 -0.453319,0.01514 -0.195357,-6.21e-4 -0.389721,0.0049 -0.55155,0.01131 -0.1645549,0.0091 -0.2067308,0.02776 -0.3955936,0.03358 -0.1828978,0.01191 -0.3942635,-0.04619 -0.5709286,-0.02765 -0.2000403,0.0015 -0.1878403,0.04995 -0.2794561,0.0791 -0.082085,0.04797 -0.1202051,0.101745 -0.1353568,0.144908 0.1164183,0.06402 0.2193103,0.127154 0.3238813,0.197017 0.1916823,0.107305 0.7293573,0.182346 0.7535373,0.230321 0.1260263,0.0928 -0.1870408,0.126421 -0.2431443,0.207652 0.1428521,0.05988 0.3739827,0.240146 0.4123361,0.288517 0.033733,0.03899 0.057781,0.0314 0.2466897,0.0419 0.177123,0.0062 0.215006,-0.02943 0.368631,-0.04679 0.220955,-0.014 0.509355,-0.02062 0.67024,-0.04533 0.0237,-0.02384 0.09909,-0.02495 0.211584,-0.01385 0.224726,0.02455 0.309365,0.11849 0.156548,0.268733 -0.09683,0.101282 -0.294111,0.195056 -0.475644,0.411708 -0.01138,0.06268 0.205915,0.159571 0.241335,0.22606 0.05007,0.04789 0.0551,0.05791 0.09825,0.09785 0.143824,0.116904 0.368518,0.203179 0.515405,0.299888 0.120953,0.06152 0.403179,0.197184 0.554453,0.26584 0.08141,0.07017 0.139809,0.10513 0.253838,0.169137 0.05984,0.04603 0.191324,0.143369 0.348834,0.212752 0.04747,0.02432 0.242429,0.110751 0.28357,0.115863 0.200677,0.04055 0.261318,0.124167 0.337745,0.139357 0.119099,0.04518 0.217913,0.107242 0.334679,0.140393 0.142995,0.03541 0.01224,-0.01358 0.188489,0.02732 0.0062,0.0541 -0.111269,0.08498 -0.264706,0.117603 -0.09964,0.02407 0.0071,0.05877 -0.02091,0.09702 -0.176645,0.03387 -0.392052,0.04914 -0.569532,0.08663 -0.234899,0.0049 -0.271394,0.07335 -0.527193,0.06942 -0.299337,-0.02156 -0.240376,0.06322 -0.450004,0.0594 -0.239862,0.003 -0.698058,-0.08468 -0.797076,-0.05714 -0.11576,-0.0058 -0.207147,-0.0069 -0.28279,-0.0052 -0.175597,0.01377 -0.138452,0.05514 -0.241074,0.07117 -0.220414,0.02455 0.125743,0.114332 0.113752,0.156384 -0.05084,0.111735 -0.01245,0.21567 -0.118325,0.267962 -0.134759,0.06059 -0.324014,0.07893 -0.520703,0.08036 -0.103384,0.01081 -0.333645,-0.01889 -0.6712759,-0.05114 -0.075253,0.0044 -0.1102381,0.0074 -0.2046987,0.0048 -0.1571925,0.0073 -0.363407,2.46e-4 -0.4870104,0.06847 -0.010619,0.05381 0.079907,0.192248 0.1127945,0.287718 0.058551,0.0832 0.5317635,0.305773 0.6264946,0.40207 -0.012185,0.06371 0.1350699,0.139488 0.2121059,0.208391 0.102311,0.118068 0.348981,0.261782 0.489055,0.392808 0.158375,0.131995 0.434017,0.316906 0.621853,0.409206 0.05633,0.09207 -0.3176,0.06569 -0.512534,0.08176 -0.01442,0.03217 -0.06191,0.105534 -0.161825,0.169749 -0.08099,0.07804 -0.102055,0.210468 -0.267857,0.310767 -0.118278,0.07723 -0.101373,0.24677 -0.3036989,0.321985 -0.1565326,0.09709 -0.1797967,0.26325 -0.4155079,0.30409 -0.1351922,0.08486 -0.1684269,0.167922 -0.2940007,0.214032 -0.106362,0.04571 -0.4041057,0.03441 -0.4550962,0.04368 0.078398,0.03731 0.086548,0.04544 0.3173595,0.08439 0.1536305,0.03248 0.3487776,0.08001 0.534033,0.113245 0.080096,0.01159 0.1724777,0.03872 0.2617093,0.05563 0.1644459,0.02163 0.2263869,0.09145 0.3367419,0.0978 0.0075,-0.0011 0.09155,0.01613 0.185302,0.01667 0.136503,-0.0023 0.231027,0.02752 0.432158,0.05632 0.163254,0.03258 0.33366,0.07139 0.552822,0.08332 0.200177,0.02774 0.53319,0.103917 0.591952,0.119928 0.194928,0.04676 0.410534,0.181433 0.611393,0.246771 -0.123641,0.02546 -0.638745,-0.0681 -0.849213,-0.03379 -0.102492,0.03412 -0.268592,0.03653 -0.350738,0.08716 -0.188107,0.08774 -0.08306,0.310232 -0.183933,0.422893 -0.171415,0.119238 -0.148227,0.338727 -0.209403,0.41875 -0.06293,0.05109 -0.24832,-0.02179 -0.223797,0.014 0.101029,0.109748 -0.03678,0.06965 0.01981,0.105758 0.01154,0.06388 0.254873,0.127307 0.350833,0.189492 0.0054,0.01236 0.267145,0.0284 0.361419,0.07665 -0.02474,-0.01818 0.288721,0.07365 0.296883,0.07593 0.07139,0.046 0.190786,0.06875 0.09129,0.09391 0.06551,0.110277 0.211113,0.364395 0.288803,0.601987 0.0316,0.152823 0.09623,0.327357 0.149961,0.534832 0.07848,0.241971 0.234294,0.554681 0.387284,0.940963 -0.333575,-0.200218 -0.329231,-0.313175 -0.538322,-0.462871 -0.304668,-0.201685 -0.309301,-0.281087 -0.446988,-0.382464 -0.269173,-0.15635 -0.550869,-0.250642 -0.77248,-0.341535 -0.181667,-0.07146 -0.224397,-0.06667 -0.337508,-0.09249 -0.13658,-0.03209 -0.187539,-0.05449 -0.209505,-0.04129 -0.105502,-0.0089 -0.255227,-0.01785 -0.3899,-0.02243 -0.1692307,-0.0167 -0.05009,-0.01273 -0.1430499,-0.01875 -0.093828,0.0019 -0.2641969,-0.0083 -0.4109976,-0.0123 -0.1224952,-0.01829 -0.0199,0.06428 -0.1348133,0.05791 -0.048841,0.02099 -0.3409353,-0.03165 -0.5538894,-0.07207 -0.1648618,-0.03269 -0.1225663,0.06311 -0.3416864,0.01432 -0.1604595,-0.01941 -0.2892723,-0.02917 -0.4596074,-0.04662 -0.1709404,-0.01727 0.050982,0.02929 -0.083187,0.03903 -0.2662981,-0.01973 -0.5454944,-0.04826 -0.7742439,-0.08405 -0.10497,-0.01513 -0.2506144,-0.05069 -0.3805447,-0.09457 C 6.7050212,36.216926 6.5966393,36.184895 6.5331774,36.15185 6.3719925,36.082771 6.1300084,35.992236 6.0647975,35.917211 6.0823064,35.884967 5.7404501,35.783604 5.7079566,35.741534 5.7006042,35.702811 5.6888222,35.682113 5.6248512,35.62515 5.5135125,35.486442 5.2865587,35.323868 5.3681713,35.151474 5.3803612,35.006292 5.6151737,34.841909 5.6598038,34.654003 5.8151858,34.495507 5.8559425,34.323389 5.862136,34.115771 5.8145942,33.873551 5.6874787,33.60656 5.735053,33.328323 5.8038687,33.245049 5.7533279,33.131564 5.7499071,33.0145 5.7946639,32.901101 6.1829913,32.890408 6.2091966,32.763934 6.1835971,32.565942 6.1332487,32.34853 6.0497886,32.115466 5.9256958,31.971923 5.9330926,31.82638 5.913116,31.695975 5.8941292,31.559687 5.8748889,31.42614 5.859143,31.300156 5.7949898,31.143645 5.771411,30.981076 5.7231627,30.805259 5.6913422,30.659968 5.6152959,30.569656 5.5932831,30.431658 Z"
       id="path254"
       sodipodi:nodetypes="zcccscssscsssccscccz"
       inkscape:path-effect="#path-effect280"
       inkscape:original-d="m 5.6788178,30.435023 c -0.033245,-0.980641 0.190864,-3.784451 0.190864,-3.784451 -0.6113125,-2.192781 -0.047203,-2.650112 1.81219,-3.355008 0.9116333,-1.117831 2.6974132,-1.372888 5.6920732,-1.129279 -1.659879,1.036362 -4.0222255,1.406812 -2.479051,2.138525 4.195038,1.989125 -1.7905131,1.208356 -2.2756256,1.757265 0.485113,0.254572 0.8389428,0.569654 1.1465158,0.863051 0.3075728,0.293397 2.6683938,-0.564171 1.3143248,0.685221 -0.309305,0.285394 1.084291,0.788463 1.546942,1.048061 0.46265,0.259598 1.049095,0.492172 1.844362,0.679147 -0.501018,0.39772 -3.458352,0.168046 -3.489819,0.540472 -0.04934,0.5839 -1.2088314,0.185865 -1.6490834,0.447138 -0.440251,0.261273 1.9720194,1.590688 1.5806944,1.750381 -0.391325,0.159692 -1.5821728,1.328693 -1.9122088,1.364568 1.1410918,0.358335 1.5884228,0.140199 3.6079278,0.784711 -0.688781,0.169487 -2.075945,0.714578 -1.798001,0.967084 0.605381,0.549975 0.704118,-0.210457 1.942714,2.605248 -2.751712,-2.179938 -2.528404,-1.092212 -4.3560252,-1.463291 -1.8213339,-0.127931 -3.3133446,0.236472 -2.623362,-2.989185 0.00748,-0.675219 -0.062187,-1.929017 -0.095432,-2.909658 z" />
    <path
       style="fill:#ffe8f3;fill-opacity:1;stroke:none;stroke-width:0.529167;stroke-linecap:round;stroke-opacity:1"
       d="m 6.6692588,25.968707 c 0,0 0.1821109,0.08469 0.085301,0.725597 -0.03289,0.217741 2.7789169,1.384514 2.7640707,1.690954 -0.017801,0.367426 -3.1950203,0.141802 -3.1881662,0.657071 0.012432,0.934629 0.2521879,1.088033 0.4823214,1.556874 0.1264345,0.257579 1.7486643,1.170316 1.7622192,1.342019 0.015257,0.193268 -1.3845417,0.518069 -1.5885038,0.674375 -0.2247207,0.172214 -0.4900395,0.473139 -0.5053172,0.887678 0.095335,0.247311 0.1747479,0.459213 0.2377074,0.640232 0.1315844,0.378328 2.0813688,0.7757 2.0643632,0.925553 -0.019022,0.16762 -2.0241041,0.06422 -2.2418977,0.0555 C 6.4201174,35.11966 6.2670283,35.0965 6.0809181,35.0649 5.9160851,34.923804 5.7887376,35.081058 5.6896492,34.672657 5.4116171,33.762662 5.6102715,33.633691 5.9333859,33.309626 5.8447167,33.117092 6.0118699,32.985831 5.9170105,32.552127 5.8221512,32.118424 5.4652793,31.382279 5.45747,31.143097 5.8965483,30.70255 5.7888149,30.79341 5.5404355,30.376569 5.5061678,29.807565 5.3849728,29.153757 5.40329,28.657291 l 0.160834,-1.429397 c -0.1977698,-0.889042 -0.057071,-2.197779 0.2252367,-2.982098 0.1196575,0.154673 1.1048872,-0.423485 1.4136124,-0.132324 0.095682,0.09024 2.4355175,0.469234 2.3553298,0.774172 -0.044456,0.169055 -2.4321275,0.173178 -2.5525691,0.431009 -0.088499,0.18945 -0.1996231,0.405061 -0.336475,0.650054 z"
       id="path256"
       sodipodi:nodetypes="cscsssscssscccscccccsssc" />
    <path
       style="fill:#ffcfe0;fill-opacity:1;stroke:none;stroke-width:0.264583;stroke-linecap:round;stroke-opacity:1"
       d="m 24.985707,30.438588 c 0.05532,-0.07802 -0.03106,-0.247027 -0.02397,-0.394164 0.0023,-0.140145 -0.02464,-0.32013 0.0083,-0.487754 0.05965,-0.158327 0.03918,-0.345192 0.04856,-0.535691 -0.06859,-0.207425 -0.21126,-0.418057 -0.295542,-0.630162 0.03106,-0.179711 0.165095,-0.308152 0.09278,-0.525244 -0.0025,-0.182362 0.116285,-0.332119 0.07648,-0.486011 0.0014,-0.172889 -0.04403,-0.313121 0.01252,-0.425212 -0.08276,-0.170127 0.109944,-0.235223 0.17164,-0.281008 0.05228,-0.01741 0.09866,-0.01159 0.05633,-0.02298 -0.116651,-0.214305 0.215407,-0.330662 0.122382,-0.519007 -0.05214,-0.185461 -0.0771,-0.39723 -0.106587,-0.566206 -0.03264,-0.149373 -0.05059,-0.333346 -0.04593,-0.434557 -0.127149,-0.147723 -0.260722,-0.300069 -0.194839,-0.3645 0.13936,-0.0944 0.04976,-0.204457 0.08272,-0.335006 0.04437,-0.106252 0.0084,-0.237387 0.07052,-0.332411 0.100301,-0.08157 0.156424,-0.192996 0.276735,-0.280557 0.09198,-0.07139 0.28774,-0.126613 0.37411,-0.200025 0.01057,-0.08361 0.328727,-0.07005 0.425887,-0.128135 -0.01431,-0.08848 0.605548,-0.141623 0.72386,-0.205448 0.195447,-0.06194 -0.04869,-0.09589 0.15694,-0.160461 0.06617,-0.05981 -0.222399,-0.124733 -0.152288,-0.188767 0.255563,-0.07748 0.187999,-0.208457 0.40608,-0.250612 0.13041,-0.02363 0.292799,-0.04075 0.409777,-0.07357 0.220527,0.01778 -0.06976,-0.0869 0.183813,-0.05858 0.246271,0.01337 0.278799,-0.01236 0.463365,-0.008 -0.04232,-0.03993 0.136348,-0.02399 0.326771,-3.3e-4 0.153455,0.01071 0.492967,0.08563 0.640652,0.08483 0.130604,0.04208 0.204405,0.02758 0.262728,0.02315 0.189991,0.02804 0.857579,0.152937 0.987235,0.166275 0.008,0.0037 -0.0628,-0.04907 -0.08583,-0.05145 0.25195,0.01937 0.400571,0.0081 0.632936,0.02821 0.208431,0.01351 0.50758,0.04601 0.739278,0.05597 0.22366,0.0274 0.328,-0.0085 0.5834,0.01218 -0.169841,0.117603 0.07484,0.241297 -0.0892,0.335479 -0.308891,0.152439 -0.711394,0.254228 -1.026308,0.348961 -0.171002,0.0486 -0.399945,0.06571 -0.564821,0.103861 -0.147577,0.05646 -0.33366,0.0473 -0.46228,0.08723 -0.120977,0.03876 -0.261278,0.05679 -0.359258,0.08141 -0.115605,0.03155 -0.101563,0.0705 -0.164699,0.10738 -0.02626,0.02644 -0.67648,-0.02323 -0.643898,0.0155 -0.04707,0.03644 0.51344,0.180898 0.86883,0.294387 0.121228,0.04219 0.135308,0.03646 0.206532,0.06149 0.278219,0.100563 0.603879,0.221941 0.747781,0.281523 0.126545,0.06793 0.285908,0.117264 0.268349,0.159382 0.163333,0.114089 0.582487,0.209997 0.468254,0.265068 -0.137284,0.100879 0.105308,0.182367 -0.139316,0.263366 -0.190675,0.04338 -0.232237,0.145274 -0.505891,0.187536 -0.1721,0.02611 -0.37677,0.04619 -0.603448,0.06781 -0.168208,0.01609 -0.319002,0.04849 -0.483369,0.06275 -0.150341,0.03276 -0.331181,0.01413 -0.554665,0.03939 -0.198401,0.02672 -0.254835,0.07161 -0.350567,0.114621 -0.210338,0.03002 -0.394582,0.05538 -0.598189,0.08895 -0.246787,0.0055 -0.237184,0.04523 -0.289723,0.09471 -0.09664,0.04495 -0.265202,0.07682 -0.287766,0.127997 0.15443,0.0704 0.241106,0.135831 0.324131,0.204916 0.129527,0.07855 0.330404,0.146929 0.462861,0.252813 0.08017,0.05857 0.21573,0.123612 0.261435,0.179447 -0.0012,0.06791 -0.01299,0.153425 0.04643,0.2287 0.0423,0.03616 0.162977,0.07804 0.289266,0.107417 0.161661,0.04757 0.418737,0.05706 0.421988,0.0772 0.176366,0.0336 0.437964,0.102973 0.675256,0.161469 0.103877,0.03027 0.289771,0.02605 0.196379,0.03383 0.160001,0.0456 0.210807,0.07894 0.344918,0.160579 0.226393,0.112139 0.103837,0.224772 -0.08101,0.419918 -0.06625,0.112826 -0.03547,0.280512 -0.23638,0.430848 -0.118407,0.04654 -0.09,0.141209 -0.0083,0.167445 0.02007,0.01369 0.0561,0.02563 0.207859,0.01657 0.139422,-1.85e-4 0.728233,0.05065 1.010076,0.09441 0.270798,0.03462 0.312161,0.02524 0.365042,0.07698 0.06041,0.07821 0.143961,0.137431 0.188851,0.242452 0.173092,0.10949 0.111297,0.203801 0.117991,0.300102 0.04073,0.122786 0.133871,0.229372 0.123175,0.328363 0.03645,0.119271 0.116657,0.187698 0.217153,0.286025 0.133677,0.116136 0.11272,0.217224 0.287396,0.260082 -0.06407,0.008 -0.284696,0.02033 -0.414741,0.02101 -0.14692,0.0027 0.0017,0.08407 -0.08508,0.07469 -0.146105,-0.0073 -0.252607,0.04733 -0.473451,-0.01028 -0.193641,-0.03982 -0.329429,-0.0508 -0.556109,-0.105219 -0.162104,-0.04292 -0.419523,-0.106025 -0.68072,-0.159244 -0.175362,-0.04432 -0.125304,-0.07378 -0.188232,-0.09222 -0.208157,-0.06311 -0.426292,-0.120748 -0.542158,-0.124679 -0.08446,-0.0072 -0.29998,0.0074 -0.313269,0.02328 -0.02687,0.0219 -0.427078,-0.06553 -0.326751,-0.01017 0.0336,0.201529 0.0091,0.311729 -0.0074,0.398261 -0.119643,0.05902 -0.555129,-0.0018 -0.686271,0.02822 -0.135872,0.025 -0.0034,0.137291 -0.158391,0.215729 -0.0083,0.04671 -0.135293,0.109046 -0.01596,0.201616 0.07378,0.09723 -0.246671,0.162328 -0.153883,0.268418 0.130407,0.176385 0.51612,0.369678 0.832923,0.561104 0.268097,0.131331 0.322278,0.212329 0.551299,0.326778 0.151965,0.08823 0.7514,0.227985 0.866122,0.309434 0.08574,0.0804 -0.441107,0.04836 -0.540307,0.06475 -0.05573,0.02925 -0.158633,0.07778 -0.276584,0.133 -0.09841,0.064 0.04201,0.214508 -0.18603,0.278163 -0.245275,0.08649 -0.213589,0.269749 -0.370897,0.392312 -0.06756,0.120688 -0.315884,0.203417 -0.459429,0.28688 -0.05696,0.09114 -0.339308,0.08711 -0.367506,0.144782 -0.100537,0.06225 -0.234162,0.136276 -0.156141,0.146183 0.23506,0.05444 0.235057,0.07057 0.336538,0.09551 0.123631,0.03115 0.276083,0.09276 0.367666,0.10057 0.05877,0.0096 0.337873,0.04396 0.396366,0.04911 0.05509,0.0078 0.332708,0.08924 0.382398,0.09422 0.05305,0.01218 0.378375,0.153452 0.394534,0.15284 0.05052,0.0043 -0.0032,-0.0053 0.02883,-0.0036 0.0899,-0.0052 0.0903,-0.0484 0.40158,-0.01871 0.100172,0.0061 0.505431,0.07545 0.691085,0.141784 0.179586,0.05136 0.281324,0.06657 0.524346,0.143697 -0.150461,0.02251 -0.311397,0.09243 -0.484734,0.133755 -0.152364,0.06824 -0.395215,0.150092 -0.514212,0.235079 -0.181137,0.06589 -0.315325,0.164623 -0.405068,0.237679 -0.165936,0.06419 -0.250416,0.16059 -0.343468,0.20977 -0.05713,0.09681 -0.217864,0.04356 -0.282605,0.09378 0.137835,0.109337 0.272028,0.153249 0.365958,0.201693 0.08692,0.03707 -0.02493,-0.02016 0.15072,0.0486 0.153606,0.05342 0.264243,0.09417 0.374554,0.129325 0.03753,0.01328 0.182852,0.05586 0.154478,0.03827 0.116961,0.03686 0.267583,0.131283 0.380418,0.184976 0.159392,0.08163 0.261237,0.17913 0.48088,0.325556 0.161047,0.124153 0.509327,0.36413 0.780775,0.546916 -0.318195,-0.04597 -0.432692,-0.04572 -0.639945,-0.07245 -0.211046,-0.02819 -0.219437,-0.01955 -0.471789,-0.03138 -0.289506,-0.01979 -0.456976,-0.06039 -0.722439,-0.08237 -0.09288,-0.0037 -0.178661,0.0042 -0.262881,0.011 -0.192351,-0.01511 0.164956,0.100023 0.01116,0.06959 -0.229568,0.0088 -0.454177,0.02368 -0.690134,0.02853 -0.09668,0.0065 -0.285308,-0.0066 -0.403549,-0.01005 -0.1559,-9.7e-4 8.33e-4,0.05739 -0.07775,0.05442 -0.178433,-0.01 -0.111247,0.04998 -0.214181,0.04844 -0.159701,-0.02108 -0.420642,-0.04803 -0.649037,-0.109139 -0.104484,-0.02219 -0.231977,-0.041 -0.31104,-0.064 -0.116962,-0.03215 -0.507677,-0.173298 -0.610162,-0.192275 -0.115405,0.0048 -0.514087,-0.07962 -0.646983,-0.08058 -0.120509,-0.04878 -0.05375,0.0029 -0.146042,0.0018 -0.08431,0.0093 -0.243681,0.0033 -0.362241,0.0023 -0.139942,-0.0039 -0.194251,0.01937 -0.365663,-0.01218 -0.08082,0.0014 -0.181394,-0.01819 -0.275167,-0.03811 -0.10868,-0.01751 0.04247,0.01766 -0.04889,-0.02567 -0.120466,-0.06549 -0.225715,-0.175385 -0.361359,-0.355178 -0.0611,-0.08054 0.267248,-0.11314 0.238366,-0.196176 -0.05541,-0.143331 -0.159636,-0.325095 -0.225943,-0.524057 -0.02883,-0.11632 -0.0992,-0.256142 -0.150357,-0.404846 -0.101451,-0.193163 -0.06034,-0.311747 -0.0672,-0.501528 -0.07798,-0.234698 -0.08365,-0.512674 0.02064,-0.757391 0.0082,-0.09573 -0.177774,-0.2469 -0.105654,-0.348568 -0.02222,-0.120449 -0.0041,-0.23408 -0.0073,-0.365632 0.01921,-0.118488 0.07839,-0.242974 0.123581,-0.381348 0.05487,-0.153268 -0.232555,-0.33219 -0.315267,-0.50059 -0.05388,-0.171032 0.05988,-0.304749 0.03035,-0.47158 -0.03697,-0.167994 0.47047,-0.227738 0.490042,-0.375102 0.03112,-0.142316 -0.28075,-0.326236 -0.347561,-0.474658 0.103966,0.02041 0.152968,0.04391 0.01057,0.0021 z"
       id="path266"
       sodipodi:nodetypes="zcccscssscsssccsccczz"
       inkscape:path-effect="#path-effect296"
       inkscape:original-d="m 24.96835,30.435023 c -0.03325,-0.980641 0.190864,-3.784451 0.190864,-3.784451 -0.611313,-2.192781 -0.126581,-2.888254 1.732809,-3.59315 0.911633,-0.720927 2.538652,-0.420318 5.533312,-0.17671 -1.659879,1.036362 -3.850144,0.852123 -2.240909,1.424098 3.295441,1.17131 -1.946933,1.066156 -2.275626,1.757265 0.485113,0.254572 0.838943,0.569654 1.146516,0.863051 0.307573,0.293397 2.747775,0.110566 1.393706,1.359958 -0.309305,0.285394 1.00491,0.113726 1.467561,0.373324 0.46265,0.259598 0.493429,1.24629 1.288696,1.433265 -0.501018,0.39772 -3.537732,-0.744834 -3.569199,-0.372408 -0.04934,0.5839 -0.573786,0.344627 -1.014038,0.6059 -0.440251,0.261273 1.97202,1.590688 1.580695,1.750381 -0.391325,0.159692 -1.582173,1.328693 -1.912209,1.364568 1.141092,0.358335 1.588423,0.140199 3.607928,0.784711 -0.688781,0.169487 -2.075945,0.714578 -1.798001,0.967084 0.605381,0.549975 0.442255,-0.158084 2.553728,1.418135 -2.926288,-0.381811 -3.139418,0.0949 -4.967039,-0.276178 -1.821334,-0.127931 -3.313345,0.236472 -2.623362,-2.989185 0.0075,-0.675219 -0.06219,-1.929017 -0.09543,-2.909658 z" />
    <path
       style="fill:#ffe8f3;fill-opacity:1;stroke:none;stroke-width:0.529167;stroke-linecap:round;stroke-opacity:1"
       d="m 26.236124,26.589559 c -0.03289,0.217741 2.848747,1.035363 2.8339,1.341803 -0.009,0.185388 -1.8142,0.143317 -1.269,0.469711 0.745773,0.44647 -1.538496,0.281225 -1.901708,0.676171 -0.632723,0.688003 0.636254,0.96583 0.482322,1.556874 -0.07232,0.277674 2.258203,0.669916 1.814591,0.975411 -0.64447,0.443816 -2.047928,0.745017 -1.920197,1.006068 0.124433,0.25431 -0.49004,0.473139 -0.505317,0.887678 0.09533,0.247311 0.349323,0.459213 0.412282,0.640232 0.131585,0.378328 2.779669,0.09486 2.762665,0.244709 -0.0096,0.08424 -1.422054,0.271991 -1.110319,0.751062 0.416213,0.639633 -1.896117,-0.01038 -2.004455,-0.01472 -0.121242,-0.0049 -0.274329,-0.02806 -0.460439,-0.05966 -0.164833,-0.141094 -0.292181,0.01616 -0.391269,-0.392241 -0.278032,-0.909995 -0.184125,-1.161169 0.138992,-1.485234 -0.08867,-0.192534 -0.07864,0.04281 -0.173498,-0.39089 -0.09486,-0.433703 -0.189868,-1.414254 -0.197677,-1.653436 0.439078,-0.440547 0.331345,-0.349687 0.08296,-0.766528 -0.03427,-0.569004 -0.155462,-1.222812 -0.137145,-1.719278 l 0.160834,-1.429397 c -0.19777,-0.889042 -0.05707,-2.197779 0.225237,-2.982098 0.119657,0.154673 0.628602,-0.582246 0.937327,-0.291086 0.09568,0.09024 2.841972,0.226473 2.761785,0.531411 -0.04446,0.169055 -2.187723,0.609616 -2.308164,0.867447 -0.815598,0.749619 -0.149426,0.585728 -0.233707,1.235989 z"
       id="path268"
       sodipodi:nodetypes="ccssssscsssscccscccccsscc" />
    <path
       style="fill:#ffcfe0;fill-opacity:1;stroke:none;stroke-width:0.264583;stroke-linecap:round;stroke-opacity:1"
       d="m 34.402606,30.40518 c 0.203805,-0.04461 0.117422,-0.213619 0.124514,-0.360756 0.0023,-0.140145 -0.02464,-0.32013 0.0083,-0.487754 0.05965,-0.158327 0.03918,-0.345192 0.04856,-0.535691 -0.06859,-0.207425 -0.21126,-0.418057 -0.295542,-0.630162 0.03107,-0.179711 0.165095,-0.308152 0.09278,-0.525244 -0.0025,-0.182362 0.116285,-0.332119 0.07648,-0.486011 0.0014,-0.172889 -0.04403,-0.313121 0.01252,-0.425212 -0.08276,-0.170127 0.109944,-0.235223 0.17164,-0.281008 0.05228,-0.01741 0.09866,-0.01159 0.05633,-0.02298 -0.116651,-0.214305 0.216063,-0.328693 0.12423,-0.513461 -0.05091,-0.181911 -0.07387,-0.3879 -0.100744,-0.549431 -0.03027,-0.141917 -0.04558,-0.317452 -0.03812,-0.409537 -0.12448,-0.138294 -0.255409,-0.280781 -0.186995,-0.335122 0.142604,-0.08799 0.05726,-0.190516 0.09531,-0.31292 0.04887,-0.09601 0.01788,-0.21648 0.08537,-0.300917 0.105635,-0.06886 0.167122,-0.16789 0.292578,-0.243961 0.09413,-0.06051 0.291256,-0.105631 0.378247,-0.169922 0.01124,-0.07621 0.329857,-0.05588 0.427082,-0.10799 -0.01236,-0.08214 0.608936,-0.130055 0.728086,-0.190105 0.197053,-0.05808 -0.04606,-0.09002 0.160137,-0.154805 0.06186,-0.08384 -0.230903,-0.174476 -0.165021,-0.265563 0.231004,-0.116304 0.128936,-0.29726 0.302834,-0.396315 0.127128,-0.07095 0.286999,-0.135104 0.402033,-0.21404 0.222758,-0.01508 -0.06465,-0.151951 0.192359,-0.154962 0.244836,-0.0246 0.275492,-0.08751 0.457857,-0.119099 -0.04361,-0.06436 0.13379,-0.07223 0.322966,-0.07163 0.14754,-0.01282 0.481607,0.03933 0.624177,0.01668 0.12257,0.03027 0.188788,0.0043 0.239868,-0.01131 0.175339,0.0061 0.830485,0.110924 0.948829,0.105806 0.0054,0.0034 -0.068,-0.04957 -0.09363,-0.05219 0.204915,-0.0116 0.331038,-0.04663 0.535091,-0.04771 0.192096,-0.01897 0.468235,0.0011 0.664058,-0.0079 0.336208,0.0087 0.436395,0.03986 0.596901,0.03989 0.15237,-0.0044 0.278205,-0.04005 0.534137,-0.01762 -0.150269,0.105544 -0.378569,0.190723 -0.536691,0.286455 -0.156177,0.08714 -0.378078,0.144175 -0.545316,0.222477 -0.153582,0.09748 -0.355476,0.128774 -0.510167,0.207875 -0.14561,0.0784 -0.322406,0.134977 -0.469745,0.195972 -0.162778,0.06825 -0.212149,0.14079 -0.356208,0.207279 -0.136554,0.07655 -0.890395,0.07417 -0.95148,0.157859 -0.186623,0.159637 0.111168,0.385942 0.473872,0.59141 0.03978,0.01442 -0.06213,8.19e-4 -0.09323,-0.0034 0.04345,0.02535 0.160153,0.130326 0.208751,0.154154 0.183777,0.06802 0.18099,0.07351 0.169728,0.117727 0.332342,0.155193 0.961282,0.291994 1.081315,0.38585 0.0045,0.05472 0.527248,0.106219 0.637168,0.164824 0.710734,0.452892 0.672285,0.731903 0.04493,0.849328 -0.03596,0.0108 -0.09824,0.01561 -0.182301,0.02132 -0.05073,0.0045 -0.08554,0.02449 -0.138106,0.02528 -0.06806,0.01696 -0.168287,-0.01779 -0.31907,-0.0099 -0.151533,0.0078 -0.16721,0.03205 -0.235117,0.05224 -0.187118,0.01244 -0.378158,0.01316 -0.621609,0.01656 -0.1892,-0.0024 -0.390298,3.64e-4 -0.453318,0.01514 -0.195357,-6.21e-4 -0.389721,0.0049 -0.55155,0.01131 -0.164555,0.0091 -0.206731,0.02776 -0.395594,0.03358 -0.182898,0.01191 -0.394263,-0.04619 -0.570928,-0.02765 -0.200041,0.0015 -0.187841,0.04995 -0.279457,0.0791 -0.08208,0.04797 -0.120205,0.101745 -0.135357,0.144908 0.116419,0.06402 0.219311,0.127154 0.323882,0.197017 0.191682,0.107305 0.729357,0.182346 0.753537,0.230321 0.126027,0.0928 -0.187041,0.126421 -0.243144,0.207652 0.142852,0.05988 0.373983,0.240146 0.412336,0.288517 0.03373,0.03899 0.05778,0.0314 0.24669,0.0419 0.177123,0.0062 0.215006,-0.02943 0.368631,-0.04679 0.220955,-0.014 0.509355,-0.02062 0.67024,-0.04533 0.0237,-0.02384 0.09908,-0.02495 0.211584,-0.01385 0.224726,0.02455 0.309365,0.11849 0.156548,0.268733 -0.09683,0.101282 -0.294111,0.195056 -0.475644,0.411708 -0.01138,0.06268 0.205915,0.159571 0.241335,0.22606 0.05007,0.04789 0.0551,0.05791 0.09825,0.09785 0.143824,0.116904 0.368518,0.203179 0.515405,0.299888 0.120953,0.06152 0.403179,0.197184 0.554453,0.26584 0.08141,0.07017 0.139809,0.10513 0.253838,0.169137 0.05984,0.04603 0.191324,0.143369 0.348834,0.212752 0.04747,0.02432 0.242429,0.110751 0.28357,0.115863 0.200677,0.04055 0.261318,0.124167 0.337745,0.139357 0.119099,0.04518 0.217913,0.107242 0.334679,0.140393 0.142995,0.03541 0.01224,-0.01358 0.188489,0.02732 0.0062,0.0541 -0.111269,0.08498 -0.264706,0.117603 -0.09964,0.02407 0.0071,0.05877 -0.02091,0.09702 -0.176645,0.03387 -0.392052,0.04914 -0.569532,0.08663 -0.234899,0.0049 -0.271394,0.07335 -0.527193,0.06942 -0.299337,-0.02156 -0.240376,0.06322 -0.450004,0.0594 -0.239862,0.003 -0.698058,-0.08468 -0.797076,-0.05714 -0.11576,-0.0058 -0.207147,-0.0069 -0.28279,-0.0052 -0.175597,0.01377 -0.138452,0.05514 -0.241074,0.07117 -0.220414,0.02455 0.125743,0.114332 0.113752,0.156384 -0.05084,0.111735 -0.01245,0.21567 -0.118325,0.267962 -0.134759,0.06059 -0.324014,0.07893 -0.520703,0.08036 -0.103385,0.01081 -0.333645,-0.01889 -0.671276,-0.05114 -0.07525,0.0044 -0.110239,0.0074 -0.204699,0.0048 -0.157193,0.0073 -0.363407,2.46e-4 -0.487011,0.06847 -0.01062,0.05381 0.07991,0.192248 0.112795,0.287718 0.05855,0.0832 0.531764,0.305773 0.626495,0.40207 -0.01219,0.06371 0.13507,0.139488 0.212105,0.208391 0.102311,0.118069 0.348982,0.261782 0.489056,0.392808 0.158375,0.131995 0.434017,0.316906 0.621853,0.409206 0.05633,0.09207 -0.3176,0.06569 -0.512534,0.08176 -0.01442,0.03217 -0.06191,0.105534 -0.161825,0.169749 -0.08099,0.07804 -0.102056,0.210468 -0.267857,0.310767 -0.118278,0.07723 -0.101373,0.24677 -0.303699,0.321985 -0.156533,0.09709 -0.179797,0.26325 -0.415508,0.30409 -0.135192,0.08486 -0.168427,0.167922 -0.294001,0.214032 -0.106362,0.04571 -0.404105,0.03441 -0.455096,0.04368 0.0784,0.03731 0.08655,0.04544 0.31736,0.08439 0.15363,0.03248 0.348777,0.08001 0.534033,0.113245 0.0801,0.01159 0.172477,0.03872 0.261709,0.05563 0.164446,0.02163 0.226387,0.09145 0.336742,0.0978 0.0075,-0.0011 0.09155,0.01613 0.185302,0.01667 0.136503,-0.0023 0.231027,0.02752 0.432158,0.05632 0.163254,0.03258 0.33366,0.07139 0.552822,0.08332 0.200177,0.02774 0.53319,0.103917 0.591952,0.119928 0.194928,0.04676 0.410534,0.181433 0.611393,0.246771 -0.123641,0.02546 -0.638745,-0.0681 -0.849213,-0.03379 -0.102492,0.03412 -0.268592,0.03653 -0.350738,0.08716 -0.188107,0.08774 -0.08306,0.310232 -0.183933,0.422893 -0.171415,0.119238 -0.148227,0.338727 -0.209403,0.41875 -0.06293,0.05109 -0.24832,-0.02179 -0.223797,0.014 0.101029,0.109748 -0.03677,0.06965 0.01981,0.105758 0.01154,0.06388 0.254873,0.127307 0.350833,0.189492 0.0054,0.01236 0.267145,0.0284 0.361419,0.07665 -0.02474,-0.01818 0.288721,0.07365 0.296883,0.07593 0.07139,0.046 0.190786,0.06875 0.09129,0.09391 0.06551,0.110277 0.211113,0.364395 0.288803,0.601987 0.0316,0.152823 0.09623,0.327357 0.149961,0.534832 0.07848,0.241971 0.234294,0.554681 0.387284,0.940963 -0.333575,-0.200218 -0.329231,-0.313175 -0.538322,-0.462871 -0.304668,-0.201685 -0.309301,-0.281087 -0.446988,-0.382464 -0.269173,-0.15635 -0.550869,-0.250642 -0.77248,-0.341535 -0.181667,-0.07146 -0.224397,-0.06667 -0.337508,-0.09249 -0.13658,-0.03209 -0.187539,-0.05449 -0.209505,-0.04129 -0.105502,-0.0089 -0.255227,-0.01785 -0.3899,-0.02243 -0.169231,-0.0167 -0.05009,-0.01273 -0.14305,-0.01875 -0.09383,0.0019 -0.264197,-0.0083 -0.410997,-0.0123 -0.122496,-0.01829 -0.0199,0.06428 -0.134814,0.05791 -0.04884,0.02099 -0.340935,-0.03165 -0.553889,-0.07207 -0.164862,-0.03269 -0.122566,0.06311 -0.341686,0.01432 -0.16046,-0.01941 -0.289273,-0.02917 -0.459608,-0.04662 -0.17094,-0.01727 0.05098,0.02929 -0.08319,0.03903 -0.266298,-0.01973 -0.545494,-0.04826 -0.774244,-0.08405 -0.10497,-0.01513 -0.250614,-0.05069 -0.380544,-0.09457 -0.103831,-0.03771 -0.212213,-0.06974 -0.275675,-0.102784 -0.161184,-0.06908 -0.403169,-0.159614 -0.468379,-0.234639 0.01751,-0.03224 -0.324348,-0.133607 -0.356841,-0.175677 -0.0074,-0.03872 -0.01913,-0.05942 -0.08311,-0.116384 -0.111338,-0.138708 -0.338292,-0.301282 -0.25668,-0.473676 0.01219,-0.145182 0.247003,-0.309565 0.291633,-0.497471 0.155382,-0.158496 0.196139,-0.330614 0.202332,-0.538232 -0.04754,-0.24222 -0.174657,-0.509211 -0.127083,-0.787448 0.06882,-0.08327 0.01828,-0.196759 0.01486,-0.313823 0.04476,-0.113399 0.433087,-0.124092 0.459292,-0.250566 -0.0256,-0.197993 -0.07595,-0.415405 -0.15941,-0.64847 -0.124093,-0.143542 -0.116697,-0.289085 -0.136674,-0.419489 -0.01899,-0.136289 -0.03823,-0.269835 -0.05397,-0.395819 -0.06415,-0.156511 -0.08773,-0.31908 -0.135982,-0.494897 -0.03182,-0.145291 -0.107867,-0.235603 -0.129879,-0.373601 0.04596,0.0198 -0.05484,-0.02498 -0.0456,-0.02648 z"
       id="path272"
       sodipodi:nodetypes="zcccscssscsssccscccz"
       inkscape:path-effect="#path-effect304"
       inkscape:original-d="m 34.533735,30.435023 c -0.03325,-0.980641 0.190864,-3.784451 0.190864,-3.784451 -0.611313,-2.192781 -0.0472,-2.650112 1.81219,-3.355008 0.911633,-1.117831 2.697413,-1.372888 5.692073,-1.129279 -1.659879,1.036362 -4.022226,1.406812 -2.479051,2.138525 4.195038,1.989125 -1.790513,1.208356 -2.275626,1.757265 0.485113,0.254572 0.838943,0.569654 1.146516,0.863051 0.307573,0.293397 2.668394,-0.564171 1.314325,0.685221 -0.309305,0.285394 1.084291,0.788463 1.546942,1.048061 0.46265,0.259598 1.049095,0.492172 1.844362,0.679147 -0.501018,0.39772 -3.458352,0.168046 -3.489819,0.540472 -0.04934,0.5839 -1.208832,0.185865 -1.649084,0.447138 -0.440251,0.261273 1.97202,1.590688 1.580695,1.750381 -0.391325,0.159692 -1.582173,1.328693 -1.912209,1.364568 1.141092,0.358335 1.588423,0.140199 3.607928,0.784711 -0.688781,0.169487 -2.075945,0.714578 -1.798001,0.967084 0.605381,0.549975 0.704118,-0.210457 1.942714,2.605248 -2.751712,-2.179938 -2.528404,-1.092212 -4.356025,-1.463291 -1.821334,-0.127931 -3.313345,0.236472 -2.623362,-2.989185 0.0075,-0.675219 -0.06219,-1.929017 -0.09543,-2.909658 z" />
    <path
       style="fill:#ffe8f3;fill-opacity:1;stroke:none;stroke-width:0.529167;stroke-linecap:round;stroke-opacity:1"
       d="m 35.524176,25.968707 c 0,0 0.182111,0.08469 0.0853,0.725597 -0.03289,0.217741 2.778917,1.384514 2.76407,1.690954 -0.0178,0.367426 -3.19502,0.141802 -3.188166,0.657071 0.01243,0.934629 0.252188,1.088033 0.482322,1.556874 0.126434,0.257579 1.748664,1.170316 1.762219,1.342019 0.01526,0.193268 -1.384542,0.518069 -1.588504,0.674375 -0.224721,0.172214 -0.49004,0.473139 -0.505317,0.887678 0.09533,0.247311 0.174748,0.459213 0.237707,0.640232 0.131585,0.378328 2.081369,0.7757 2.064363,0.925553 -0.01902,0.16762 -2.024104,0.06422 -2.241897,0.0555 -0.12124,-0.0049 -0.274329,-0.02806 -0.460439,-0.05966 -0.164833,-0.141094 -0.292181,0.01616 -0.391269,-0.392241 -0.278032,-0.909995 -0.07938,-1.038966 0.243737,-1.363031 -0.08867,-0.192534 0.07848,-0.323795 -0.01638,-0.757499 -0.09486,-0.433703 -0.451731,-1.169848 -0.45954,-1.40903 0.439078,-0.440547 0.331345,-0.349687 0.08296,-0.766528 -0.03427,-0.569004 -0.155462,-1.222812 -0.137145,-1.719278 l 0.160834,-1.429397 c -0.19777,-0.889042 -0.05707,-2.197779 0.225237,-2.982098 0.119657,0.154673 1.104887,-0.423485 1.413612,-0.132324 0.09568,0.09024 2.435517,0.469234 2.35533,0.774172 -0.04446,0.169055 -2.432128,0.173178 -2.552569,0.431009 -0.0885,0.18945 -0.199623,0.405061 -0.336475,0.650054 z"
       id="path274"
       sodipodi:nodetypes="cscsssscssscccscccccsssc" />
    <path
       style="fill:#ffcfe0;fill-opacity:1;stroke:none;stroke-width:0.264583;stroke-linecap:round;stroke-opacity:1"
       d="m 15.20604,30.646954 c 0.07115,-0.07689 -0.01523,-0.245902 -0.0081,-0.393039 0.0023,-0.140145 -0.02464,-0.32013 0.0083,-0.487754 0.05965,-0.158327 0.03918,-0.345192 0.04856,-0.535691 -0.06859,-0.207425 -0.21126,-0.418057 -0.295542,-0.630162 0.03107,-0.179711 0.165095,-0.308152 0.09278,-0.525244 -0.0025,-0.182362 0.116285,-0.332119 0.07648,-0.486011 0.0014,-0.172889 -0.04403,-0.313121 0.01252,-0.425212 -0.08276,-0.170127 0.109944,-0.235223 0.17164,-0.281008 0.05228,-0.01741 0.09866,-0.01159 0.05633,-0.02298 -0.116651,-0.214305 0.216063,-0.328694 0.12423,-0.513461 -0.05091,-0.181911 -0.07387,-0.3879 -0.100744,-0.549431 -0.03027,-0.141917 -0.04558,-0.317452 -0.03812,-0.409537 -0.12448,-0.138294 -0.255409,-0.280781 -0.186995,-0.335122 0.142604,-0.08799 0.05726,-0.190516 0.09531,-0.31292 0.04887,-0.09601 0.01788,-0.216481 0.08537,-0.300918 0.105635,-0.06886 0.167122,-0.167889 0.292578,-0.24396 0.09413,-0.06051 0.291256,-0.105632 0.378247,-0.169923 0.01124,-0.07621 0.329857,-0.05588 0.427082,-0.107989 -0.01236,-0.08214 0.608936,-0.130055 0.728086,-0.190105 0.197053,-0.05808 -0.04606,-0.09002 0.160137,-0.154805 0.06617,-0.09034 -0.224043,-0.183682 -0.156967,-0.274163 0.240745,-0.124447 0.148368,-0.297713 0.334081,-0.377728 0.130382,-0.05498 0.294236,-0.09837 0.414499,-0.153151 0.217635,0.0039 -0.07511,-0.113011 0.176529,-0.09558 0.23938,8.1e-5 0.265263,-0.03703 0.443628,-0.04247 -0.05086,-0.04634 0.118998,-0.03629 0.300486,-0.01805 0.14348,0.0051 0.472916,0.07494 0.610541,0.0695 0.120348,0.03926 0.184046,0.02207 0.232389,0.01509 0.180121,0.02368 0.838057,0.144775 0.95833,0.154793 0.0054,0.0034 -0.06801,-0.04957 -0.09363,-0.05219 0.238866,0.01385 0.375015,-0.0015 0.595635,0.01546 0.20209,0.01063 0.495637,0.04118 0.725844,0.05019 0.219945,0.02651 0.322385,-0.0098 0.578719,0.01096 -0.192773,0.132238 0.03562,0.260697 -0.138321,0.353497 -0.330008,0.151844 -0.741893,0.233788 -1.049789,0.30888 -0.165602,0.037 -0.383611,0.04304 -0.532001,0.07341 -0.130153,0.04818 -0.29316,0.0341 -0.393981,0.07432 -0.08756,0.03862 -0.190687,0.06207 -0.248981,0.0997 -0.06353,0.03778 -0.0036,0.08928 -0.0305,0.145385 -0.03463,0.05028 -0.569503,0.06452 -0.552738,0.145584 0.118579,0.122077 0.751301,0.290271 0.916584,0.440023 0.182577,0.175616 0.150512,0.313066 0.287823,0.461756 0.134049,0.178643 0.303841,0.354554 0.287791,0.45052 0.0019,0.07908 0.0453,0.133937 -0.07935,0.177031 -0.01194,0.09483 0.28244,0.167291 0.08422,0.196178 -0.266575,0.06989 -0.09076,0.111127 -0.352413,0.149699 -0.254337,0.02308 -0.367748,0.09807 -0.693925,0.115075 -0.219893,0.0046 -0.456486,0.0055 -0.694724,0.01188 -0.180171,0.0023 -0.324591,0.02469 -0.465383,0.03286 -0.08158,0.02836 -0.249172,0.02927 -0.417826,0.03281 -0.06562,0.02929 -0.139631,0.10079 -0.148249,0.146768 -0.02769,0.03223 -0.0015,0.08755 0.0932,0.15578 0.100429,0.06612 0.408914,0.199658 0.545608,0.299179 0.07594,0.05293 -0.171555,0.06859 -0.115065,0.123019 0.06633,0.07816 0.384862,0.159329 0.443802,0.229559 0.07364,0.05745 0.303828,0.10385 0.394575,0.126539 0.09626,0.0208 0.172061,-0.03612 0.260961,-0.02077 0.174887,0.02815 0.2686,0.04734 0.484907,0.118682 0.105681,0.04352 0.217601,0.117258 0.257917,0.207291 0.18685,0.08587 0.103391,0.212746 -0.04381,0.303034 -0.0053,0.156533 -0.07669,0.358826 -0.311706,0.560317 -0.02969,0.05956 -0.334386,-0.02993 -0.275048,-0.02263 0.09451,0.0057 0.758175,0.01357 1.011116,-0.01851 0.191916,0.02571 -0.213436,-0.05827 -0.183729,-0.05485 0.252183,-0.02732 0.543274,-0.05568 0.735639,-0.08255 0.188219,-0.01385 0.317096,0.0049 0.532361,0.02318 0.09665,5.56e-4 0.171363,-0.07646 0.286306,-0.02075 0.121335,0.07744 0.407435,0.205569 0.416595,0.249121 0.06872,0.03386 0.160145,0.07982 0.171851,0.103879 0.164826,0.04864 0.417449,0.125532 0.58902,0.166753 0.15669,0.03952 0.431759,0.16662 0.497293,0.19356 -0.0491,0.05503 -0.05124,0.08211 -0.152431,0.124089 -0.09185,0.03806 -0.101351,0.0972 -0.269781,0.152461 -0.199505,0.03825 -0.523898,0.07415 -0.805618,0.08697 -0.166283,-0.01834 -0.45915,-0.01319 -0.63691,-0.0046 -0.229759,0.01411 -0.156764,0.111003 -0.311532,0.120819 -0.209555,0.02964 -0.338502,0.14616 -0.549577,0.164684 -0.206827,0.02448 -0.329693,0.08613 -0.521334,0.107833 -0.136831,0.0307 -0.352995,0.04119 -0.554206,0.06048 -0.138683,0.008 0.07377,0.04258 0.02965,0.08214 -0.03714,0.02703 -0.444534,0.0083 -0.446602,0.04624 0.0051,0.145974 -0.219559,0.228989 -0.295531,0.32265 -0.138809,0.07601 0.09204,0.209355 -0.0012,0.265667 -0.191705,0.06788 -0.199676,0.198713 -0.285361,0.281978 -0.197686,0.05134 -0.282893,0.126595 -0.404394,0.190871 -0.1059,0.03488 -0.119319,0.101744 -0.07381,0.188551 0.132477,0.107129 0.129838,0.223125 0.349441,0.359474 0.156539,0.126005 -0.111505,0.208118 0.0065,0.320537 0.169776,0.186597 0.577228,0.370077 0.85022,0.528992 0.08061,0.07198 0.343437,0.17905 0.392035,0.240853 0.25217,0.08648 0.300025,0.149531 0.260115,0.170381 -0.177613,4.66e-4 -0.262011,0.07471 -0.426534,0.130285 -0.144358,0.06862 -0.327626,0.143862 -0.512576,0.211297 -0.155604,0.07379 -0.06186,0.220892 -0.320696,0.265799 -0.17311,0.08989 -0.360303,0.19226 -0.441608,0.251868 -0.124368,0.04412 -0.545005,-0.02609 -0.69933,-0.0384 0.05237,0.101438 0.248173,0.210154 0.360956,0.301652 0.05043,0.07104 0.524194,0.231116 0.621282,0.278927 0.124342,0.02172 0.02131,0.01194 0.02445,0.01579 0.119866,0.06677 0.267752,0.14853 0.361887,0.168959 0.07801,0.02489 0.379758,0.06475 0.474514,0.07482 0.100522,0.0098 0.422109,0.0947 0.528276,0.109913 0.126932,0.01413 0.436826,0.156165 0.616213,0.191459 0.126676,0.02835 0.122874,-0.02954 0.444913,0.07731 -0.18739,0.03163 -0.424657,0.06404 -0.572953,0.11715 -0.182326,0.03985 -0.625757,0.06428 -0.777583,0.105659 -0.222484,0.08571 -0.286568,0.166493 -0.170132,0.276597 0.02841,0.02862 0.417366,0.08228 0.467969,0.128064 0.09566,0.07541 0.09121,0.170065 0.135943,0.182518 -0.05964,0.0049 -0.04164,0.0098 -0.01461,-0.01005 0.05838,-0.03208 0.07145,-0.0533 0.190606,-0.04765 0.08759,0.01529 0.152042,0.04217 0.257186,0.06631 0.09513,0.05028 0.20554,0.07224 0.285979,0.127248 0.119876,0.06497 0.03441,0.05442 0.23268,0.188745 0.131157,0.133814 0.363109,0.383515 0.490062,0.626926 0.111944,0.232931 0.287961,0.53282 0.468578,0.887231 -0.238745,-0.18521 -0.19624,-0.230342 -0.382946,-0.364807 -0.303052,-0.20559 -0.422166,-0.237996 -0.632804,-0.341539 -0.232663,-0.10311 -0.538971,-0.197878 -0.696133,-0.226254 -0.222451,-0.03916 -0.253052,-0.02709 -0.387665,-0.03891 -0.124532,-0.013 -0.05728,0.01184 -0.243928,0.01639 -0.214439,-9.61e-4 -0.320905,-0.02244 -0.537647,-0.02637 -0.05058,0.0037 -0.09741,0.01854 -0.145685,0.03174 -0.155622,-0.0015 0.231674,0.126644 0.101624,0.107811 -0.165888,0.03266 -0.399915,0.05667 -0.66391,0.05894 -0.09658,0.006 -0.290422,-0.01049 -0.41376,-0.0192 -0.0958,-0.0045 -0.02326,0.07373 -0.133057,0.03764 -0.05726,0.01115 -0.712951,-0.10842 -0.811744,-0.122451 -0.13559,-0.012 -0.489696,-0.07632 -0.599891,-0.08178 -0.05889,-0.0032 -0.09625,0.04037 -0.152511,0.03578 -0.151319,-0.0085 -0.206429,-0.0081 -0.365477,-0.02215 -0.104582,-0.0022 -0.487206,-0.09806 -0.599255,-0.115351 -0.09122,-0.05194 0.0046,-0.0037 -0.05883,-0.0084 -0.06156,-0.0075 -0.192951,-0.03373 -0.279189,-0.05849 -0.138679,-0.03887 -0.178014,-0.06048 -0.321841,-0.151219 -0.08292,-0.07611 -0.159049,-0.195774 -0.204771,-0.350036 -0.02057,-0.108322 0.21996,-0.183975 0.220665,-0.3577 0.03686,-0.147473 0.04462,-0.334743 -0.0014,-0.567041 -0.02253,-0.186732 0.332908,-0.292096 0.323447,-0.511264 -0.0085,-0.220352 -0.428051,-0.560937 -0.381664,-0.816283 -0.02399,-0.114795 -0.0509,-0.241999 -0.03883,-0.363621 0.0087,-0.111311 0.07873,-0.209668 0.08695,-0.346542 0.01847,-0.134166 -0.110433,-0.348478 -0.02703,-0.484745 0.03004,-0.132819 -0.123721,-0.308894 -0.01614,-0.425802 0.02779,-0.157238 0.09678,-0.297823 0.135213,-0.449596 0.01273,-0.14339 0.165653,-0.253009 0.21455,-0.382862 -0.07958,-0.148563 -0.0076,-0.275428 -0.104058,-0.424475 -0.08832,-0.335557 0.05047,-0.447084 0.0051,-0.447498 0.0624,0.0069 0.01368,0.158087 -0.0527,0.279301 -0.108099,0.07781 -0.288487,0.143499 -0.298802,0.135893 0.07521,0.0163 0.03344,0.01453 0.04072,0.0188 z"
       id="path460"
       sodipodi:nodetypes="zcccscssscsssccsccczz"
       inkscape:path-effect="#path-effect468"
       inkscape:original-d="m 15.204513,30.644514 c -0.03325,-0.980641 0.190864,-3.784451 0.190864,-3.784451 -0.611313,-2.192782 -0.0472,-2.650112 1.81219,-3.355008 0.911633,-1.117831 2.260819,-0.856913 5.255479,-0.613304 -1.659879,1.036361 -3.311999,0.480159 -2.042457,1.62255 2.210518,1.989125 -1.790513,1.208355 -2.275626,1.757264 0.485113,0.254572 0.838943,0.569655 1.146516,0.863052 0.307573,0.293397 2.192109,-0.0482 0.83804,1.201196 -0.309305,0.285394 1.798718,-0.322868 2.261369,-0.06327 0.46265,0.259598 0.804689,0.387427 1.599956,0.574402 -0.501018,0.39772 -4.047444,0.669695 -4.078911,1.042121 -0.04934,0.5839 -0.653166,0.781221 -1.093418,1.042494 -0.440251,0.261273 1.932329,1.590688 1.541004,1.750381 -0.391325,0.159692 -1.502792,0.931789 -1.832828,0.967664 0.704498,0.87431 1.032757,0.457722 3.052262,1.102234 -0.688781,0.169487 -1.520279,0.397055 -1.242335,0.649561 0.605381,0.549975 0.90257,-0.845503 2.141166,1.970202 -2.751712,-2.179938 -2.726856,-0.457166 -4.554477,-0.828245 -1.821334,-0.127931 -3.313345,0.236472 -2.623362,-2.989185 0.0075,-0.675219 0.406895,-1.953706 0.176146,-2.934347 -0.23075,-0.980641 -0.271578,0.02469 -0.271578,0.02469 z" />
    <path
       style="fill:#ffe8f3;fill-opacity:1;stroke:none;stroke-width:0.529167;stroke-linecap:round;stroke-opacity:1"
       d="m 16.194954,26.178198 c 0,0 -0.105221,1.429388 0.442514,1.082811 0.396936,-0.251161 2.703691,0.838747 1.970262,1.929096 -1.061864,1.113186 -3.123709,0.204266 -2.751572,0.458619 0.771682,0.527439 0.252188,0.691129 0.482322,1.15997 0.126434,0.257579 1.748664,1.170316 1.762219,1.342019 0.01526,0.193268 -0.908257,0.716521 -1.112219,0.872827 -0.224721,0.172214 -0.966325,0.274687 -0.981602,0.689226 0.09533,0.247311 0.651033,0.300451 0.713992,0.48147 0.131585,0.378328 2.121059,1.212295 2.104053,1.362148 -0.01902,0.16762 -2.540079,-0.213613 -2.757872,-0.222333 -0.12124,-0.0049 -0.274329,-0.02806 -0.460439,-0.05966 -0.164833,-0.141094 -0.292181,0.01616 -0.391269,-0.392241 -0.278032,-0.909995 -0.07938,-1.038966 0.243737,-1.363031 -0.08867,-0.192534 0.07848,-0.323795 -0.01638,-0.757499 -0.09486,-0.433703 -0.130778,-1.046405 -0.138587,-1.285587 0.439078,-0.440547 0.257279,-0.547196 0.0089,-0.964037 -0.03427,-0.569004 -0.106085,-1.247501 -0.08777,-1.743967 l 0.08677,-1.651595 c -0.19777,-0.889043 -0.279268,-1.876827 0.003,-2.661145 0.119657,0.154672 1.104887,-0.423485 1.413612,-0.132325 0.09568,0.09024 2.117994,0.03264 2.037807,0.337578 -0.04446,0.169056 -1.836772,0.768534 -1.957213,1.026365 -0.0885,0.18945 -0.477456,0.246299 -0.614308,0.491293 z"
       id="path462"
       sodipodi:nodetypes="cscsssscssscccscccccssscc" />
  </g>
</svg>
